<svg width="1467" height="1280" viewBox="0 0 1467 1280" fill="none" xmlns="http://www.w3.org/2000/svg">
<rect width="1280" height="1280" rx="32" fill="white"/>
<rect width="1280" height="500" rx="32" fill="#007DFC"/>
<rect x="108" y="126" width="369" height="32" rx="8" fill="white"/>
<rect x="108" y="182" width="506" height="38" rx="8" fill="white"/>
<rect x="108" y="244" width="232" height="38" rx="8" fill="white"/>
<rect x="108" y="314" width="160" height="60" rx="12" fill="white"/>
<rect x="284" y="314" width="160" height="60" rx="12" fill="white"/>
<rect x="16" y="220" width="60" height="60" rx="30" fill="white"/>
<path d="M45.9999 263.333L48.3499 260.983L39.0499 251.667H59.3333V248.333H39.0499L48.3499 239.017L45.9999 236.667L32.6666 250L45.9999 263.333Z" fill="#292D34"/>
<circle cx="571" cy="539" r="15" fill="#D9D9D9"/>
<circle cx="617" cy="539" r="15" fill="#D9D9D9"/>
<circle cx="663" cy="539" r="15" fill="#D9D9D9"/>
<circle cx="709" cy="539" r="15" fill="#D9D9D9"/>
<path d="M82.656 621V598.6H93.6C96.416 598.6 98.528 599.133 99.936 600.2C101.365 601.267 102.08 602.675 102.08 604.424C102.08 605.597 101.792 606.621 101.216 607.496C100.64 608.349 99.8507 609.011 98.848 609.48C97.8453 609.949 96.6933 610.184 95.392 610.184L96 608.872C97.408 608.872 98.656 609.107 99.744 609.576C100.832 610.024 101.675 610.696 102.272 611.592C102.891 612.488 103.2 613.587 103.2 614.888C103.2 616.808 102.443 618.312 100.928 619.4C99.4133 620.467 97.184 621 94.24 621H82.656ZM87.808 617.096H93.856C95.2 617.096 96.2133 616.883 96.896 616.456C97.6 616.008 97.952 615.304 97.952 614.344C97.952 613.405 97.6 612.712 96.896 612.264C96.2133 611.795 95.2 611.56 93.856 611.56H87.424V607.784H92.96C94.2187 607.784 95.1787 607.571 95.84 607.144C96.5227 606.696 96.864 606.024 96.864 605.128C96.864 604.253 96.5227 603.603 95.84 603.176C95.1787 602.728 94.2187 602.504 92.96 602.504H87.808V617.096ZM104.181 621L114.165 598.6H119.285L129.301 621H123.861L115.669 601.224H117.717L109.493 621H104.181ZM109.173 616.2L110.549 612.264H122.069L123.477 616.2H109.173ZM131.625 621V598.6H135.913L149.129 614.728H147.049V598.6H152.169V621H147.913L134.665 604.872H136.745V621H131.625ZM157.469 621V598.6H161.757L174.973 614.728H172.892V598.6H178.013V621H173.757L160.509 604.872H162.589V621H157.469ZM188.08 607.624H198.864V611.656H188.08V607.624ZM188.464 616.84H200.656V621H183.312V598.6H200.24V602.76H188.464V616.84ZM204.781 621V598.6H214.477C216.482 598.6 218.21 598.931 219.661 599.592C221.112 600.232 222.232 601.16 223.021 602.376C223.81 603.592 224.205 605.043 224.205 606.728C224.205 608.392 223.81 609.832 223.021 611.048C222.232 612.243 221.112 613.16 219.661 613.8C218.21 614.44 216.482 614.76 214.477 614.76H207.661L209.965 612.488V621H204.781ZM219.021 621L213.421 612.872H218.957L224.621 621H219.021ZM209.965 613.064L207.661 610.632H214.189C215.789 610.632 216.984 610.291 217.773 609.608C218.562 608.904 218.957 607.944 218.957 606.728C218.957 605.491 218.562 604.531 217.773 603.848C216.984 603.165 215.789 602.824 214.189 602.824H207.661L209.965 600.36V613.064ZM235.672 621.384C233.88 621.384 232.163 621.149 230.52 620.68C228.878 620.189 227.555 619.56 226.552 618.792L228.312 614.888C229.272 615.571 230.403 616.136 231.704 616.584C233.027 617.011 234.36 617.224 235.704 617.224C236.728 617.224 237.55 617.128 238.168 616.936C238.808 616.723 239.278 616.435 239.576 616.072C239.875 615.709 240.024 615.293 240.024 614.824C240.024 614.227 239.79 613.757 239.32 613.416C238.851 613.053 238.232 612.765 237.464 612.552C236.696 612.317 235.843 612.104 234.904 611.912C233.987 611.699 233.059 611.443 232.12 611.144C231.203 610.845 230.36 610.461 229.592 609.992C228.824 609.523 228.195 608.904 227.704 608.136C227.235 607.368 227 606.387 227 605.192C227 603.912 227.342 602.749 228.024 601.704C228.728 600.637 229.774 599.795 231.16 599.176C232.568 598.536 234.328 598.216 236.44 598.216C237.848 598.216 239.235 598.387 240.6 598.728C241.966 599.048 243.171 599.539 244.216 600.2L242.616 604.136C241.571 603.539 240.526 603.101 239.48 602.824C238.435 602.525 237.411 602.376 236.408 602.376C235.406 602.376 234.584 602.493 233.944 602.728C233.304 602.963 232.846 603.272 232.568 603.656C232.291 604.019 232.152 604.445 232.152 604.936C232.152 605.512 232.387 605.981 232.856 606.344C233.326 606.685 233.944 606.963 234.712 607.176C235.48 607.389 236.323 607.603 237.24 607.816C238.179 608.029 239.107 608.275 240.024 608.552C240.963 608.829 241.816 609.203 242.584 609.672C243.352 610.141 243.971 610.76 244.44 611.528C244.931 612.296 245.176 613.267 245.176 614.44C245.176 615.699 244.824 616.851 244.12 617.896C243.416 618.941 242.36 619.784 240.952 620.424C239.566 621.064 237.806 621.384 235.672 621.384Z" fill="black"/>
<rect x="80" y="650" width="550" height="550" rx="16" fill="#39CCF9"/>
<rect x="654" y="650" width="546" height="263" rx="16" fill="#39CCF9"/>
<rect x="654" y="937" width="546" height="263" rx="16" fill="#39CCF9"/>
<g filter="url(#filter0_d_16_3)">
<g clip-path="url(#clip0_16_3)">
<rect x="1088" y="39" width="353.318" height="518" rx="16" fill="white"/>
<circle cx="1145" cy="138" r="25" fill="#DFE3E8"/>
<rect x="1186" y="128" width="219" height="20" rx="4" fill="#DFE3E8"/>
<circle cx="1145" cy="212" r="25" fill="#DFE3E8"/>
<rect x="1186" y="202" width="219" height="20" rx="4" fill="#DFE3E8"/>
<circle cx="1145" cy="286" r="25" fill="#DFE3E8"/>
<rect x="1186" y="276" width="219" height="20" rx="4" fill="#DFE3E8"/>
<circle cx="1145" cy="360" r="25" fill="#DFE3E8"/>
<rect x="1186" y="350" width="219" height="20" rx="4" fill="#DFE3E8"/>
<circle cx="1145" cy="434" r="25" fill="#DFE3E8"/>
<rect x="1186" y="424" width="219" height="20" rx="4" fill="#DFE3E8"/>
<circle cx="1145" cy="508" r="25" fill="#DFE3E8"/>
<rect x="1186" y="498" width="219" height="20" rx="4" fill="#DFE3E8"/>
<path d="M1121.49 75V62.4H1123.91L1131.34 71.472H1130.17V62.4H1133.05V75H1130.66L1123.2 65.928H1124.37V75H1121.49ZM1142.15 75.216C1141.16 75.216 1140.23 75.054 1139.38 74.73C1138.54 74.406 1137.81 73.95 1137.18 73.362C1136.57 72.774 1136.09 72.084 1135.74 71.292C1135.41 70.5 1135.24 69.636 1135.24 68.7C1135.24 67.764 1135.41 66.9 1135.74 66.108C1136.09 65.316 1136.58 64.626 1137.2 64.038C1137.83 63.45 1138.56 62.994 1139.4 62.67C1140.24 62.346 1141.15 62.184 1142.13 62.184C1143.13 62.184 1144.04 62.346 1144.87 62.67C1145.71 62.994 1146.44 63.45 1147.05 64.038C1147.67 64.626 1148.16 65.316 1148.51 66.108C1148.85 66.888 1149.03 67.752 1149.03 68.7C1149.03 69.636 1148.85 70.506 1148.51 71.31C1148.16 72.102 1147.67 72.792 1147.05 73.38C1146.44 73.956 1145.71 74.406 1144.87 74.73C1144.04 75.054 1143.14 75.216 1142.15 75.216ZM1142.13 72.732C1142.7 72.732 1143.21 72.636 1143.68 72.444C1144.16 72.252 1144.58 71.976 1144.94 71.616C1145.3 71.256 1145.58 70.83 1145.77 70.338C1145.97 69.846 1146.08 69.3 1146.08 68.7C1146.08 68.1 1145.97 67.554 1145.77 67.062C1145.58 66.57 1145.3 66.144 1144.94 65.784C1144.59 65.424 1144.18 65.148 1143.7 64.956C1143.22 64.764 1142.7 64.668 1142.13 64.668C1141.57 64.668 1141.05 64.764 1140.57 64.956C1140.1 65.148 1139.69 65.424 1139.33 65.784C1138.97 66.144 1138.68 66.57 1138.48 67.062C1138.29 67.554 1138.19 68.1 1138.19 68.7C1138.19 69.288 1138.29 69.834 1138.48 70.338C1138.68 70.83 1138.96 71.256 1139.31 71.616C1139.67 71.976 1140.09 72.252 1140.57 72.444C1141.05 72.636 1141.57 72.732 1142.13 72.732ZM1153.65 75V64.776H1149.62V62.4H1160.6V64.776H1156.57V75H1153.65ZM1162.17 75V62.4H1165.09V75H1162.17ZM1170.78 68.07H1176.82V70.41H1170.78V68.07ZM1170.99 75H1168.08V62.4H1177.6V64.74H1170.99V75ZM1179.57 75V62.4H1182.49V75H1179.57ZM1191.51 75.216C1190.54 75.216 1189.63 75.06 1188.79 74.748C1187.96 74.424 1187.24 73.968 1186.63 73.38C1186.02 72.792 1185.54 72.102 1185.19 71.31C1184.85 70.518 1184.69 69.648 1184.69 68.7C1184.69 67.752 1184.85 66.882 1185.19 66.09C1185.54 65.298 1186.02 64.608 1186.63 64.02C1187.25 63.432 1187.98 62.982 1188.81 62.67C1189.64 62.346 1190.54 62.184 1191.53 62.184C1192.62 62.184 1193.6 62.376 1194.48 62.76C1195.37 63.132 1196.11 63.684 1196.71 64.416L1194.84 66.144C1194.41 65.652 1193.93 65.286 1193.4 65.046C1192.87 64.794 1192.29 64.668 1191.67 64.668C1191.08 64.668 1190.54 64.764 1190.05 64.956C1189.56 65.148 1189.13 65.424 1188.77 65.784C1188.41 66.144 1188.13 66.57 1187.93 67.062C1187.73 67.554 1187.64 68.1 1187.64 68.7C1187.64 69.3 1187.73 69.846 1187.93 70.338C1188.13 70.83 1188.41 71.256 1188.77 71.616C1189.13 71.976 1189.56 72.252 1190.05 72.444C1190.54 72.636 1191.08 72.732 1191.67 72.732C1192.29 72.732 1192.87 72.612 1193.4 72.372C1193.93 72.12 1194.41 71.742 1194.84 71.238L1196.71 72.966C1196.11 73.698 1195.37 74.256 1194.48 74.64C1193.6 75.024 1192.61 75.216 1191.51 75.216ZM1196.8 75L1202.41 62.4H1205.29L1210.93 75H1207.87L1203.26 63.876H1204.41L1199.78 75H1196.8ZM1199.6 72.3L1200.38 70.086H1206.86L1207.65 72.3H1199.6ZM1214.21 75V64.776H1210.18V62.4H1221.16V64.776H1217.13V75H1214.21ZM1222.73 75V62.4H1225.64V75H1222.73ZM1234.75 75.216C1233.76 75.216 1232.83 75.054 1231.98 74.73C1231.14 74.406 1230.41 73.95 1229.78 73.362C1229.17 72.774 1228.69 72.084 1228.34 71.292C1228.01 70.5 1227.84 69.636 1227.84 68.7C1227.84 67.764 1228.01 66.9 1228.34 66.108C1228.69 65.316 1229.18 64.626 1229.8 64.038C1230.43 63.45 1231.16 62.994 1232 62.67C1232.84 62.346 1233.75 62.184 1234.73 62.184C1235.73 62.184 1236.64 62.346 1237.47 62.67C1238.31 62.994 1239.04 63.45 1239.65 64.038C1240.27 64.626 1240.76 65.316 1241.11 66.108C1241.45 66.888 1241.63 67.752 1241.63 68.7C1241.63 69.636 1241.45 70.506 1241.11 71.31C1240.76 72.102 1240.27 72.792 1239.65 73.38C1239.04 73.956 1238.31 74.406 1237.47 74.73C1236.64 75.054 1235.74 75.216 1234.75 75.216ZM1234.73 72.732C1235.3 72.732 1235.81 72.636 1236.28 72.444C1236.76 72.252 1237.18 71.976 1237.54 71.616C1237.9 71.256 1238.18 70.83 1238.37 70.338C1238.57 69.846 1238.68 69.3 1238.68 68.7C1238.68 68.1 1238.57 67.554 1238.37 67.062C1238.18 66.57 1237.9 66.144 1237.54 65.784C1237.19 65.424 1236.78 65.148 1236.3 64.956C1235.82 64.764 1235.3 64.668 1234.73 64.668C1234.17 64.668 1233.65 64.764 1233.17 64.956C1232.7 65.148 1232.29 65.424 1231.93 65.784C1231.57 66.144 1231.28 66.57 1231.08 67.062C1230.89 67.554 1230.79 68.1 1230.79 68.7C1230.79 69.288 1230.89 69.834 1231.08 70.338C1231.28 70.83 1231.56 71.256 1231.91 71.616C1232.27 71.976 1232.69 72.252 1233.17 72.444C1233.65 72.636 1234.17 72.732 1234.73 72.732ZM1243.82 75V62.4H1246.23L1253.67 71.472H1252.5V62.4H1255.38V75H1252.98L1245.53 65.928H1246.7V75H1243.82ZM1262.5 75.216C1261.49 75.216 1260.52 75.084 1259.6 74.82C1258.68 74.544 1257.93 74.19 1257.37 73.758L1258.36 71.562C1258.9 71.946 1259.53 72.264 1260.27 72.516C1261.01 72.756 1261.76 72.876 1262.52 72.876C1263.09 72.876 1263.55 72.822 1263.9 72.714C1264.26 72.594 1264.53 72.432 1264.69 72.228C1264.86 72.024 1264.95 71.79 1264.95 71.526C1264.95 71.19 1264.81 70.926 1264.55 70.734C1264.29 70.53 1263.94 70.368 1263.51 70.248C1263.07 70.116 1262.59 69.996 1262.07 69.888C1261.55 69.768 1261.03 69.624 1260.5 69.456C1259.98 69.288 1259.51 69.072 1259.08 68.808C1258.65 68.544 1258.29 68.196 1258.02 67.764C1257.75 67.332 1257.62 66.78 1257.62 66.108C1257.62 65.388 1257.81 64.734 1258.2 64.146C1258.59 63.546 1259.18 63.072 1259.96 62.724C1260.75 62.364 1261.74 62.184 1262.93 62.184C1263.72 62.184 1264.5 62.28 1265.27 62.472C1266.04 62.652 1266.72 62.928 1267.3 63.3L1266.4 65.514C1265.82 65.178 1265.23 64.932 1264.64 64.776C1264.05 64.608 1263.48 64.524 1262.91 64.524C1262.35 64.524 1261.89 64.59 1261.53 64.722C1261.17 64.854 1260.91 65.028 1260.75 65.244C1260.6 65.448 1260.52 65.688 1260.52 65.964C1260.52 66.288 1260.65 66.552 1260.91 66.756C1261.18 66.948 1261.53 67.104 1261.96 67.224C1262.39 67.344 1262.86 67.464 1263.38 67.584C1263.91 67.704 1264.43 67.842 1264.95 67.998C1265.47 68.154 1265.95 68.364 1266.39 68.628C1266.82 68.892 1267.17 69.24 1267.43 69.672C1267.71 70.104 1267.84 70.65 1267.84 71.31C1267.84 72.018 1267.65 72.666 1267.25 73.254C1266.85 73.842 1266.26 74.316 1265.47 74.676C1264.69 75.036 1263.7 75.216 1262.5 75.216Z" fill="#6C757D"/>
<rect x="1088" y="96" width="354" height="1" fill="#D9D9D9"/>
</g>
</g>
<defs>
<filter id="filter0_d_16_3" x="1063" y="29" width="403.318" height="568" filterUnits="userSpaceOnUse" color-interpolation-filters="sRGB">
<feFlood flood-opacity="0" result="BackgroundImageFix"/>
<feColorMatrix in="SourceAlpha" type="matrix" values="0 0 0 0 0 0 0 0 0 0 0 0 0 0 0 0 0 0 127 0" result="hardAlpha"/>
<feOffset dy="15"/>
<feGaussianBlur stdDeviation="12.5"/>
<feComposite in2="hardAlpha" operator="out"/>
<feColorMatrix type="matrix" values="0 0 0 0 0 0 0 0 0 0 0 0 0 0 0 0 0 0 0.12 0"/>
<feBlend mode="normal" in2="BackgroundImageFix" result="effect1_dropShadow_16_3"/>
<feBlend mode="normal" in="SourceGraphic" in2="effect1_dropShadow_16_3" result="shape"/>
</filter>
<clipPath id="clip0_16_3">
<rect x="1088" y="39" width="353.318" height="518" rx="16" fill="white"/>
</clipPath>
</defs>
</svg>
