<svg xmlns="http://www.w3.org/2000/svg" xmlns:xlink="http://www.w3.org/1999/xlink" width="1080" zoomAndPan="magnify" viewBox="0 0 810 809.999993" height="1080" preserveAspectRatio="xMidYMid meet" version="1.0"><defs><clipPath id="520f89349a"><path d="M 182.296875 322 L 466 322 L 466 627 L 182.296875 627 Z M 182.296875 322 " clip-rule="nonzero"/></clipPath></defs><path fill="#007DFC" d="M 423.816406 487.34375 C 397.140625 487.34375 371.046875 477.605469 351.378906 457.902344 C 340.378906 446.9375 340.378906 429.1875 351.34375 418.222656 C 362.308594 407.257812 380.078125 407.257812 391.027344 418.207031 C 410.191406 437.335938 443.449219 435.265625 465.15625 413.527344 L 551.71875 326.964844 C 563.304688 315.429688 569.917969 300.355469 569.917969 285.609375 C 569.917969 276.800781 567.570312 264.023438 556.449219 252.871094 C 544.515625 240.921875 530.824219 238.953125 521.257812 239.433594 C 507.148438 240.074219 493.320312 246.515625 482.320312 257.515625 L 432.65625 307.140625 C 421.054688 295.539062 373.378906 287.023438 360.460938 299.957031 L 442.585938 217.851562 C 463.480469 196.957031 490.433594 184.714844 518.5625 183.367188 C 547.902344 182.019531 575.425781 192.570312 596.042969 213.1875 C 615.363281 232.476562 626 258.203125 626 285.625 C 625.984375 315.152344 613.363281 344.699219 591.328125 366.660156 L 504.785156 453.207031 C 482.164062 475.914062 452.671875 487.34375 423.816406 487.34375 Z M 423.816406 487.34375 " fill-opacity="1" fill-rule="nonzero"/><g clip-path="url(#520f89349a)"><path fill="#172554" d="M 384.550781 322.75 C 411.195312 322.75 437.304688 332.488281 457.003906 352.191406 C 467.988281 363.15625 467.96875 380.90625 457.003906 391.871094 C 446.058594 402.835938 428.289062 402.835938 417.324219 391.871094 C 398.175781 372.757812 364.917969 374.847656 343.195312 396.550781 L 256.632812 483.113281 C 245.0625 494.648438 238.433594 509.722656 238.433594 524.46875 C 238.433594 533.242188 240.78125 546.054688 251.917969 557.207031 C 263.851562 569.121094 277.542969 571.125 287.109375 570.675781 C 301.21875 570.003906 315.050781 563.5625 326.046875 552.5625 L 375.65625 502.972656 C 387.261719 514.558594 434.9375 523.070312 447.871094 510.136719 L 365.746094 592.242188 C 344.871094 613.136719 317.898438 625.378906 289.789062 626.726562 C 260.433594 628.109375 232.90625 617.539062 212.273438 596.90625 C 192.953125 577.617188 182.332031 551.890625 182.332031 524.46875 C 182.347656 494.941406 194.953125 465.398438 216.988281 443.433594 L 303.53125 356.886719 C 326.1875 334.214844 355.714844 322.75 384.550781 322.75 Z M 384.550781 322.75 " fill-opacity="1" fill-rule="nonzero"/></g></svg>