<?xml version="1.0" standalone="no"?>
<!DOCTYPE svg PUBLIC "-//W3C//DTD SVG 20010904//EN"
 "http://www.w3.org/TR/2001/REC-SVG-20010904/DTD/svg10.dtd">
<svg version="1.0" xmlns="http://www.w3.org/2000/svg"
 width="512.000000pt" height="512.000000pt" viewBox="0 0 512.000000 512.000000"
 preserveAspectRatio="xMidYMid meet">

<g transform="translate(0.000000,512.000000) scale(0.100000,-0.100000)"
fill="#fff" stroke="none">
<path d="M2355 5114 c-824 -69 -1542 -478 -1979 -1129 -195 -290 -333 -679
-366 -1030 -50 -532 104 -1084 425 -1525 112 -155 310 -362 453 -474 l62 -49
0 -448 c0 -327 3 -449 11 -449 6 0 204 106 439 235 l427 234 54 -14 c184 -50
462 -85 674 -85 890 -1 1710 422 2184 1127 592 881 482 2039 -266 2814 -405
419 -918 680 -1518 770 -127 19 -480 33 -600 23z m245 -2024 c166 -173 314
-328 330 -344 l28 -28 617 342 c339 188 618 340 620 338 2 -2 -1285 -1373
-1364 -1451 -17 -18 -29 -6 -342 328 -218 233 -328 344 -338 340 -11 -4 -1163
-632 -1236 -673 -5 -3 1 8 15 25 48 60 1355 1442 1362 1440 3 -1 142 -144 308
-317z"/>
</g>
</svg>
