<svg xmlns="http://www.w3.org/2000/svg" xmlns:xlink="http://www.w3.org/1999/xlink" width="1000" zoomAndPan="magnify" viewBox="0 0 750 749.999995" height="1000" preserveAspectRatio="xMidYMid meet" version="1.0"><path fill="#ffffff" d="M 362.070312 224.925781 C 362.070312 223.484375 362 222.046875 361.859375 220.613281 C 361.714844 219.179688 361.503906 217.757812 361.222656 216.34375 C 360.941406 214.933594 360.589844 213.535156 360.171875 212.160156 C 359.753906 210.78125 359.265625 209.425781 358.714844 208.09375 C 358.164062 206.765625 357.546875 205.464844 356.867188 204.195312 C 356.1875 202.925781 355.449219 201.691406 354.648438 200.492188 C 353.847656 199.296875 352.992188 198.140625 352.078125 197.027344 C 351.164062 195.914062 350.195312 194.847656 349.175781 193.828125 C 348.160156 192.8125 347.09375 191.84375 345.980469 190.929688 C 344.863281 190.015625 343.710938 189.160156 342.511719 188.359375 C 341.3125 187.558594 340.078125 186.820312 338.808594 186.140625 C 337.539062 185.460938 336.238281 184.847656 334.90625 184.296875 C 333.578125 183.742188 332.222656 183.257812 330.84375 182.839844 C 329.464844 182.421875 328.070312 182.074219 326.65625 181.792969 C 325.246094 181.511719 323.820312 181.296875 322.386719 181.15625 C 320.953125 181.015625 319.515625 180.945312 318.078125 180.945312 L 69.671875 180.945312 C 68.230469 180.945312 66.796875 181.015625 65.363281 181.15625 C 63.929688 181.296875 62.503906 181.511719 61.09375 181.792969 C 59.679688 182.074219 58.285156 182.421875 56.90625 182.839844 C 55.527344 183.257812 54.171875 183.742188 52.84375 184.296875 C 51.511719 184.847656 50.210938 185.460938 48.941406 186.140625 C 47.667969 186.820312 46.4375 187.558594 45.238281 188.359375 C 44.039062 189.160156 42.882812 190.015625 41.769531 190.929688 C 40.65625 191.84375 39.589844 192.8125 38.574219 193.828125 C 37.554688 194.847656 36.585938 195.914062 35.671875 197.027344 C 34.757812 198.140625 33.902344 199.296875 33.101562 200.492188 C 32.300781 201.691406 31.558594 202.925781 30.882812 204.195312 C 30.203125 205.464844 29.585938 206.765625 29.035156 208.09375 C 28.480469 209.425781 27.996094 210.78125 27.578125 212.160156 C 27.160156 213.539062 26.808594 214.933594 26.527344 216.34375 C 26.246094 217.757812 26.035156 219.179688 25.890625 220.613281 C 25.75 222.046875 25.679688 223.484375 25.675781 224.925781 L 25.675781 473.328125 C 25.679688 474.769531 25.75 476.207031 25.890625 477.640625 C 26.035156 479.074219 26.246094 480.496094 26.527344 481.910156 C 26.808594 483.324219 27.160156 484.71875 27.578125 486.097656 C 27.996094 487.472656 28.480469 488.828125 29.035156 490.160156 C 29.585938 491.488281 30.203125 492.789062 30.882812 494.0625 C 31.558594 495.332031 32.300781 496.566406 33.101562 497.761719 C 33.902344 498.960938 34.757812 500.113281 35.671875 501.226562 C 36.585938 502.339844 37.554688 503.40625 38.574219 504.425781 C 39.589844 505.445312 40.65625 506.410156 41.769531 507.324219 C 42.882812 508.238281 44.039062 509.09375 45.238281 509.894531 C 46.4375 510.695312 47.667969 511.433594 48.941406 512.113281 C 50.210938 512.792969 51.511719 513.410156 52.84375 513.960938 C 54.171875 514.511719 55.527344 514.996094 56.90625 515.414062 C 58.285156 515.832031 59.679688 516.183594 61.09375 516.464844 C 62.503906 516.746094 63.929688 516.957031 65.363281 517.097656 C 66.796875 517.238281 68.230469 517.3125 69.671875 517.3125 L 318.078125 517.3125 C 319.515625 517.3125 320.953125 517.238281 322.386719 517.097656 C 323.820312 516.957031 325.246094 516.746094 326.65625 516.464844 C 328.070312 516.183594 329.464844 515.832031 330.84375 515.414062 C 332.222656 514.996094 333.578125 514.511719 334.90625 513.960938 C 336.238281 513.410156 337.539062 512.792969 338.808594 512.113281 C 340.078125 511.433594 341.3125 510.695312 342.511719 509.894531 C 343.710938 509.09375 344.867188 508.238281 345.980469 507.324219 C 347.09375 506.410156 348.160156 505.445312 349.175781 504.425781 C 350.195312 503.40625 351.164062 502.339844 352.078125 501.226562 C 352.992188 500.113281 353.847656 498.960938 354.648438 497.761719 C 355.449219 496.566406 356.1875 495.332031 356.867188 494.0625 C 357.546875 492.789062 358.164062 491.488281 358.714844 490.160156 C 359.265625 488.828125 359.753906 487.472656 360.171875 486.097656 C 360.589844 484.71875 360.941406 483.324219 361.222656 481.910156 C 361.503906 480.496094 361.714844 479.074219 361.859375 477.640625 C 362 476.207031 362.070312 474.769531 362.070312 473.328125 Z M 336.183594 224.925781 L 336.183594 473.328125 C 336.183594 483.320312 328.082031 491.449219 318.078125 491.449219 L 69.671875 491.449219 C 69.078125 491.449219 68.488281 491.417969 67.898438 491.359375 C 67.308594 491.300781 66.722656 491.214844 66.140625 491.097656 C 65.558594 490.984375 64.984375 490.839844 64.414062 490.664062 C 63.847656 490.492188 63.289062 490.292969 62.742188 490.066406 C 62.195312 489.839844 61.660156 489.585938 61.136719 489.304688 C 60.613281 489.023438 60.105469 488.71875 59.613281 488.390625 C 59.121094 488.0625 58.644531 487.707031 58.183594 487.332031 C 57.726562 486.953125 57.289062 486.558594 56.867188 486.136719 C 56.449219 485.71875 56.050781 485.277344 55.675781 484.820312 C 55.300781 484.359375 54.945312 483.886719 54.617188 483.390625 C 54.289062 482.898438 53.984375 482.390625 53.703125 481.867188 C 53.425781 481.34375 53.171875 480.808594 52.945312 480.261719 C 52.71875 479.710938 52.519531 479.15625 52.347656 478.585938 C 52.175781 478.019531 52.03125 477.445312 51.914062 476.863281 C 51.800781 476.28125 51.710938 475.695312 51.652344 475.105469 C 51.597656 474.515625 51.566406 473.921875 51.566406 473.328125 L 51.566406 224.925781 C 51.566406 214.933594 59.679688 206.804688 69.671875 206.804688 L 318.078125 206.804688 C 328.082031 206.804688 336.183594 214.933594 336.183594 224.925781 Z M 336.183594 224.925781 " fill-opacity="1" fill-rule="evenodd"/><path fill="#ffffff" d="M 349.128906 297.375 L 349.128906 473.328125 C 349.128906 474.347656 349.078125 475.359375 348.976562 476.375 C 348.878906 477.386719 348.730469 478.390625 348.53125 479.386719 C 348.332031 480.382812 348.085938 481.371094 347.789062 482.34375 C 347.496094 483.316406 347.152344 484.273438 346.765625 485.210938 C 346.375 486.152344 345.941406 487.070312 345.460938 487.964844 C 344.980469 488.863281 344.460938 489.734375 343.894531 490.582031 C 343.328125 491.425781 342.722656 492.242188 342.078125 493.027344 C 341.433594 493.8125 340.753906 494.566406 340.03125 495.285156 C 339.3125 496.003906 338.5625 496.6875 337.773438 497.332031 C 336.988281 497.976562 336.171875 498.582031 335.328125 499.148438 C 334.480469 499.710938 333.609375 500.234375 332.714844 500.714844 C 331.816406 501.191406 330.898438 501.628906 329.960938 502.015625 C 329.019531 502.40625 328.0625 502.746094 327.089844 503.042969 C 326.117188 503.339844 325.132812 503.585938 324.132812 503.785156 C 323.136719 503.980469 322.132812 504.132812 321.121094 504.230469 C 320.109375 504.332031 319.09375 504.378906 318.078125 504.378906 L 219.75 504.378906 L 219.75 543.199219 C 219.75 636.019531 295.097656 711.382812 387.933594 711.382812 C 480.769531 711.382812 556.132812 636.035156 556.132812 543.1875 L 556.132812 310.335938 C 556.132812 309.484375 556.046875 308.644531 555.882812 307.808594 C 555.714844 306.976562 555.472656 306.167969 555.144531 305.382812 C 554.820312 304.597656 554.421875 303.851562 553.949219 303.144531 C 553.476562 302.4375 552.941406 301.78125 552.339844 301.183594 C 551.738281 300.582031 551.085938 300.042969 550.378906 299.570312 C 549.671875 299.101562 548.925781 298.699219 548.140625 298.375 C 547.355469 298.050781 546.546875 297.804688 545.710938 297.640625 C 544.878906 297.472656 544.035156 297.390625 543.1875 297.390625 L 349.128906 297.390625 Z M 278.125 193.875 L 318.078125 193.875 C 319.09375 193.875 320.109375 193.925781 321.121094 194.023438 C 322.132812 194.125 323.136719 194.273438 324.132812 194.472656 C 325.132812 194.667969 326.117188 194.917969 327.089844 195.210938 C 328.0625 195.507812 329.019531 195.847656 329.960938 196.238281 C 330.898438 196.628906 331.816406 197.0625 332.714844 197.542969 C 333.609375 198.019531 334.480469 198.542969 335.328125 199.109375 C 336.171875 199.671875 336.988281 200.277344 337.773438 200.921875 C 338.5625 201.566406 339.3125 202.25 340.03125 202.96875 C 340.753906 203.6875 341.433594 204.441406 342.078125 205.226562 C 342.722656 206.011719 343.328125 206.828125 343.894531 207.675781 C 344.460938 208.519531 344.980469 209.390625 345.460938 210.289062 C 345.941406 211.183594 346.375 212.101562 346.765625 213.042969 C 347.152344 213.980469 347.496094 214.9375 347.789062 215.910156 C 348.085938 216.886719 348.332031 217.871094 348.53125 218.867188 C 348.730469 219.863281 348.878906 220.871094 348.976562 221.882812 C 349.078125 222.894531 349.128906 223.910156 349.128906 224.925781 L 349.128906 264.863281 C 361.273438 269.15625 374.328125 271.5 387.933594 271.5 C 452.203125 271.5 504.378906 219.335938 504.378906 155.054688 C 504.378906 90.800781 452.203125 38.621094 387.933594 38.621094 C 323.667969 38.621094 271.5 90.789062 271.5 155.070312 C 271.5 168.675781 273.847656 181.730469 278.125 193.875 Z M 116.25 284.445312 L 271.515625 284.445312 C 272.347656 284.417969 273.167969 284.3125 273.980469 284.125 C 274.789062 283.941406 275.578125 283.679688 276.335938 283.34375 C 277.097656 283.003906 277.820312 282.597656 278.503906 282.121094 C 279.183594 281.644531 279.816406 281.109375 280.394531 280.511719 C 280.972656 279.914062 281.488281 279.265625 281.941406 278.566406 C 282.394531 277.871094 282.777344 277.136719 283.089844 276.363281 C 283.402344 275.59375 283.640625 274.796875 283.796875 273.980469 C 283.957031 273.164062 284.035156 272.339844 284.035156 271.507812 C 284.035156 270.675781 283.957031 269.851562 283.796875 269.035156 C 283.640625 268.21875 283.402344 267.421875 283.089844 266.652344 C 282.777344 265.878906 282.394531 265.144531 281.941406 264.449219 C 281.488281 263.75 280.972656 263.105469 280.394531 262.503906 C 279.816406 261.90625 279.183594 261.371094 278.5 260.894531 C 277.820312 260.417969 277.097656 260.011719 276.335938 259.671875 C 275.578125 259.335938 274.789062 259.074219 273.980469 258.890625 C 273.167969 258.703125 272.347656 258.597656 271.515625 258.570312 L 116.261719 258.570312 C 115.429688 258.597656 114.609375 258.703125 113.796875 258.890625 C 112.988281 259.074219 112.199219 259.335938 111.441406 259.671875 C 110.679688 260.011719 109.957031 260.417969 109.273438 260.894531 C 108.59375 261.371094 107.960938 261.90625 107.382812 262.503906 C 106.804688 263.105469 106.289062 263.75 105.835938 264.449219 C 105.382812 265.144531 105 265.878906 104.6875 266.652344 C 104.375 267.421875 104.136719 268.21875 103.980469 269.035156 C 103.820312 269.851562 103.742188 270.675781 103.742188 271.507812 C 103.742188 272.339844 103.820312 273.164062 103.980469 273.980469 C 104.136719 274.796875 104.375 275.59375 104.6875 276.363281 C 105 277.136719 105.382812 277.871094 105.835938 278.566406 C 106.289062 279.265625 106.804688 279.914062 107.382812 280.511719 C 107.960938 281.109375 108.59375 281.644531 109.273438 282.121094 C 109.957031 282.597656 110.679688 283.003906 111.441406 283.34375 C 112.199219 283.679688 112.988281 283.941406 113.796875 284.125 C 114.609375 284.3125 115.429688 284.417969 116.261719 284.445312 Z M 116.25 284.445312 " fill-opacity="1" fill-rule="evenodd"/><path fill="#ffffff" d="M 180.945312 271.5 L 180.945312 426.769531 C 180.972656 427.597656 181.078125 428.421875 181.261719 429.230469 C 181.449219 430.042969 181.710938 430.828125 182.046875 431.589844 C 182.382812 432.351562 182.792969 433.074219 183.265625 433.753906 C 183.742188 434.4375 184.28125 435.066406 184.878906 435.648438 C 185.476562 436.226562 186.125 436.742188 186.820312 437.195312 C 187.519531 437.648438 188.253906 438.03125 189.027344 438.34375 C 189.796875 438.65625 190.589844 438.890625 191.40625 439.050781 C 192.226562 439.210938 193.050781 439.289062 193.882812 439.289062 C 194.714844 439.289062 195.539062 439.210938 196.355469 439.050781 C 197.171875 438.890625 197.964844 438.65625 198.738281 438.34375 C 199.507812 438.03125 200.242188 437.648438 200.941406 437.195312 C 201.640625 436.742188 202.285156 436.226562 202.882812 435.648438 C 203.480469 435.066406 204.019531 434.4375 204.496094 433.753906 C 204.972656 433.074219 205.378906 432.351562 205.714844 431.589844 C 206.054688 430.828125 206.316406 430.042969 206.5 429.230469 C 206.6875 428.421875 206.792969 427.597656 206.820312 426.769531 L 206.820312 271.515625 L 180.945312 271.515625 Z M 582.007812 297.375 L 582.007812 548.597656 C 583.960938 549.386719 585.9375 550.113281 587.9375 550.78125 C 589.9375 551.449219 591.957031 552.058594 593.992188 552.601562 C 596.03125 553.148438 598.082031 553.628906 600.148438 554.050781 C 602.210938 554.46875 604.289062 554.828125 606.378906 555.121094 C 608.464844 555.414062 610.5625 555.640625 612.664062 555.808594 C 614.765625 555.972656 616.871094 556.074219 618.976562 556.109375 C 621.085938 556.144531 623.191406 556.117188 625.300781 556.027344 C 627.40625 555.933594 629.507812 555.777344 631.605469 555.558594 C 633.699219 555.335938 635.789062 555.050781 637.867188 554.703125 C 639.949219 554.355469 642.015625 553.945312 644.070312 553.472656 C 646.121094 552.996094 648.160156 552.460938 650.183594 551.859375 C 652.203125 551.261719 654.207031 550.601562 656.1875 549.882812 C 658.167969 549.160156 660.125 548.378906 662.058594 547.539062 C 663.992188 546.699219 665.898438 545.800781 667.777344 544.84375 C 669.65625 543.886719 671.503906 542.871094 673.320312 541.800781 C 675.136719 540.730469 676.917969 539.609375 678.667969 538.429688 C 680.414062 537.25 682.125 536.019531 683.796875 534.738281 C 685.472656 533.453125 687.101562 532.121094 688.695312 530.738281 C 690.285156 529.355469 691.835938 527.925781 693.339844 526.445312 C 694.84375 524.96875 696.300781 523.449219 697.710938 521.882812 C 699.121094 520.316406 700.484375 518.707031 701.796875 517.058594 C 703.109375 515.40625 704.371094 513.71875 705.582031 511.992188 C 706.792969 510.265625 707.949219 508.503906 709.050781 506.707031 C 710.152344 504.910156 711.199219 503.082031 712.1875 501.21875 C 713.179688 499.359375 714.113281 497.46875 714.988281 495.550781 C 715.863281 493.632812 716.679688 491.6875 717.433594 489.722656 C 718.191406 487.753906 718.886719 485.761719 719.519531 483.753906 C 720.15625 481.742188 720.730469 479.714844 721.242188 477.667969 C 721.75 475.625 722.199219 473.566406 722.585938 471.492188 C 722.96875 469.417969 723.292969 467.335938 723.550781 465.242188 C 723.808594 463.152344 724 461.050781 724.132812 458.949219 C 724.261719 456.84375 724.328125 454.738281 724.328125 452.628906 L 724.316406 310.308594 C 724.3125 309.457031 724.230469 308.617188 724.0625 307.785156 C 723.898438 306.953125 723.652344 306.144531 723.328125 305.363281 C 723 304.578125 722.601562 303.832031 722.132812 303.125 C 721.660156 302.421875 721.125 301.769531 720.523438 301.167969 C 719.921875 300.566406 719.269531 300.03125 718.5625 299.558594 C 717.859375 299.089844 717.113281 298.691406 716.328125 298.363281 C 715.546875 298.039062 714.738281 297.792969 713.90625 297.628906 C 713.074219 297.460938 712.234375 297.378906 711.382812 297.375 Z M 582.007812 297.375 " fill-opacity="1" fill-rule="evenodd"/><path fill="#ffffff" d="M 698.453125 193.875 C 698.453125 195.144531 698.421875 196.414062 698.359375 197.683594 C 698.296875 198.953125 698.203125 200.21875 698.078125 201.484375 C 697.953125 202.746094 697.796875 204.007812 697.613281 205.265625 C 697.425781 206.519531 697.207031 207.773438 696.960938 209.019531 C 696.710938 210.265625 696.433594 211.503906 696.125 212.734375 C 695.816406 213.96875 695.476562 215.191406 695.109375 216.40625 C 694.742188 217.625 694.34375 218.828125 693.914062 220.027344 C 693.484375 221.222656 693.027344 222.40625 692.542969 223.582031 C 692.058594 224.753906 691.542969 225.914062 691 227.0625 C 690.457031 228.210938 689.886719 229.347656 689.285156 230.46875 C 688.6875 231.585938 688.0625 232.691406 687.40625 233.78125 C 686.753906 234.871094 686.074219 235.945312 685.371094 237 C 684.664062 238.058594 683.933594 239.097656 683.175781 240.117188 C 682.417969 241.136719 681.636719 242.136719 680.832031 243.121094 C 680.027344 244.101562 679.195312 245.0625 678.34375 246.003906 C 677.488281 246.945312 676.613281 247.867188 675.714844 248.765625 C 674.816406 249.664062 673.898438 250.539062 672.957031 251.390625 C 672.015625 252.246094 671.054688 253.074219 670.070312 253.878906 C 669.089844 254.6875 668.089844 255.46875 667.066406 256.226562 C 666.046875 256.980469 665.007812 257.710938 663.953125 258.417969 C 662.898438 259.125 661.824219 259.804688 660.734375 260.457031 C 659.644531 261.109375 658.539062 261.734375 657.417969 262.335938 C 656.296875 262.933594 655.164062 263.503906 654.015625 264.046875 C 652.867188 264.589844 651.707031 265.105469 650.53125 265.59375 C 649.359375 266.078125 648.175781 266.535156 646.976562 266.964844 C 645.78125 267.390625 644.574219 267.789062 643.359375 268.160156 C 642.144531 268.527344 640.921875 268.867188 639.6875 269.175781 C 638.457031 269.484375 637.214844 269.761719 635.96875 270.007812 C 634.722656 270.257812 633.472656 270.472656 632.214844 270.660156 C 630.960938 270.847656 629.699219 271.003906 628.433594 271.128906 C 627.171875 271.25 625.90625 271.34375 624.636719 271.40625 C 623.367188 271.46875 622.097656 271.5 620.828125 271.5 C 619.554688 271.5 618.285156 271.46875 617.019531 271.40625 C 615.75 271.34375 614.480469 271.25 613.21875 271.128906 C 611.953125 271.003906 610.691406 270.847656 609.4375 270.660156 C 608.179688 270.472656 606.929688 270.257812 605.683594 270.007812 C 604.4375 269.761719 603.199219 269.484375 601.964844 269.175781 C 600.734375 268.867188 599.507812 268.527344 598.292969 268.160156 C 597.078125 267.789062 595.871094 267.390625 594.675781 266.964844 C 593.480469 266.535156 592.292969 266.078125 591.121094 265.59375 C 589.945312 265.105469 588.785156 264.589844 587.636719 264.046875 C 586.488281 263.503906 585.355469 262.933594 584.234375 262.335938 C 583.113281 261.734375 582.007812 261.109375 580.917969 260.457031 C 579.828125 259.804688 578.757812 259.125 577.699219 258.417969 C 576.644531 257.710938 575.605469 256.980469 574.585938 256.226562 C 573.566406 255.46875 572.5625 254.6875 571.582031 253.878906 C 570.601562 253.074219 569.636719 252.246094 568.695312 251.390625 C 567.753906 250.539062 566.835938 249.664062 565.9375 248.765625 C 565.039062 247.867188 564.164062 246.945312 563.308594 246.003906 C 562.457031 245.0625 561.628906 244.101562 560.820312 243.121094 C 560.015625 242.136719 559.234375 241.136719 558.476562 240.117188 C 557.71875 239.097656 556.988281 238.058594 556.285156 237 C 555.578125 235.945312 554.898438 234.871094 554.246094 233.78125 C 553.59375 232.691406 552.964844 231.585938 552.367188 230.46875 C 551.769531 229.347656 551.199219 228.210938 550.652344 227.0625 C 550.109375 225.914062 549.597656 224.753906 549.109375 223.582031 C 548.625 222.40625 548.167969 221.222656 547.738281 220.027344 C 547.3125 218.828125 546.914062 217.625 546.542969 216.40625 C 546.175781 215.191406 545.835938 213.96875 545.527344 212.734375 C 545.21875 211.503906 544.941406 210.265625 544.691406 209.019531 C 544.445312 207.773438 544.226562 206.519531 544.042969 205.265625 C 543.855469 204.007812 543.699219 202.746094 543.574219 201.484375 C 543.449219 200.21875 543.355469 198.953125 543.292969 197.683594 C 543.234375 196.414062 543.203125 195.144531 543.203125 193.875 C 543.203125 192.605469 543.234375 191.335938 543.292969 190.066406 C 543.355469 188.796875 543.449219 187.53125 543.574219 186.265625 C 543.699219 185 543.855469 183.742188 544.042969 182.484375 C 544.226562 181.226562 544.445312 179.976562 544.691406 178.730469 C 544.941406 177.484375 545.21875 176.246094 545.527344 175.011719 C 545.835938 173.78125 546.175781 172.554688 546.542969 171.339844 C 546.914062 170.125 547.3125 168.917969 547.738281 167.722656 C 548.167969 166.527344 548.625 165.339844 549.109375 164.167969 C 549.597656 162.992188 550.109375 161.832031 550.652344 160.683594 C 551.199219 159.535156 551.769531 158.402344 552.367188 157.28125 C 552.964844 156.160156 553.59375 155.054688 554.246094 153.964844 C 554.898438 152.875 555.578125 151.804688 556.285156 150.746094 C 556.988281 149.691406 557.71875 148.652344 558.476562 147.632812 C 559.234375 146.609375 560.015625 145.609375 560.820312 144.628906 C 561.628906 143.644531 562.457031 142.683594 563.308594 141.742188 C 564.164062 140.800781 565.039062 139.882812 565.9375 138.984375 C 566.835938 138.085938 567.753906 137.210938 568.695312 136.355469 C 569.636719 135.503906 570.601562 134.671875 571.582031 133.867188 C 572.5625 133.0625 573.566406 132.28125 574.585938 131.523438 C 575.605469 130.765625 576.644531 130.035156 577.699219 129.328125 C 578.757812 128.625 579.828125 127.945312 580.917969 127.292969 C 582.007812 126.636719 583.113281 126.011719 584.234375 125.414062 C 585.355469 124.8125 586.488281 124.242188 587.636719 123.699219 C 588.785156 123.15625 589.945312 122.640625 591.121094 122.15625 C 592.292969 121.667969 593.480469 121.210938 594.675781 120.785156 C 595.871094 120.355469 597.078125 119.957031 598.292969 119.589844 C 599.507812 119.222656 600.734375 118.882812 601.964844 118.574219 C 603.199219 118.265625 604.4375 117.988281 605.683594 117.738281 C 606.929688 117.492188 608.179688 117.273438 609.4375 117.085938 C 610.691406 116.902344 611.953125 116.746094 613.21875 116.621094 C 614.480469 116.496094 615.75 116.402344 617.019531 116.339844 C 618.285156 116.277344 619.554688 116.246094 620.828125 116.246094 C 622.097656 116.246094 623.367188 116.277344 624.636719 116.339844 C 625.90625 116.402344 627.171875 116.496094 628.433594 116.621094 C 629.699219 116.746094 630.960938 116.902344 632.214844 117.085938 C 633.472656 117.273438 634.722656 117.492188 635.96875 117.738281 C 637.214844 117.988281 638.457031 118.265625 639.6875 118.574219 C 640.921875 118.882812 642.144531 119.222656 643.359375 119.589844 C 644.574219 119.957031 645.78125 120.355469 646.976562 120.785156 C 648.175781 121.210938 649.359375 121.667969 650.53125 122.15625 C 651.707031 122.640625 652.867188 123.15625 654.015625 123.699219 C 655.164062 124.242188 656.296875 124.8125 657.417969 125.414062 C 658.539062 126.011719 659.644531 126.636719 660.734375 127.292969 C 661.824219 127.945312 662.898438 128.625 663.953125 129.328125 C 665.007812 130.035156 666.046875 130.765625 667.066406 131.523438 C 668.089844 132.28125 669.089844 133.0625 670.070312 133.867188 C 671.054688 134.671875 672.015625 135.503906 672.957031 136.355469 C 673.898438 137.210938 674.816406 138.085938 675.714844 138.984375 C 676.613281 139.882812 677.488281 140.800781 678.34375 141.742188 C 679.195312 142.683594 680.027344 143.644531 680.832031 144.628906 C 681.636719 145.609375 682.417969 146.609375 683.175781 147.632812 C 683.933594 148.652344 684.664062 149.691406 685.371094 150.746094 C 686.074219 151.804688 686.753906 152.875 687.40625 153.964844 C 688.0625 155.054688 688.6875 156.160156 689.285156 157.28125 C 689.886719 158.402344 690.457031 159.535156 691 160.683594 C 691.542969 161.832031 692.058594 162.992188 692.542969 164.167969 C 693.027344 165.339844 693.484375 166.527344 693.914062 167.722656 C 694.34375 168.917969 694.742188 170.125 695.109375 171.339844 C 695.476562 172.554688 695.816406 173.78125 696.125 175.011719 C 696.433594 176.246094 696.710938 177.484375 696.960938 178.730469 C 697.207031 179.976562 697.425781 181.226562 697.613281 182.484375 C 697.796875 183.742188 697.953125 185 698.078125 186.265625 C 698.203125 187.53125 698.296875 188.796875 698.359375 190.066406 C 698.421875 191.335938 698.453125 192.605469 698.453125 193.875 Z M 698.453125 193.875 " fill-opacity="1" fill-rule="nonzero"/></svg>