<?xml version="1.0" standalone="no"?>
<!DOCTYPE svg PUBLIC "-//W3C//DTD SVG 20010904//EN"
 "http://www.w3.org/TR/2001/REC-SVG-20010904/DTD/svg10.dtd">
<svg version="1.0" xmlns="http://www.w3.org/2000/svg"
 width="512.000000pt" height="512.000000pt" viewBox="0 0 512.000000 512.000000"
 preserveAspectRatio="xMidYMid meet">

<g transform="translate(0.000000,512.000000) scale(0.100000,-0.100000)"
fill="#fff" stroke="none">
<path d="M1185 5110 c-126 -25 -237 -85 -329 -176 -72 -73 -118 -145 -154
-246 -25 -69 -26 -86 -30 -295 l-4 -222 229 -3 c220 -3 230 -4 278 -28 73 -36
149 -117 175 -187 28 -71 30 -186 7 -251 -37 -97 -105 -167 -206 -209 -52 -21
-70 -23 -268 -23 l-213 0 0 -279 0 -280 223 -3 c217 -3 223 -4 279 -30 270
-126 270 -510 0 -636 -56 -26 -62 -27 -279 -30 l-223 -3 0 -280 0 -279 213 0
c198 0 216 -2 268 -23 101 -42 169 -112 206 -209 23 -65 21 -180 -7 -251 -26
-70 -102 -151 -175 -187 -48 -24 -58 -25 -278 -28 l-229 -3 4 -222 c4 -209 5
-226 30 -295 36 -101 82 -173 154 -246 73 -72 145 -117 246 -154 l73 -27 1467
-3 c1641 -3 1543 -7 1698 69 159 78 288 240 331 419 21 82 21 4058 0 4140 -43
179 -172 341 -331 419 -153 75 -57 71 -1670 70 -795 -1 -1463 -5 -1485 -9z
m1739 -1265 c175 -37 337 -165 414 -325 52 -108 66 -183 59 -308 -6 -120 -32
-199 -99 -299 -60 -89 -143 -160 -241 -207 -94 -44 -158 -58 -265 -58 -241 2
-445 134 -546 353 -122 264 -39 575 199 744 139 99 312 135 479 100z m302
-1425 c130 -33 217 -82 314 -180 98 -97 147 -184 180 -314 16 -64 20 -113 20
-253 l0 -173 -945 0 -945 0 0 160 c0 198 16 283 75 405 67 140 194 262 330
320 118 50 160 54 536 54 323 1 363 -1 435 -19z"/>
<path d="M605 4015 c-5 -2 -22 -6 -38 -9 -48 -11 -105 -72 -123 -132 -14 -49
-14 -59 0 -108 21 -71 73 -120 147 -136 36 -8 127 -11 269 -8 206 3 217 4 257
27 62 35 96 90 101 159 5 77 -26 135 -93 177 l-48 30 -231 2 c-127 1 -235 0
-241 -2z"/>
<path d="M605 2755 c-5 -2 -22 -6 -38 -9 -48 -11 -105 -72 -123 -132 -14 -49
-14 -59 0 -108 17 -59 73 -119 123 -133 16 -5 136 -8 268 -8 236 0 241 0 282
24 24 14 55 42 70 64 24 34 28 50 28 107 0 57 -4 73 -28 107 -15 22 -46 50
-70 64 -41 23 -49 24 -272 26 -126 1 -234 1 -240 -2z"/>
<path d="M571 1485 c-61 -19 -109 -69 -127 -132 -14 -48 -14 -58 0 -107 17
-59 73 -119 123 -133 16 -5 136 -8 269 -8 l241 0 48 30 c129 80 125 260 -8
336 -41 23 -49 24 -272 26 -175 2 -240 -1 -274 -12z"/>
</g>
</svg>
