<svg xmlns="http://www.w3.org/2000/svg" xmlns:xlink="http://www.w3.org/1999/xlink" width="1000" zoomAndPan="magnify" viewBox="0 0 750 749.999995" height="1000" preserveAspectRatio="xMidYMid meet" version="1.0"><path fill="#ffffff" d="M 560.929688 559.480469 C 561.394531 558.039062 561.726562 556.5 561.890625 554.90625 L 569.046875 487.730469 C 570.121094 477.597656 564.367188 467.972656 554.921875 464.125 L 480.828125 433.9375 C 470.296875 429.652344 458.210938 433.742188 452.453125 443.558594 L 425.289062 489.910156 C 353.746094 454.167969 295.75 396.167969 260.007812 324.628906 L 306.359375 297.460938 C 316.175781 291.707031 320.269531 279.621094 315.988281 269.089844 L 285.789062 194.996094 C 281.949219 185.550781 272.328125 179.800781 262.1875 180.871094 L 195.011719 188.027344 C 193.414062 188.203125 191.878906 188.53125 190.414062 189 L 190.402344 189 C 189.984375 189.132812 189.539062 189.304688 189.089844 189.523438 C 183.371094 192.1875 180.128906 198.367188 180.847656 204.636719 C 182.578125 219.773438 185.152344 234.75 188.523438 249.5 C 188.53125 249.507812 188.523438 249.511719 188.53125 249.523438 C 188.535156 249.53125 188.53125 249.539062 188.535156 249.542969 C 205.816406 325.207031 244.125 395.011719 299.523438 450.40625 C 354.941406 505.820312 424.757812 544.132812 500.433594 561.410156 C 515.179688 564.773438 530.136719 567.339844 545.265625 569.074219 C 551.550781 569.796875 557.75 566.539062 560.40625 560.800781 C 560.617188 560.347656 560.796875 559.902344 560.929688 559.480469 " fill-opacity="1" fill-rule="nonzero"/><path fill="#ffffff" d="M 374.960938 32.046875 C 185.878906 32.046875 32.046875 185.878906 32.046875 374.960938 C 32.046875 564.039062 185.878906 717.875 374.960938 717.875 C 564.046875 717.875 717.875 564.039062 717.875 374.960938 C 717.875 185.878906 564.046875 32.046875 374.960938 32.046875 Z M 374.960938 749.921875 C 324.351562 749.921875 275.238281 740.007812 229.007812 720.449219 C 184.351562 701.5625 144.257812 674.53125 109.824219 640.097656 C 75.394531 605.667969 48.355469 565.566406 29.476562 520.917969 C 9.917969 474.679688 0 425.570312 0 374.960938 C 0 324.347656 9.917969 275.238281 29.476562 229 C 48.355469 184.351562 75.394531 144.25 109.824219 109.820312 C 144.257812 75.394531 184.351562 48.355469 229.007812 29.46875 C 275.238281 9.910156 324.351562 0 374.960938 0 C 425.570312 0 474.679688 9.910156 520.917969 29.46875 C 565.566406 48.355469 605.667969 75.394531 640.097656 109.820312 C 674.53125 144.25 701.5625 184.351562 720.449219 229 C 740.007812 275.238281 749.921875 324.347656 749.921875 374.960938 C 749.921875 425.570312 740.007812 474.679688 720.449219 520.917969 C 701.5625 565.566406 674.53125 605.667969 640.097656 640.097656 C 605.667969 674.53125 565.566406 701.5625 520.917969 720.449219 C 474.679688 740.007812 425.570312 749.921875 374.960938 749.921875 " fill-opacity="1" fill-rule="nonzero"/></svg>