<?xml version="1.0" standalone="no"?>
<!DOCTYPE svg PUBLIC "-//W3C//DTD SVG 20010904//EN"
 "http://www.w3.org/TR/2001/REC-SVG-20010904/DTD/svg10.dtd">
<svg version="1.0" xmlns="http://www.w3.org/2000/svg"
 width="512.000000pt" height="512.000000pt" viewBox="0 0 512.000000 512.000000"
 preserveAspectRatio="xMidYMid meet">

<g transform="translate(0.000000,512.000000) scale(0.100000,-0.100000)"
fill="#fff" stroke="none">
<path d="M1245 5109 c-655 -78 -1165 -593 -1236 -1249 -27 -252 24 -528 143
-765 l41 -80 -19 -115 c-15 -92 -19 -167 -19 -375 0 -227 3 -276 24 -390 91
-510 325 -954 692 -1310 288 -279 591 -462 970 -583 328 -105 697 -138 1056
-95 l141 17 70 -32 c520 -240 1144 -141 1565 248 313 290 477 714 439 1132
-13 144 -48 288 -99 408 -41 96 -40 94 -19 214 87 487 9 1011 -218 1461 -134
265 -264 442 -473 645 -138 135 -220 202 -365 298 -485 319 -1080 455 -1669
381 l-97 -12 -98 51 c-202 103 -392 151 -614 157 -74 2 -171 -1 -215 -6z
m1495 -889 c179 -14 292 -34 425 -77 383 -123 635 -364 685 -654 21 -119 -11
-218 -96 -303 -58 -58 -102 -81 -185 -96 -114 -21 -219 7 -292 78 -20 20 -65
79 -99 132 -106 165 -112 172 -161 226 -97 106 -191 147 -382 164 -126 12
-277 1 -373 -26 -226 -65 -355 -229 -298 -379 32 -82 155 -171 311 -225 28 -9
196 -52 375 -95 489 -116 680 -175 853 -261 358 -180 522 -448 504 -824 -12
-245 -100 -446 -271 -615 -195 -193 -478 -316 -846 -367 -143 -19 -527 -17
-668 5 -425 66 -715 228 -917 512 -101 141 -148 273 -149 416 -1 87 2 100 29
154 59 116 174 179 327 179 66 0 86 -5 142 -33 86 -42 132 -96 207 -245 121
-237 197 -326 332 -390 101 -49 205 -68 367 -68 190 0 310 26 449 96 66 34
162 125 191 182 22 43 25 62 25 149 0 116 -14 152 -87 221 -108 104 -225 147
-658 244 -624 139 -889 256 -1083 478 -130 149 -178 289 -178 515 1 139 24
236 89 362 37 73 65 108 142 186 237 238 580 352 1105 368 28 0 111 -4 185 -9z"/>
</g>
</svg>
