<?xml version="1.0" encoding="UTF-8"?>
<svg
  viewBox="0 0 2048 2048"
  width="512"
  height="512"
  xmlns="http://www.w3.org/2000/svg"
>
  <path
    transform="translate(735,1084)"
    d="m0 0h29l25 3 24 6 22 8 20 10 16 10 18 14 16 15 9 10 14 19 9 15 8 16 6 14 6 19 5 25 2 26v537l-1 24-3 20-4 17-7 21-9 20-9 15-9 13-11 14-21 21-14 11-17 11-23 12-16 6-24 7-25 5h-42l-33-7-20-6-19-8-17-9-15-10-14-11-15-14-12-13-14-19-11-19-8-17-9-27-4-19-2-16-1-14v-545l2-25 5-25 5-16 7-18 12-23 8-12 10-13 12-13 1-2h2v-2l8-7 12-10 17-12 18-10 18-8 21-7 24-5z"
    fill="#ffffff"
  />
  <path
    transform="translate(215,535)"
    d="m0 0h533l30 2 23 4 23 7 18 8 19 10 12 8 13 10 13 12 13 13 13 17 10 16 12 23 8 22 6 26 2 14 1 15v13l-2 25-5 24-5 17-8 19-8 16-11 17-10 13-9 10-3 4h-2l-1 3-8 7-13 11-15 10-18 10-15 7-24 8-23 5-16 2-19 1h-530l-25-1-22-3-23-6-21-8-20-10-17-11-14-11-10-9-16-16-13-17-13-21-9-19-9-27-6-27-1-6v-46l6-28 6-20 6-15 8-16 8-14 8-11 7-9 11-12 14-14 17-13 17-11 15-8 23-9 22-6 16-3z"
    fill="#ffffff"
  />
  <path
    transform="translate(1290,1084)"
    d="m0 0h550l26 2 24 5 24 8 25 12 16 10 18 14 7 6v2l4 2 8 8 9 11 11 15 12 20 9 20 7 21 5 21 3 16v41l-6 31-8 26-8 18-8 15-10 15-10 13-14 15-14 13-15 11-20 12-21 10-24 8-25 5-20 2-59 1-501-1-20-2-23-5-16-5-15-6-16-8-15-9-11-8-10-8-13-12-14-15-13-18-9-15-8-16-8-21-6-22-3-19-1-10v-30l3-23 5-22 8-22 11-23 11-17 12-16 16-17 12-11 18-13 15-9 16-8 20-8 19-5 23-4z"
    fill="#ffffff"
  />
  <path
    transform="translate(1275)"
    d="m0 0h46l29 6 17 5 16 6 17 8 18 11 12 9 13 11 17 17 13 17 10 15 9 17 10 25 6 22 3 19 1 13v563l-2 19-4 19-5 17-8 20-8 16-10 16-9 12-12 14-12 12-11 9-15 11-21 12-23 10-24 7-21 4-24 2h-11l-24-2-25-5-24-8-25-12-18-11-16-13-8-7-17-17-13-17-13-21-9-19-6-16-7-28-3-27v-561l3-24 5-22 8-22 11-23 11-17 12-16 16-17 12-11 18-13 15-9 16-8 21-8 22-6z"
    fill="#ffffff"
  />
  <path
    transform="translate(1826,549)"
    d="m0 0h27l24 3 22 5 20 7 19 9 18 11 17 13 13 12 9 9 9 11 11 16 10 17 10 23 7 24 4 20 2 18v22l-4 26-6 23-7 20-8 17-12 19-12 16-14 15-12 11-16 12-15 9-15 8-21 8-17 5-22 4-28 2h-206l-1-1v-208l1-19 4-24 5-19 8-21 12-23 11-16 13-16 17-17 14-11 15-10 16-9 18-8 22-7 21-4z"
    fill="#ffffff"


    
  />
  <path
    transform="translate(740)"
    d="m0 0h29l27 4 24 6 21 8 16 8 15 9 17 13 12 11 11 11 11 14 8 11 10 18 6 12 7 19 6 22 3 21 1 16v211l-1 1h-219l-20-2-19-4-17-5-19-8-16-8-14-9-13-10-10-9-8-7-10-11-11-14-12-19-12-25-7-21-5-24-2-18v-26l2-18 5-24 7-21 7-16 10-18 10-14 13-16 16-16 14-11 10-7 15-9 21-10 21-7 21-5z"
    fill="#ffffff"
  />
  <path
    transform="translate(200,1084)"
    d="m0 0h215v223l-3 22-5 21-6 18-12 25-10 16-10 13-12 14-8 8-11 9-16 12-21 12-16 7-21 7-23 5-14 2-14 1h-12l-22-2-21-4-16-5-21-8-19-10-12-8-12-9-20-18-7-8-10-12-10-15-9-16-9-21-6-19-5-24-2-13v-33l6-32 7-23 8-18 9-17 8-12 10-13 9-10 15-15 17-13 14-9 23-12 19-7 25-6 14-2z"
    fill="#ffffff"
  />
  <path
    transform="translate(1085,1632)"
    d="m0 0 225 1 27 4 24 7 21 9 12 6 14 9 12 9 11 9 16 16 11 14 9 13 9 16 8 17 8 24 5 25 2 20v16l-2 21-3 17-5 18-7 19-8 17-11 18-10 13-12 14-8 8-8 7-16 12-13 8-23 12-27 9-21 5-24 3h-22l-19-3-20-4-19-6-15-6-16-8-16-10-12-9-14-12-11-11-9-11-11-15-12-21-10-24-6-21-4-24-1-12v-218z"
    fill="#ffffff"
  />
</svg>
