<svg xmlns="http://www.w3.org/2000/svg" xmlns:xlink="http://www.w3.org/1999/xlink" width="1000" zoomAndPan="magnify" viewBox="0 0 750 749.999995" height="1000" preserveAspectRatio="xMidYMid meet" version="1.0"><defs><clipPath id="a5873fd944"><path d="M 0 43.542969 L 750 43.542969 L 750 706.542969 L 0 706.542969 Z M 0 43.542969 " clip-rule="nonzero"/></clipPath></defs><g clip-path="url(#a5873fd944)"><path fill="#ffffff" d="M 87.816406 706.4375 C 73.460938 706.4375 59.539062 704.132812 46.40625 699.589844 L 16.5 689.242188 L 39.480469 667.480469 C 69.898438 638.679688 77.574219 605.457031 78.074219 580.574219 C 25.503906 522.285156 -3.359375 449.566406 -3.359375 374.996094 C -3.367188 192.234375 166.152344 43.542969 374.515625 43.542969 C 582.882812 43.542969 752.414062 192.234375 752.414062 374.996094 C 752.414062 557.746094 582.882812 706.429688 374.515625 706.429688 C 312.484375 706.429688 251.285156 692.988281 196.742188 667.453125 C 176.191406 681.996094 134.679688 706.4375 87.816406 706.4375 Z M 192.238281 622.328125 L 203.265625 627.90625 C 255.117188 654.125 314.335938 668 374.507812 668 C 561.6875 668 713.972656 536.550781 713.972656 374.996094 C 713.972656 213.417969 561.6875 81.972656 374.507812 81.972656 C 187.328125 81.972656 35.050781 213.417969 35.050781 374.996094 C 35.050781 442.140625 62.085938 507.789062 111.191406 559.832031 L 116.1875 565.125 L 116.417969 572.398438 C 117.261719 598.519531 112.574219 633.941406 89.351562 668 C 133.855469 667.289062 174.761719 636.316406 182.582031 630.058594 Z M 192.238281 622.328125 " fill-opacity="1" fill-rule="nonzero"/></g><path fill="#ffffff" d="M 191.230469 465.648438 C 177.136719 465.648438 165.691406 464.546875 156.855469 462.324219 C 148.035156 460.125 141.933594 457.859375 138.582031 455.550781 C 137.734375 454.707031 137.417969 452.777344 137.621094 449.722656 C 137.820312 446.695312 138.300781 443.523438 139.042969 440.277344 C 139.773438 437.03125 140.722656 434.109375 141.875 431.621094 C 143.027344 429.101562 144.125 427.929688 145.191406 428.152344 C 150.65625 430.046875 156.59375 431.890625 163.003906 433.667969 C 169.410156 435.445312 177.558594 436.335938 187.433594 436.335938 C 197.53125 436.335938 206.082031 434.886719 213.144531 431.929688 C 220.175781 428.976562 223.710938 423.722656 223.710938 416.164062 C 223.710938 409.621094 221.386719 404.324219 216.765625 400.234375 C 212.144531 396.140625 203.832031 391.769531 191.851562 387.167969 C 185.328125 384.621094 179.191406 381.84375 173.40625 378.789062 C 167.613281 375.753906 162.53125 372.171875 158.113281 368.066406 C 153.691406 363.976562 150.234375 359.085938 147.707031 353.417969 C 145.179688 347.75 143.914062 341.015625 143.914062 333.230469 C 143.914062 326.929688 145.132812 320.933594 147.542969 315.257812 C 149.957031 309.578125 153.691406 304.6875 158.738281 300.597656 C 163.78125 296.503906 170.246094 293.238281 178.132812 290.824219 C 186.023438 288.402344 195.425781 287.195312 206.359375 287.195312 C 213.5 287.195312 219.445312 287.355469 224.171875 287.664062 C 228.898438 287.980469 232.78125 288.402344 235.84375 288.933594 C 238.882812 289.460938 241.359375 290.039062 243.253906 290.671875 C 245.144531 291.304688 246.933594 291.824219 248.613281 292.246094 C 250.082031 292.871094 250.824219 294.714844 250.824219 297.761719 C 250.824219 300.808594 250.390625 304.0625 249.554688 307.542969 C 248.71875 311 247.554688 314.054688 246.097656 316.679688 C 244.617188 319.3125 243.148438 320.414062 241.675781 319.992188 C 238.101562 318.945312 233.210938 317.792969 227.015625 316.535156 C 220.808594 315.265625 214.777344 314.640625 208.886719 314.640625 C 196.898438 314.640625 188.652344 316.332031 184.136719 319.6875 C 179.613281 323.046875 177.355469 327.5625 177.355469 333.242188 C 177.355469 339.34375 179.882812 344.230469 184.925781 347.902344 C 189.96875 351.574219 197.859375 355.308594 208.570312 359.09375 C 225.59375 365.820312 238.160156 373.542969 246.25 382.269531 C 254.339844 390.992188 258.394531 401.972656 258.394531 415.222656 C 258.394531 425.105469 256.5 433.3125 252.726562 439.835938 C 248.929688 446.347656 243.886719 451.507812 237.585938 455.265625 C 231.28125 459.070312 224.074219 461.738281 215.988281 463.316406 C 207.886719 464.863281 199.636719 465.648438 191.230469 465.648438 Z M 191.230469 465.648438 " fill-opacity="1" fill-rule="nonzero"/><path fill="#ffffff" d="M 418.566406 464.066406 C 414.15625 464.066406 411.265625 463.335938 409.910156 461.855469 C 408.527344 460.394531 407.863281 457.558594 407.863281 453.332031 L 407.863281 342.984375 C 399.457031 356.644531 392.972656 367.203125 388.449219 374.667969 C 383.914062 382.144531 380.636719 387.609375 378.523438 391.078125 C 376.417969 394.527344 375.152344 396.59375 374.71875 397.214844 C 374.304688 397.851562 374.113281 398.28125 374.113281 398.496094 C 372.230469 401.644531 370.90625 403.691406 370.175781 404.644531 C 369.425781 405.613281 367.898438 406.054688 365.59375 406.054688 L 360.546875 406.054688 C 357.820312 406.054688 356.023438 405.585938 355.1875 404.644531 C 354.351562 403.691406 353.082031 401.644531 351.402344 398.496094 L 319.238281 343.636719 L 319.238281 455.265625 C 319.238281 458.003906 318.765625 460.164062 317.816406 461.738281 C 316.875 463.316406 314.402344 464.101562 310.40625 464.101562 L 297.179688 464.101562 C 294.230469 464.101562 291.664062 463.632812 289.445312 462.679688 C 287.246094 461.738281 286.128906 458.644531 286.128906 453.371094 L 286.128906 302 C 286.128906 297.789062 286.917969 295.003906 288.492188 293.640625 C 290.070312 292.277344 292.328125 291.59375 295.277344 291.59375 L 311.042969 291.59375 C 313.347656 291.59375 315.296875 291.902344 316.875 292.535156 C 318.449219 293.167969 320.074219 294.746094 321.761719 297.261719 L 363.691406 364.109375 L 405.625 297.894531 C 406.894531 295.582031 408.402344 293.957031 410.21875 293.007812 C 412.015625 292.054688 413.726562 291.59375 415.414062 291.59375 L 432.765625 291.59375 C 436.761719 291.59375 439.058594 292.429688 439.710938 294.109375 C 440.347656 295.800781 440.65625 298.53125 440.65625 302.316406 L 440.65625 454.910156 C 440.65625 458.058594 440.242188 460.386719 439.394531 461.863281 C 438.550781 463.34375 436.128906 464.066406 432.152344 464.066406 Z M 418.566406 464.066406 " fill-opacity="1" fill-rule="nonzero"/><path fill="#ffffff" d="M 523.585938 465.648438 C 509.480469 465.648438 498.046875 464.546875 489.210938 462.324219 C 480.390625 460.125 474.28125 457.859375 470.9375 455.550781 C 470.089844 454.707031 469.773438 452.777344 469.976562 449.722656 C 470.179688 446.695312 470.640625 443.523438 471.386719 440.277344 C 472.117188 437.03125 473.058594 434.109375 474.222656 431.621094 C 475.367188 429.09375 476.460938 427.929688 477.535156 428.152344 C 483.003906 430.046875 488.949219 431.890625 495.347656 433.667969 C 501.746094 435.453125 509.894531 436.335938 519.78125 436.335938 C 529.878906 436.335938 538.417969 434.886719 545.488281 431.929688 C 552.511719 428.976562 556.066406 423.722656 556.066406 416.164062 C 556.066406 409.621094 553.742188 404.324219 549.113281 400.234375 C 544.480469 396.140625 536.179688 391.769531 524.191406 387.167969 C 517.667969 384.621094 511.539062 381.84375 505.742188 378.789062 C 499.949219 375.753906 494.867188 372.171875 490.441406 368.066406 C 486.03125 363.976562 482.570312 359.085938 480.042969 353.417969 C 477.507812 347.738281 476.25 341.015625 476.25 333.230469 C 476.25 326.929688 477.46875 320.933594 479.871094 315.257812 C 482.292969 309.578125 486.03125 304.6875 491.074219 300.597656 C 496.117188 296.503906 502.574219 293.238281 510.460938 290.824219 C 518.359375 288.402344 527.773438 287.195312 538.6875 287.195312 C 545.835938 287.195312 551.78125 287.355469 556.5 287.664062 C 561.226562 287.980469 565.109375 288.402344 568.183594 288.933594 C 571.207031 289.460938 573.6875 290.039062 575.589844 290.671875 C 577.472656 291.296875 579.269531 291.824219 580.960938 292.246094 C 582.421875 292.871094 583.160156 294.714844 583.160156 297.761719 C 583.160156 300.808594 582.726562 304.0625 581.882812 307.542969 C 581.054688 311 579.894531 314.054688 578.441406 316.679688 C 576.964844 319.3125 575.484375 320.414062 574.015625 319.992188 C 570.449219 318.945312 565.539062 317.792969 559.363281 316.535156 C 553.15625 315.265625 547.113281 314.640625 541.234375 314.640625 C 529.242188 314.640625 520.992188 316.332031 516.484375 319.6875 C 511.960938 323.046875 509.691406 327.5625 509.691406 333.242188 C 509.691406 339.34375 512.230469 344.230469 517.273438 347.902344 C 522.308594 351.574219 530.203125 355.308594 540.917969 359.09375 C 557.929688 365.820312 570.507812 373.542969 578.597656 382.269531 C 586.6875 390.992188 590.738281 401.972656 590.738281 415.222656 C 590.738281 425.105469 588.847656 433.3125 585.070312 439.835938 C 581.277344 446.347656 576.234375 451.507812 569.929688 455.265625 C 563.628906 459.070312 556.421875 461.738281 548.332031 463.316406 C 540.214844 464.863281 531.992188 465.648438 523.585938 465.648438 Z M 523.585938 465.648438 " fill-opacity="1" fill-rule="nonzero"/></svg>