<svg xmlns="http://www.w3.org/2000/svg" xmlns:xlink="http://www.w3.org/1999/xlink" width="1000" zoomAndPan="magnify" viewBox="0 0 750 749.999995" height="1000" preserveAspectRatio="xMidYMid meet" version="1.0"><path fill="#ffffff" d="M 652.945312 525.1875 C 552.667969 476.644531 536.683594 401.695312 535.972656 396.136719 C 535.113281 389.402344 534.136719 384.105469 541.566406 377.257812 C 548.730469 370.640625 580.511719 350.96875 589.332031 344.8125 C 603.90625 334.621094 610.328125 324.445312 605.59375 311.9375 C 602.285156 303.285156 594.230469 300.027344 585.742188 300.027344 C 583.054688 300.035156 580.402344 300.332031 577.78125 300.917969 C 561.765625 304.394531 546.214844 312.417969 537.214844 314.585938 C 536.128906 314.863281 535.027344 315.015625 533.90625 315.03125 C 529.109375 315.03125 527.289062 312.898438 527.75 307.125 C 528.875 289.617188 531.257812 255.453125 528.496094 223.539062 C 524.707031 179.628906 510.542969 157.871094 493.75 138.628906 C 485.628906 129.296875 447.90625 89.210938 375.105469 89.210938 C 302.308594 89.210938 264.636719 129.296875 256.5625 138.511719 C 239.71875 157.753906 225.574219 179.511719 221.816406 223.421875 C 219.054688 255.335938 221.535156 289.488281 222.5625 307.007812 C 222.894531 312.5 221.207031 314.917969 216.40625 314.917969 C 215.285156 314.898438 214.183594 314.746094 213.097656 314.46875 C 204.113281 312.300781 188.5625 304.277344 172.546875 300.804688 C 169.925781 300.214844 167.273438 299.917969 164.589844 299.910156 C 156.066406 299.910156 148.042969 303.21875 144.734375 311.820312 C 140.003906 324.332031 146.386719 334.503906 161.015625 344.695312 C 169.832031 350.851562 201.617188 370.507812 208.78125 377.140625 C 216.191406 383.992188 215.230469 389.285156 214.371094 396.019531 C 213.660156 401.660156 197.660156 476.609375 97.398438 525.070312 C 91.527344 527.917969 81.53125 533.9375 99.152344 543.667969 C 126.816406 558.953125 145.230469 557.316406 159.542969 566.53125 C 171.6875 574.359375 164.503906 591.234375 173.339844 597.324219 C 184.195312 604.816406 216.273438 596.792969 257.71875 610.476562 C 292.464844 621.925781 313.574219 654.269531 375.1875 654.269531 C 436.804688 654.269531 458.527344 621.777344 492.660156 610.476562 C 534.019531 596.792969 566.167969 604.816406 577.039062 597.324219 C 585.855469 591.234375 578.691406 574.359375 590.835938 566.53125 C 605.148438 557.316406 623.546875 558.953125 651.226562 543.667969 C 668.8125 534.054688 658.820312 528.03125 652.945312 525.1875 Z M 652.945312 525.1875 " fill-opacity="1" fill-rule="nonzero"/><path fill="#000000" d="M 696.574219 519.476562 C 692.074219 507.234375 683.503906 500.683594 673.742188 495.257812 C 671.90625 494.179688 670.21875 493.320312 668.78125 492.660156 C 665.867188 491.152344 662.890625 489.699219 659.929688 488.160156 C 629.503906 472.027344 605.742188 451.675781 589.265625 427.554688 C 584.574219 420.75 580.535156 413.578125 577.136719 406.046875 C 575.730469 402.027344 575.796875 399.742188 576.808594 397.65625 C 577.820312 396.035156 579.113281 394.683594 580.695312 393.605469 C 585.921875 390.144531 591.316406 386.636719 594.972656 384.273438 C 601.492188 380.054688 606.652344 376.710938 609.980469 374.34375 C 622.472656 365.609375 631.207031 356.328125 636.667969 345.953125 C 637.617188 344.167969 638.46875 342.335938 639.21875 340.457031 C 639.972656 338.578125 640.625 336.667969 641.171875 334.71875 C 641.71875 332.769531 642.160156 330.800781 642.496094 328.804688 C 642.832031 326.808594 643.058594 324.800781 643.179688 322.78125 C 643.300781 320.761719 643.3125 318.742188 643.214844 316.71875 C 643.117188 314.699219 642.914062 312.691406 642.601562 310.691406 C 642.289062 308.691406 641.871094 306.714844 641.347656 304.761719 C 640.820312 302.808594 640.195312 300.886719 639.460938 299 C 631.191406 277.226562 610.625 263.710938 585.707031 263.710938 C 580.4375 263.703125 575.226562 264.253906 570.074219 265.363281 C 568.699219 265.660156 567.328125 265.976562 565.988281 266.324219 C 566.21875 251.433594 565.886719 235.714844 564.5625 220.246094 C 559.863281 165.863281 540.820312 137.355469 520.96875 114.621094 C 514.609375 107.5 507.714844 100.945312 500.277344 94.960938 C 492.839844 88.972656 484.960938 83.636719 476.644531 78.953125 C 446.515625 61.746094 412.347656 53.007812 375.105469 53.007812 C 337.863281 53.007812 303.863281 61.746094 273.703125 78.953125 C 265.363281 83.640625 257.46875 88.980469 250.019531 94.980469 C 242.566406 100.976562 235.660156 107.546875 229.296875 114.6875 C 209.441406 137.421875 190.398438 165.976562 185.699219 220.3125 C 184.375 235.78125 184.046875 251.582031 184.261719 266.390625 C 182.921875 266.042969 181.5625 265.726562 180.191406 265.429688 C 175.039062 264.320312 169.824219 263.769531 164.554688 263.777344 C 139.621094 263.777344 119.023438 277.292969 110.785156 299.066406 C 110.050781 300.953125 109.417969 302.875 108.890625 304.828125 C 108.363281 306.785156 107.941406 308.761719 107.625 310.761719 C 107.308594 312.765625 107.101562 314.777344 107.003906 316.796875 C 106.902344 318.820312 106.910156 320.84375 107.027344 322.867188 C 107.148438 324.886719 107.371094 326.898438 107.707031 328.894531 C 108.039062 330.890625 108.476562 332.867188 109.023438 334.816406 C 109.566406 336.765625 110.214844 338.683594 110.964844 340.5625 C 111.71875 342.445312 112.566406 344.28125 113.515625 346.070312 C 118.988281 356.445312 127.726562 365.726562 140.21875 374.460938 C 143.527344 376.777344 148.703125 380.121094 155.222656 384.386719 C 158.746094 386.671875 163.894531 390.015625 168.941406 393.355469 C 170.726562 394.511719 172.191406 395.984375 173.339844 397.773438 C 174.398438 399.941406 174.433594 402.273438 172.859375 406.574219 C 169.511719 413.949219 165.535156 420.972656 160.933594 427.636719 C 144.816406 451.214844 121.753906 471.199219 92.304688 487.199219 C 76.699219 495.472656 60.488281 500.996094 53.636719 519.609375 C 48.476562 533.65625 51.851562 549.640625 64.972656 563.109375 C 69.816406 568.167969 75.332031 572.339844 81.515625 575.632812 C 94.347656 582.683594 107.84375 588.085938 122 591.828125 C 124.933594 592.585938 127.65625 593.804688 130.175781 595.484375 C 134.957031 599.671875 134.277344 605.976562 140.648438 615.207031 C 143.875 620.023438 147.867188 624.082031 152.625 627.386719 C 165.996094 636.617188 181.015625 637.195312 196.933594 637.808594 C 211.3125 638.355469 227.609375 638.984375 246.222656 645.121094 C 253.929688 647.667969 261.9375 652.597656 271.21875 658.355469 C 293.507812 672.054688 324.015625 690.800781 375.074219 690.800781 C 426.132812 690.800781 456.855469 671.957031 479.308594 658.207031 C 488.523438 652.550781 496.480469 647.667969 503.976562 645.1875 C 522.589844 639.03125 538.886719 638.421875 553.261719 637.875 C 569.179688 637.261719 584.203125 636.683594 597.570312 627.449219 C 603.226562 623.507812 607.773438 618.542969 611.203125 612.5625 C 615.785156 604.769531 615.671875 599.324219 619.972656 595.519531 C 622.335938 593.917969 624.894531 592.75 627.648438 592.011719 C 642 588.253906 655.679688 582.804688 668.679688 575.664062 C 675.257812 572.136719 681.050781 567.601562 686.054688 562.066406 L 686.21875 561.867188 C 698.527344 548.695312 701.621094 533.175781 696.574219 519.476562 Z M 651.191406 543.867188 C 623.511719 559.152344 605.117188 557.515625 590.804688 566.730469 C 578.644531 574.558594 585.839844 591.433594 577.003906 597.519531 C 566.152344 605.015625 534.070312 596.992188 492.625 610.675781 C 458.445312 621.976562 436.636719 654.46875 375.15625 654.46875 C 313.675781 654.46875 292.382812 622.039062 257.636719 610.589844 C 216.273438 596.910156 184.128906 604.933594 173.257812 597.4375 C 164.4375 591.351562 171.601562 574.472656 159.460938 566.648438 C 145.132812 557.433594 126.734375 559.070312 99.070312 543.867188 C 81.449219 534.136719 91.441406 528.113281 97.316406 525.269531 C 197.578125 476.726562 213.578125 401.777344 214.289062 396.21875 C 215.148438 389.484375 216.109375 384.191406 208.695312 377.339844 C 201.53125 370.722656 169.75 351.050781 160.933594 344.894531 C 146.339844 334.703125 139.917969 324.527344 144.652344 312.019531 C 147.960938 303.367188 156.035156 300.109375 164.503906 300.109375 C 167.191406 300.117188 169.84375 300.414062 172.464844 301 C 188.480469 304.476562 204.03125 312.5 213.015625 314.667969 C 214.101562 314.945312 215.203125 315.09375 216.324219 315.113281 C 221.121094 315.113281 222.808594 312.699219 222.480469 307.207031 C 221.453125 289.683594 218.972656 255.535156 221.734375 223.621094 C 225.523438 179.710938 239.667969 157.953125 256.480469 138.710938 C 264.554688 129.464844 302.492188 89.375 375.039062 89.375 C 447.589844 89.375 485.628906 129.296875 493.703125 138.511719 C 510.527344 157.753906 524.691406 179.511719 528.445312 223.421875 C 531.207031 255.335938 528.828125 289.503906 527.703125 307.007812 C 527.320312 312.78125 529.058594 314.917969 533.855469 314.917969 C 534.976562 314.898438 536.078125 314.75 537.164062 314.46875 C 546.164062 312.300781 561.71875 304.277344 577.734375 300.804688 C 580.351562 300.214844 583.007812 299.917969 585.691406 299.910156 C 594.210938 299.910156 602.238281 303.21875 605.546875 311.820312 C 610.277344 324.332031 603.890625 334.503906 589.28125 344.695312 C 580.464844 350.851562 548.679688 370.507812 541.515625 377.140625 C 534.085938 383.992188 535.0625 389.285156 535.925781 396.019531 C 536.636719 401.660156 552.617188 476.609375 652.898438 525.070312 C 658.820312 528.03125 668.8125 534.054688 651.191406 543.867188 Z M 651.191406 543.867188 " fill-opacity="1" fill-rule="nonzero"/></svg>