<svg width="40" height="40" viewBox="0 0 40 40" fill="none" xmlns="http://www.w3.org/2000/svg">
	<rect width="40" height="40" rx="6" fill="#E5F2FF" />
	<path d="M31.1112 32.5001V29.7223C31.1112 28.2489 30.5259 26.8358 29.484 25.7939C28.4421 24.7521 27.0291 24.1667 25.5556 24.1667H14.4445C12.9711 24.1667 11.558 24.7521 10.5162 25.7939C9.47429 26.8358 8.88898 28.2489 8.88898 29.7223V32.5001" stroke="#4CB3FD" stroke-width="2.08333" stroke-linecap="round" stroke-linejoin="round" />
	<path d="M20 18.6111C23.0683 18.6111 25.5556 16.1238 25.5556 13.0556C25.5556 9.98731 23.0683 7.5 20 7.5C16.9318 7.5 14.4445 9.98731 14.4445 13.0556C14.4445 16.1238 16.9318 18.6111 20 18.6111Z" stroke="#4CB3FD" stroke-width="2.08333" stroke-linecap="round" stroke-linejoin="round" />
</svg>
