<?xml version="1.0" standalone="no"?>
<!DOCTYPE svg PUBLIC "-//W3C//DTD SVG 20010904//EN"
 "http://www.w3.org/TR/2001/REC-SVG-20010904/DTD/svg10.dtd">
<svg version="1.0" xmlns="http://www.w3.org/2000/svg"
 width="512.000000pt" height="512.000000pt" viewBox="0 0 512.000000 512.000000"
 preserveAspectRatio="xMidYMid meet">

<g transform="translate(0.000000,512.000000) scale(0.100000,-0.100000)"
fill="#fff" stroke="none">
<path d="M2175 3720 c-110 -10 -167 -24 -222 -56 -39 -22 -83 -71 -83 -91 0
-4 23 -14 52 -21 160 -38 197 -133 198 -502 0 -264 -16 -370 -66 -430 -33 -39
-82 -41 -134 -5 -115 80 -357 467 -505 810 -90 207 -64 197 -507 193 -324 -3
-338 -4 -365 -24 -43 -32 -41 -68 8 -181 114 -261 345 -694 506 -953 382 -610
707 -898 1143 -1014 129 -35 263 -48 441 -44 132 3 159 6 188 23 60 35 72 61
81 176 18 228 76 339 177 339 59 0 125 -52 270 -212 204 -225 263 -272 386
-310 66 -20 79 -20 410 -11 326 8 344 10 385 31 59 31 80 77 64 136 -31 117
-142 258 -418 531 -117 116 -219 224 -228 242 -22 45 -20 89 8 149 13 28 108
162 210 297 225 298 323 442 382 564 75 153 71 239 -13 262 -49 14 -765 15
-814 1 -51 -14 -83 -54 -119 -145 -114 -290 -325 -649 -469 -798 -111 -115
-167 -116 -218 -2 -17 37 -18 73 -15 445 2 271 -1 420 -8 450 -20 80 -61 113
-171 135 -89 18 -426 27 -554 15z"/>
</g>
</svg>
