<?xml version="1.0" standalone="no"?>
<!DOCTYPE svg PUBLIC "-//W3C//DTD SVG 20010904//EN"
 "http://www.w3.org/TR/2001/REC-SVG-20010904/DTD/svg10.dtd">
<svg version="1.0" xmlns="http://www.w3.org/2000/svg"
 width="512.000000pt" height="512.000000pt" viewBox="0 0 512.000000 512.000000"
 preserveAspectRatio="xMidYMid meet">

<g transform="translate(0.000000,512.000000) scale(0.100000,-0.100000)"
fill="#fff" stroke="none">
<path d="M2650 4899 c-504 -51 -1009 -288 -1384 -649 -269 -260 -428 -525
-521 -872 -47 -176 -65 -301 -94 -649 -29 -346 -57 -454 -136 -534 -54 -54
-109 -74 -223 -84 -109 -10 -159 -29 -211 -82 -71 -71 -98 -182 -67 -275 46
-137 327 -421 576 -583 47 -30 136 -81 199 -113 l113 -58 50 101 c41 84 64
116 131 184 69 70 97 90 177 128 125 59 181 72 320 71 138 0 235 -24 354 -87
222 -118 366 -355 366 -603 l0 -64 209 0 208 0 6 92 c16 290 207 536 492 635
72 24 94 27 215 27 126 1 141 -2 223 -31 48 -17 113 -46 144 -64 78 -47 201
-171 243 -247 61 -108 47 -105 145 -38 473 321 780 765 889 1284 96 459 40
909 -164 1308 -324 633 -960 1076 -1705 1189 -125 19 -429 27 -555 14z m864
-1346 c102 -51 150 -127 151 -238 0 -108 -45 -184 -140 -233 -111 -57 -250
-22 -322 82 -126 183 15 432 231 410 27 -3 63 -12 80 -21z m-1235 -39 c57 -24
95 -58 126 -115 24 -45 29 -66 29 -124 0 -60 -4 -79 -30 -125 -103 -183 -348
-183 -449 1 -38 70 -41 170 -7 235 66 129 202 181 331 128z m-193 -790 c41
-19 61 -54 74 -126 37 -193 215 -361 456 -430 101 -29 273 -30 379 -4 227 57
412 212 475 399 32 97 66 127 141 127 74 0 129 -57 129 -134 0 -94 -92 -267
-203 -383 -130 -135 -278 -221 -466 -270 -132 -34 -341 -43 -462 -19 -277 56
-534 246 -653 484 -32 62 -66 189 -66 241 0 97 105 158 196 115z"/>
<path d="M1482 1299 c-200 -35 -361 -190 -417 -399 -19 -71 -19 -209 0 -280
56 -210 237 -372 451 -401 243 -34 482 114 574 356 28 74 38 232 20 318 -38
184 -202 350 -391 396 -69 16 -177 21 -237 10z m184 -379 c41 -26 74 -93 74
-151 0 -58 -35 -127 -79 -156 -144 -96 -290 126 -181 273 42 57 124 72 186 34z"/>
<path d="M3325 1299 c-76 -15 -187 -73 -248 -129 -199 -182 -239 -464 -100
-699 127 -214 408 -311 643 -222 206 78 350 291 350 514 -1 232 -152 443 -371
518 -74 25 -199 33 -274 18z m190 -379 c66 -41 93 -176 49 -250 -61 -105 -196
-105 -251 0 -44 83 -20 208 49 250 43 26 111 26 153 0z"/>
</g>
</svg>
