<svg xmlns="http://www.w3.org/2000/svg" xmlns:xlink="http://www.w3.org/1999/xlink" width="136" zoomAndPan="magnify" viewBox="0 0 102 101.999999" height="136" preserveAspectRatio="xMidYMid meet" version="1.0"><defs><clipPath id="05d78e7965"><path d="M 11.808594 25.773438 L 88 25.773438 L 88 69.3125 L 11.808594 69.3125 Z M 11.808594 25.773438 " clip-rule="nonzero"/></clipPath><clipPath id="f0222bb634"><path d="M 17.058594 25.773438 L 82.683594 25.773438 C 85.585938 25.773438 87.933594 28.125 87.933594 31.023438 L 87.933594 64.0625 C 87.933594 66.960938 85.585938 69.3125 82.683594 69.3125 L 17.058594 69.3125 C 14.160156 69.3125 11.808594 66.960938 11.808594 64.0625 L 11.808594 31.023438 C 11.808594 28.125 14.160156 25.773438 17.058594 25.773438 Z M 17.058594 25.773438 " clip-rule="nonzero"/></clipPath><clipPath id="e5b3cb034f"><path d="M 11.808594 22.539062 L 87.933594 22.539062 L 87.933594 30.054688 L 11.808594 30.054688 Z M 11.808594 22.539062 " clip-rule="nonzero"/></clipPath><clipPath id="8845184d3a"><path d="M 11.808594 17.015625 L 87.953125 17.015625 L 87.953125 26.261719 L 11.808594 26.261719 Z M 11.808594 17.015625 " clip-rule="nonzero"/></clipPath><clipPath id="8d549f2288"><path d="M 14.808594 17.015625 L 84.933594 17.015625 C 85.730469 17.015625 86.492188 17.332031 87.058594 17.894531 C 87.621094 18.457031 87.933594 19.21875 87.933594 20.015625 L 87.933594 23.261719 C 87.933594 24.058594 87.621094 24.820312 87.058594 25.382812 C 86.492188 25.945312 85.730469 26.261719 84.933594 26.261719 L 14.808594 26.261719 C 14.011719 26.261719 13.25 25.945312 12.6875 25.382812 C 12.125 24.820312 11.808594 24.058594 11.808594 23.261719 L 11.808594 20.015625 C 11.808594 19.21875 12.125 18.457031 12.6875 17.894531 C 13.25 17.332031 14.011719 17.015625 14.808594 17.015625 Z M 14.808594 17.015625 " clip-rule="nonzero"/></clipPath><clipPath id="fdc51ee03c"><path d="M 15.335938 36.15625 L 78.8125 36.15625 L 78.8125 38.84375 L 15.335938 38.84375 Z M 15.335938 36.15625 " clip-rule="nonzero"/></clipPath><clipPath id="a7c5e0cda3"><path d="M 15.335938 40.894531 L 68.042969 40.894531 L 68.042969 43.582031 L 15.335938 43.582031 Z M 15.335938 40.894531 " clip-rule="nonzero"/></clipPath><clipPath id="7582b32f16"><path d="M 33.390625 52.582031 L 46.890625 52.582031 L 46.890625 66.082031 L 33.390625 66.082031 Z M 33.390625 52.582031 " clip-rule="nonzero"/></clipPath><clipPath id="1429fa7f95"><path d="M 33.390625 52.582031 L 46.890625 52.582031 L 46.890625 66.082031 L 33.390625 66.082031 Z M 33.390625 52.582031 " clip-rule="nonzero"/></clipPath><clipPath id="b58e45ed01"><path d="M 40.140625 52.582031 C 40.582031 52.582031 41.023438 52.625 41.457031 52.710938 C 41.890625 52.796875 42.3125 52.925781 42.722656 53.097656 C 43.132812 53.265625 43.523438 53.472656 43.890625 53.71875 C 44.257812 53.964844 44.597656 54.246094 44.914062 54.558594 C 45.226562 54.871094 45.507812 55.214844 45.753906 55.582031 C 46 55.949219 46.207031 56.339844 46.375 56.75 C 46.546875 57.160156 46.671875 57.582031 46.761719 58.015625 C 46.847656 58.449219 46.890625 58.890625 46.890625 59.332031 C 46.890625 59.773438 46.847656 60.214844 46.761719 60.648438 C 46.671875 61.082031 46.546875 61.503906 46.375 61.914062 C 46.207031 62.324219 46 62.714844 45.753906 63.082031 C 45.507812 63.449219 45.226562 63.792969 44.914062 64.105469 C 44.597656 64.417969 44.257812 64.699219 43.890625 64.945312 C 43.523438 65.191406 43.132812 65.398438 42.722656 65.566406 C 42.3125 65.738281 41.890625 65.867188 41.457031 65.953125 C 41.023438 66.039062 40.582031 66.082031 40.140625 66.082031 C 39.695312 66.082031 39.257812 66.039062 38.824219 65.953125 C 38.386719 65.867188 37.964844 65.738281 37.558594 65.566406 C 37.148438 65.398438 36.757812 65.191406 36.390625 64.945312 C 36.019531 64.699219 35.679688 64.417969 35.367188 64.105469 C 35.054688 63.792969 34.773438 63.449219 34.527344 63.082031 C 34.28125 62.714844 34.074219 62.324219 33.902344 61.914062 C 33.734375 61.503906 33.605469 61.082031 33.519531 60.648438 C 33.433594 60.214844 33.390625 59.773438 33.390625 59.332031 C 33.390625 58.890625 33.433594 58.449219 33.519531 58.015625 C 33.605469 57.582031 33.734375 57.160156 33.902344 56.75 C 34.074219 56.339844 34.28125 55.949219 34.527344 55.582031 C 34.773438 55.214844 35.054688 54.871094 35.367188 54.558594 C 35.679688 54.246094 36.019531 53.964844 36.390625 53.71875 C 36.757812 53.472656 37.148438 53.265625 37.558594 53.097656 C 37.964844 52.925781 38.386719 52.796875 38.824219 52.710938 C 39.257812 52.625 39.695312 52.582031 40.140625 52.582031 Z M 40.140625 52.582031 " clip-rule="nonzero"/></clipPath><linearGradient x1="24" gradientTransform="matrix(0.28125, 0, 0, 0.28125, 33.389954, 52.582009)" y1="0.000000743406" x2="24" gradientUnits="userSpaceOnUse" y2="47.999999" id="033230eb3c"><stop stop-opacity="1" stop-color="rgb(16.499329%, 67.098999%, 93.299866%)" offset="0"/><stop stop-opacity="1" stop-color="rgb(16.448975%, 67.018127%, 93.170166%)" offset="0.03125"/><stop stop-opacity="1" stop-color="rgb(16.348267%, 66.85791%, 92.910767%)" offset="0.0625"/><stop stop-opacity="1" stop-color="rgb(16.247559%, 66.697693%, 92.652893%)" offset="0.09375"/><stop stop-opacity="1" stop-color="rgb(16.146851%, 66.53595%, 92.39502%)" offset="0.125"/><stop stop-opacity="1" stop-color="rgb(16.046143%, 66.375732%, 92.137146%)" offset="0.15625"/><stop stop-opacity="1" stop-color="rgb(15.945435%, 66.215515%, 91.879272%)" offset="0.1875"/><stop stop-opacity="1" stop-color="rgb(15.844727%, 66.055298%, 91.619873%)" offset="0.21875"/><stop stop-opacity="1" stop-color="rgb(15.744019%, 65.895081%, 91.362%)" offset="0.25"/><stop stop-opacity="1" stop-color="rgb(15.643311%, 65.733337%, 91.104126%)" offset="0.28125"/><stop stop-opacity="1" stop-color="rgb(15.542603%, 65.57312%, 90.846252%)" offset="0.3125"/><stop stop-opacity="1" stop-color="rgb(15.441895%, 65.412903%, 90.588379%)" offset="0.34375"/><stop stop-opacity="1" stop-color="rgb(15.341187%, 65.252686%, 90.328979%)" offset="0.375"/><stop stop-opacity="1" stop-color="rgb(15.240479%, 65.090942%, 90.071106%)" offset="0.40625"/><stop stop-opacity="1" stop-color="rgb(15.139771%, 64.930725%, 89.813232%)" offset="0.4375"/><stop stop-opacity="1" stop-color="rgb(15.039062%, 64.770508%, 89.555359%)" offset="0.46875"/><stop stop-opacity="1" stop-color="rgb(14.938354%, 64.610291%, 89.297485%)" offset="0.5"/><stop stop-opacity="1" stop-color="rgb(14.837646%, 64.450073%, 89.039612%)" offset="0.53125"/><stop stop-opacity="1" stop-color="rgb(14.735413%, 64.28833%, 88.780212%)" offset="0.5625"/><stop stop-opacity="1" stop-color="rgb(14.634705%, 64.128113%, 88.522339%)" offset="0.59375"/><stop stop-opacity="1" stop-color="rgb(14.533997%, 63.967896%, 88.264465%)" offset="0.625"/><stop stop-opacity="1" stop-color="rgb(14.433289%, 63.807678%, 88.006592%)" offset="0.65625"/><stop stop-opacity="1" stop-color="rgb(14.332581%, 63.645935%, 87.748718%)" offset="0.6875"/><stop stop-opacity="1" stop-color="rgb(14.231873%, 63.485718%, 87.489319%)" offset="0.71875"/><stop stop-opacity="1" stop-color="rgb(14.131165%, 63.3255%, 87.231445%)" offset="0.75"/><stop stop-opacity="1" stop-color="rgb(14.030457%, 63.165283%, 86.973572%)" offset="0.78125"/><stop stop-opacity="1" stop-color="rgb(13.929749%, 63.00354%, 86.715698%)" offset="0.8125"/><stop stop-opacity="1" stop-color="rgb(13.829041%, 62.843323%, 86.457825%)" offset="0.84375"/><stop stop-opacity="1" stop-color="rgb(13.728333%, 62.683105%, 86.198425%)" offset="0.875"/><stop stop-opacity="1" stop-color="rgb(13.627625%, 62.522888%, 85.940552%)" offset="0.90625"/><stop stop-opacity="1" stop-color="rgb(13.526917%, 62.362671%, 85.682678%)" offset="0.9375"/><stop stop-opacity="1" stop-color="rgb(13.426208%, 62.200928%, 85.424805%)" offset="0.96875"/><stop stop-opacity="1" stop-color="rgb(13.337708%, 62.060547%, 85.197449%)" offset="1"/></linearGradient><clipPath id="d36bb9bb91"><path d="M 15.335938 52.582031 L 29.148438 52.582031 L 29.148438 66.394531 L 15.335938 66.394531 Z M 15.335938 52.582031 " clip-rule="nonzero"/></clipPath><clipPath id="56457dffbf"><path d="M 22.242188 52.582031 C 18.429688 52.582031 15.335938 55.675781 15.335938 59.488281 C 15.335938 63.304688 18.429688 66.394531 22.242188 66.394531 C 26.058594 66.394531 29.148438 63.304688 29.148438 59.488281 C 29.148438 55.675781 26.058594 52.582031 22.242188 52.582031 Z M 22.242188 52.582031 " clip-rule="nonzero"/></clipPath><clipPath id="73041cfd38"><path d="M 16.953125 54.125 L 27.453125 54.125 L 27.453125 64.625 L 16.953125 64.625 Z M 16.953125 54.125 " clip-rule="nonzero"/></clipPath><clipPath id="8df977dd62"><path d="M 69.3125 52.582031 L 82.941406 52.582031 L 82.941406 66.210938 L 69.3125 66.210938 Z M 69.3125 52.582031 " clip-rule="nonzero"/></clipPath><clipPath id="f0422a73af"><path d="M 76.128906 52.582031 C 72.363281 52.582031 69.3125 55.632812 69.3125 59.398438 C 69.3125 63.160156 72.363281 66.210938 76.128906 66.210938 C 79.890625 66.210938 82.941406 63.160156 82.941406 59.398438 C 82.941406 55.632812 79.890625 52.582031 76.128906 52.582031 Z M 76.128906 52.582031 " clip-rule="nonzero"/></clipPath><clipPath id="9ae935e109"><path d="M 72 55.140625 L 80 55.140625 L 80 63 L 72 63 Z M 72 55.140625 " clip-rule="nonzero"/></clipPath><clipPath id="e491fbaba7"><path d="M 51 52 L 65 52 L 65 67 L 51 67 Z M 51 52 " clip-rule="nonzero"/></clipPath><clipPath id="e1eb49d110"><path d="M 58.085938 52.769531 C 54.335938 52.769531 51.421875 55.519531 51.421875 59.230469 C 51.410156 60.140625 51.589844 61.015625 51.953125 61.847656 C 52.320312 62.683594 52.839844 63.402344 53.515625 64.011719 C 53.628906 64.113281 53.691406 64.238281 53.695312 64.390625 L 53.609375 65.757812 C 53.585938 65.964844 53.660156 66.121094 53.835938 66.230469 C 54.007812 66.339844 54.183594 66.339844 54.359375 66.226562 L 55.800781 65.464844 C 55.917969 65.414062 56.035156 65.40625 56.15625 65.4375 C 56.789062 65.609375 57.429688 65.695312 58.085938 65.695312 C 61.828125 65.695312 64.746094 62.945312 64.746094 59.234375 C 64.746094 55.519531 61.828125 52.769531 58.085938 52.769531 Z M 62.085938 57.4375 L 60.128906 60.847656 C 60.054688 60.964844 59.960938 61.066406 59.84375 61.144531 C 59.726562 61.226562 59.597656 61.277344 59.460938 61.300781 C 59.320312 61.328125 59.183594 61.324219 59.046875 61.289062 C 58.90625 61.257812 58.785156 61.199219 58.671875 61.113281 L 57.113281 59.945312 C 56.953125 59.824219 56.792969 59.824219 56.632812 59.945312 L 54.539062 61.84375 C 54.398438 61.953125 54.261719 61.949219 54.132812 61.828125 C 54 61.707031 53.984375 61.574219 54.082031 61.425781 L 56.039062 58.019531 C 56.113281 57.898438 56.207031 57.800781 56.320312 57.722656 C 56.4375 57.644531 56.5625 57.59375 56.699219 57.566406 C 56.839844 57.542969 56.976562 57.546875 57.109375 57.578125 C 57.246094 57.609375 57.371094 57.667969 57.480469 57.753906 L 59.039062 58.917969 C 59.199219 59.042969 59.359375 59.042969 59.519531 58.917969 L 61.621094 57.023438 C 61.761719 56.914062 61.898438 56.921875 62.03125 57.039062 C 62.160156 57.160156 62.179688 57.292969 62.085938 57.441406 Z M 62.085938 57.4375 " clip-rule="nonzero"/></clipPath><radialGradient gradientTransform="matrix(1, 0, 0, 1, 58.688713, 58.344373)" gradientUnits="userSpaceOnUse" r="14.612151" cx="-4.681892" id="73ba1355f9" cy="7.957279" fx="-4.681892" fy="7.957279"><stop stop-opacity="1" stop-color="rgb(0.234985%, 58.64563%, 99.993896%)" offset="0"/><stop stop-opacity="1" stop-color="rgb(0.706482%, 58.338928%, 99.981689%)" offset="0.00390625"/><stop stop-opacity="1" stop-color="rgb(1.177979%, 58.030701%, 99.971008%)" offset="0.0078125"/><stop stop-opacity="1" stop-color="rgb(1.649475%, 57.723999%, 99.960327%)" offset="0.0117188"/><stop stop-opacity="1" stop-color="rgb(2.120972%, 57.417297%, 99.94812%)" offset="0.015625"/><stop stop-opacity="1" stop-color="rgb(2.592468%, 57.110596%, 99.937439%)" offset="0.0195312"/><stop stop-opacity="1" stop-color="rgb(3.063965%, 56.803894%, 99.926758%)" offset="0.0234375"/><stop stop-opacity="1" stop-color="rgb(3.535461%, 56.497192%, 99.914551%)" offset="0.0273438"/><stop stop-opacity="1" stop-color="rgb(4.006958%, 56.190491%, 99.90387%)" offset="0.03125"/><stop stop-opacity="1" stop-color="rgb(4.478455%, 55.882263%, 99.893188%)" offset="0.0351562"/><stop stop-opacity="1" stop-color="rgb(4.949951%, 55.575562%, 99.880981%)" offset="0.0390625"/><stop stop-opacity="1" stop-color="rgb(5.421448%, 55.26886%, 99.8703%)" offset="0.0429688"/><stop stop-opacity="1" stop-color="rgb(5.892944%, 54.962158%, 99.859619%)" offset="0.046875"/><stop stop-opacity="1" stop-color="rgb(6.364441%, 54.655457%, 99.847412%)" offset="0.0507812"/><stop stop-opacity="1" stop-color="rgb(6.835938%, 54.348755%, 99.836731%)" offset="0.0546875"/><stop stop-opacity="1" stop-color="rgb(7.307434%, 54.042053%, 99.82605%)" offset="0.0585938"/><stop stop-opacity="1" stop-color="rgb(7.778931%, 53.733826%, 99.813843%)" offset="0.0625"/><stop stop-opacity="1" stop-color="rgb(8.250427%, 53.427124%, 99.803162%)" offset="0.0664062"/><stop stop-opacity="1" stop-color="rgb(8.721924%, 53.120422%, 99.79248%)" offset="0.0703125"/><stop stop-opacity="1" stop-color="rgb(9.19342%, 52.813721%, 99.781799%)" offset="0.0742188"/><stop stop-opacity="1" stop-color="rgb(9.664917%, 52.507019%, 99.769592%)" offset="0.078125"/><stop stop-opacity="1" stop-color="rgb(10.136414%, 52.200317%, 99.758911%)" offset="0.0820312"/><stop stop-opacity="1" stop-color="rgb(10.60791%, 51.893616%, 99.74823%)" offset="0.0859375"/><stop stop-opacity="1" stop-color="rgb(11.079407%, 51.585388%, 99.736023%)" offset="0.0898438"/><stop stop-opacity="1" stop-color="rgb(11.550903%, 51.278687%, 99.725342%)" offset="0.09375"/><stop stop-opacity="1" stop-color="rgb(12.0224%, 50.971985%, 99.714661%)" offset="0.0976562"/><stop stop-opacity="1" stop-color="rgb(12.493896%, 50.665283%, 99.702454%)" offset="0.101562"/><stop stop-opacity="1" stop-color="rgb(12.965393%, 50.358582%, 99.691772%)" offset="0.105469"/><stop stop-opacity="1" stop-color="rgb(13.43689%, 50.05188%, 99.681091%)" offset="0.109375"/><stop stop-opacity="1" stop-color="rgb(13.908386%, 49.745178%, 99.668884%)" offset="0.113281"/><stop stop-opacity="1" stop-color="rgb(14.379883%, 49.436951%, 99.658203%)" offset="0.117188"/><stop stop-opacity="1" stop-color="rgb(14.851379%, 49.130249%, 99.647522%)" offset="0.121094"/><stop stop-opacity="1" stop-color="rgb(15.322876%, 48.823547%, 99.635315%)" offset="0.125"/><stop stop-opacity="1" stop-color="rgb(15.794373%, 48.516846%, 99.624634%)" offset="0.128906"/><stop stop-opacity="1" stop-color="rgb(16.265869%, 48.210144%, 99.613953%)" offset="0.132812"/><stop stop-opacity="1" stop-color="rgb(16.73584%, 47.904968%, 99.603271%)" offset="0.136719"/><stop stop-opacity="1" stop-color="rgb(17.192078%, 47.607422%, 99.588013%)" offset="0.140625"/><stop stop-opacity="1" stop-color="rgb(17.634583%, 47.319031%, 99.571228%)" offset="0.144531"/><stop stop-opacity="1" stop-color="rgb(18.077087%, 47.029114%, 99.555969%)" offset="0.148438"/><stop stop-opacity="1" stop-color="rgb(18.521118%, 46.739197%, 99.539185%)" offset="0.152344"/><stop stop-opacity="1" stop-color="rgb(18.963623%, 46.44928%, 99.523926%)" offset="0.15625"/><stop stop-opacity="1" stop-color="rgb(19.407654%, 46.159363%, 99.507141%)" offset="0.160156"/><stop stop-opacity="1" stop-color="rgb(19.850159%, 45.870972%, 99.491882%)" offset="0.164062"/><stop stop-opacity="1" stop-color="rgb(20.294189%, 45.581055%, 99.475098%)" offset="0.167969"/><stop stop-opacity="1" stop-color="rgb(20.736694%, 45.291138%, 99.458313%)" offset="0.171875"/><stop stop-opacity="1" stop-color="rgb(21.179199%, 45.001221%, 99.443054%)" offset="0.175781"/><stop stop-opacity="1" stop-color="rgb(21.62323%, 44.711304%, 99.42627%)" offset="0.179688"/><stop stop-opacity="1" stop-color="rgb(22.065735%, 44.422913%, 99.411011%)" offset="0.183594"/><stop stop-opacity="1" stop-color="rgb(22.509766%, 44.132996%, 99.394226%)" offset="0.1875"/><stop stop-opacity="1" stop-color="rgb(22.952271%, 43.843079%, 99.377441%)" offset="0.191406"/><stop stop-opacity="1" stop-color="rgb(23.396301%, 43.553162%, 99.362183%)" offset="0.195312"/><stop stop-opacity="1" stop-color="rgb(23.838806%, 43.263245%, 99.345398%)" offset="0.199219"/><stop stop-opacity="1" stop-color="rgb(24.281311%, 42.974854%, 99.330139%)" offset="0.203125"/><stop stop-opacity="1" stop-color="rgb(24.725342%, 42.684937%, 99.313354%)" offset="0.207031"/><stop stop-opacity="1" stop-color="rgb(25.167847%, 42.39502%, 99.29657%)" offset="0.210938"/><stop stop-opacity="1" stop-color="rgb(25.611877%, 42.105103%, 99.281311%)" offset="0.214844"/><stop stop-opacity="1" stop-color="rgb(26.054382%, 41.815186%, 99.264526%)" offset="0.21875"/><stop stop-opacity="1" stop-color="rgb(26.498413%, 41.526794%, 99.249268%)" offset="0.222656"/><stop stop-opacity="1" stop-color="rgb(26.940918%, 41.236877%, 99.232483%)" offset="0.226562"/><stop stop-opacity="1" stop-color="rgb(27.383423%, 40.94696%, 99.215698%)" offset="0.230469"/><stop stop-opacity="1" stop-color="rgb(27.827454%, 40.657043%, 99.200439%)" offset="0.234375"/><stop stop-opacity="1" stop-color="rgb(28.269958%, 40.368652%, 99.183655%)" offset="0.238281"/><stop stop-opacity="1" stop-color="rgb(28.713989%, 40.078735%, 99.168396%)" offset="0.242188"/><stop stop-opacity="1" stop-color="rgb(29.156494%, 39.788818%, 99.151611%)" offset="0.246094"/><stop stop-opacity="1" stop-color="rgb(29.600525%, 39.498901%, 99.134827%)" offset="0.25"/><stop stop-opacity="1" stop-color="rgb(30.04303%, 39.208984%, 99.119568%)" offset="0.253906"/><stop stop-opacity="1" stop-color="rgb(30.485535%, 38.920593%, 99.102783%)" offset="0.257812"/><stop stop-opacity="1" stop-color="rgb(30.929565%, 38.630676%, 99.087524%)" offset="0.261719"/><stop stop-opacity="1" stop-color="rgb(31.37207%, 38.340759%, 99.07074%)" offset="0.265625"/><stop stop-opacity="1" stop-color="rgb(31.816101%, 38.050842%, 99.053955%)" offset="0.269531"/><stop stop-opacity="1" stop-color="rgb(32.258606%, 37.760925%, 99.038696%)" offset="0.273438"/><stop stop-opacity="1" stop-color="rgb(32.702637%, 37.472534%, 99.021912%)" offset="0.277344"/><stop stop-opacity="1" stop-color="rgb(33.145142%, 37.182617%, 99.006653%)" offset="0.28125"/><stop stop-opacity="1" stop-color="rgb(33.587646%, 36.8927%, 98.989868%)" offset="0.285156"/><stop stop-opacity="1" stop-color="rgb(34.031677%, 36.602783%, 98.974609%)" offset="0.289062"/><stop stop-opacity="1" stop-color="rgb(34.474182%, 36.312866%, 98.957825%)" offset="0.292969"/><stop stop-opacity="1" stop-color="rgb(34.918213%, 36.024475%, 98.94104%)" offset="0.296875"/><stop stop-opacity="1" stop-color="rgb(35.360718%, 35.734558%, 98.925781%)" offset="0.300781"/><stop stop-opacity="1" stop-color="rgb(35.804749%, 35.444641%, 98.908997%)" offset="0.304688"/><stop stop-opacity="1" stop-color="rgb(36.247253%, 35.154724%, 98.893738%)" offset="0.308594"/><stop stop-opacity="1" stop-color="rgb(36.689758%, 34.864807%, 98.876953%)" offset="0.3125"/><stop stop-opacity="1" stop-color="rgb(37.133789%, 34.576416%, 98.860168%)" offset="0.316406"/><stop stop-opacity="1" stop-color="rgb(37.576294%, 34.286499%, 98.84491%)" offset="0.320312"/><stop stop-opacity="1" stop-color="rgb(38.020325%, 33.996582%, 98.828125%)" offset="0.324219"/><stop stop-opacity="1" stop-color="rgb(38.46283%, 33.706665%, 98.812866%)" offset="0.328125"/><stop stop-opacity="1" stop-color="rgb(38.90686%, 33.416748%, 98.796082%)" offset="0.332031"/><stop stop-opacity="1" stop-color="rgb(39.349365%, 33.128357%, 98.779297%)" offset="0.335938"/><stop stop-opacity="1" stop-color="rgb(39.79187%, 32.83844%, 98.764038%)" offset="0.339844"/><stop stop-opacity="1" stop-color="rgb(40.235901%, 32.548523%, 98.747253%)" offset="0.34375"/><stop stop-opacity="1" stop-color="rgb(40.678406%, 32.258606%, 98.731995%)" offset="0.347656"/><stop stop-opacity="1" stop-color="rgb(41.122437%, 31.970215%, 98.71521%)" offset="0.351562"/><stop stop-opacity="1" stop-color="rgb(41.564941%, 31.680298%, 98.698425%)" offset="0.355469"/><stop stop-opacity="1" stop-color="rgb(42.007446%, 31.390381%, 98.683167%)" offset="0.359375"/><stop stop-opacity="1" stop-color="rgb(42.451477%, 31.100464%, 98.666382%)" offset="0.363281"/><stop stop-opacity="1" stop-color="rgb(42.893982%, 30.810547%, 98.651123%)" offset="0.367188"/><stop stop-opacity="1" stop-color="rgb(43.338013%, 30.522156%, 98.634338%)" offset="0.371094"/><stop stop-opacity="1" stop-color="rgb(43.780518%, 30.232239%, 98.617554%)" offset="0.375"/><stop stop-opacity="1" stop-color="rgb(44.224548%, 29.942322%, 98.602295%)" offset="0.378906"/><stop stop-opacity="1" stop-color="rgb(44.667053%, 29.652405%, 98.58551%)" offset="0.382812"/><stop stop-opacity="1" stop-color="rgb(45.109558%, 29.362488%, 98.570251%)" offset="0.386719"/><stop stop-opacity="1" stop-color="rgb(45.553589%, 29.074097%, 98.553467%)" offset="0.390625"/><stop stop-opacity="1" stop-color="rgb(45.996094%, 28.78418%, 98.538208%)" offset="0.394531"/><stop stop-opacity="1" stop-color="rgb(46.440125%, 28.494263%, 98.521423%)" offset="0.398438"/><stop stop-opacity="1" stop-color="rgb(46.882629%, 28.204346%, 98.504639%)" offset="0.402344"/><stop stop-opacity="1" stop-color="rgb(47.32666%, 27.914429%, 98.48938%)" offset="0.40625"/><stop stop-opacity="1" stop-color="rgb(47.769165%, 27.626038%, 98.472595%)" offset="0.410156"/><stop stop-opacity="1" stop-color="rgb(48.21167%, 27.336121%, 98.457336%)" offset="0.414062"/><stop stop-opacity="1" stop-color="rgb(48.655701%, 27.046204%, 98.440552%)" offset="0.417969"/><stop stop-opacity="1" stop-color="rgb(49.098206%, 26.756287%, 98.423767%)" offset="0.421875"/><stop stop-opacity="1" stop-color="rgb(49.542236%, 26.46637%, 98.408508%)" offset="0.425781"/><stop stop-opacity="1" stop-color="rgb(49.958801%, 26.190186%, 98.394775%)" offset="0.429688"/><stop stop-opacity="1" stop-color="rgb(50.349426%, 25.927734%, 98.382568%)" offset="0.433594"/><stop stop-opacity="1" stop-color="rgb(50.737%, 25.666809%, 98.370361%)" offset="0.4375"/><stop stop-opacity="1" stop-color="rgb(51.124573%, 25.404358%, 98.358154%)" offset="0.441406"/><stop stop-opacity="1" stop-color="rgb(51.512146%, 25.143433%, 98.345947%)" offset="0.445312"/><stop stop-opacity="1" stop-color="rgb(51.899719%, 24.882507%, 98.33374%)" offset="0.449219"/><stop stop-opacity="1" stop-color="rgb(52.287292%, 24.620056%, 98.321533%)" offset="0.453125"/><stop stop-opacity="1" stop-color="rgb(52.674866%, 24.359131%, 98.309326%)" offset="0.457031"/><stop stop-opacity="1" stop-color="rgb(53.062439%, 24.098206%, 98.298645%)" offset="0.460938"/><stop stop-opacity="1" stop-color="rgb(53.450012%, 23.835754%, 98.286438%)" offset="0.464844"/><stop stop-opacity="1" stop-color="rgb(53.837585%, 23.574829%, 98.274231%)" offset="0.46875"/><stop stop-opacity="1" stop-color="rgb(54.225159%, 23.313904%, 98.262024%)" offset="0.472656"/><stop stop-opacity="1" stop-color="rgb(54.612732%, 23.051453%, 98.249817%)" offset="0.476562"/><stop stop-opacity="1" stop-color="rgb(55.001831%, 22.790527%, 98.23761%)" offset="0.480469"/><stop stop-opacity="1" stop-color="rgb(55.389404%, 22.529602%, 98.225403%)" offset="0.484375"/><stop stop-opacity="1" stop-color="rgb(55.776978%, 22.267151%, 98.213196%)" offset="0.488281"/><stop stop-opacity="1" stop-color="rgb(56.164551%, 22.006226%, 98.202515%)" offset="0.492188"/><stop stop-opacity="1" stop-color="rgb(56.552124%, 21.7453%, 98.190308%)" offset="0.496094"/><stop stop-opacity="1" stop-color="rgb(56.939697%, 21.482849%, 98.178101%)" offset="0.5"/><stop stop-opacity="1" stop-color="rgb(57.327271%, 21.221924%, 98.165894%)" offset="0.503906"/><stop stop-opacity="1" stop-color="rgb(57.714844%, 20.960999%, 98.153687%)" offset="0.507812"/><stop stop-opacity="1" stop-color="rgb(58.102417%, 20.698547%, 98.141479%)" offset="0.511719"/><stop stop-opacity="1" stop-color="rgb(58.48999%, 20.437622%, 98.129272%)" offset="0.515625"/><stop stop-opacity="1" stop-color="rgb(58.877563%, 20.176697%, 98.117065%)" offset="0.519531"/><stop stop-opacity="1" stop-color="rgb(59.265137%, 19.914246%, 98.106384%)" offset="0.523438"/><stop stop-opacity="1" stop-color="rgb(59.65271%, 19.65332%, 98.094177%)" offset="0.527344"/><stop stop-opacity="1" stop-color="rgb(60.040283%, 19.392395%, 98.08197%)" offset="0.53125"/><stop stop-opacity="1" stop-color="rgb(60.427856%, 19.129944%, 98.069763%)" offset="0.535156"/><stop stop-opacity="1" stop-color="rgb(60.81543%, 18.869019%, 98.057556%)" offset="0.539062"/><stop stop-opacity="1" stop-color="rgb(61.203003%, 18.608093%, 98.045349%)" offset="0.542969"/><stop stop-opacity="1" stop-color="rgb(61.590576%, 18.345642%, 98.033142%)" offset="0.546875"/><stop stop-opacity="1" stop-color="rgb(61.978149%, 18.084717%, 98.020935%)" offset="0.550781"/><stop stop-opacity="1" stop-color="rgb(62.365723%, 17.823792%, 98.008728%)" offset="0.554688"/><stop stop-opacity="1" stop-color="rgb(62.75177%, 17.684937%, 97.839355%)" offset="0.558594"/><stop stop-opacity="1" stop-color="rgb(63.137817%, 17.738342%, 97.424316%)" offset="0.5625"/><stop stop-opacity="1" stop-color="rgb(63.522339%, 17.861938%, 96.920776%)" offset="0.566406"/><stop stop-opacity="1" stop-color="rgb(63.90686%, 17.985535%, 96.417236%)" offset="0.570312"/><stop stop-opacity="1" stop-color="rgb(64.291382%, 18.107605%, 95.91217%)" offset="0.574219"/><stop stop-opacity="1" stop-color="rgb(64.677429%, 18.231201%, 95.40863%)" offset="0.578125"/><stop stop-opacity="1" stop-color="rgb(65.061951%, 18.354797%, 94.90509%)" offset="0.582031"/><stop stop-opacity="1" stop-color="rgb(65.446472%, 18.476868%, 94.40155%)" offset="0.585938"/><stop stop-opacity="1" stop-color="rgb(65.830994%, 18.600464%, 93.89801%)" offset="0.589844"/><stop stop-opacity="1" stop-color="rgb(66.215515%, 18.72406%, 93.392944%)" offset="0.59375"/><stop stop-opacity="1" stop-color="rgb(66.600037%, 18.84613%, 92.889404%)" offset="0.597656"/><stop stop-opacity="1" stop-color="rgb(66.986084%, 18.969727%, 92.385864%)" offset="0.601562"/><stop stop-opacity="1" stop-color="rgb(67.370605%, 19.091797%, 91.882324%)" offset="0.605469"/><stop stop-opacity="1" stop-color="rgb(67.755127%, 19.215393%, 91.377258%)" offset="0.609375"/><stop stop-opacity="1" stop-color="rgb(68.139648%, 19.338989%, 90.873718%)" offset="0.613281"/><stop stop-opacity="1" stop-color="rgb(68.52417%, 19.46106%, 90.370178%)" offset="0.617188"/><stop stop-opacity="1" stop-color="rgb(68.908691%, 19.584656%, 89.866638%)" offset="0.621094"/><stop stop-opacity="1" stop-color="rgb(69.294739%, 19.708252%, 89.361572%)" offset="0.625"/><stop stop-opacity="1" stop-color="rgb(69.67926%, 19.830322%, 88.858032%)" offset="0.628906"/><stop stop-opacity="1" stop-color="rgb(70.063782%, 19.953918%, 88.354492%)" offset="0.632812"/><stop stop-opacity="1" stop-color="rgb(70.448303%, 20.077515%, 87.850952%)" offset="0.636719"/><stop stop-opacity="1" stop-color="rgb(70.832825%, 20.199585%, 87.345886%)" offset="0.640625"/><stop stop-opacity="1" stop-color="rgb(71.217346%, 20.323181%, 86.842346%)" offset="0.644531"/><stop stop-opacity="1" stop-color="rgb(71.601868%, 20.446777%, 86.338806%)" offset="0.648438"/><stop stop-opacity="1" stop-color="rgb(71.987915%, 20.568848%, 85.835266%)" offset="0.652344"/><stop stop-opacity="1" stop-color="rgb(72.372437%, 20.692444%, 85.3302%)" offset="0.65625"/><stop stop-opacity="1" stop-color="rgb(72.756958%, 20.814514%, 84.82666%)" offset="0.660156"/><stop stop-opacity="1" stop-color="rgb(73.141479%, 20.93811%, 84.32312%)" offset="0.664062"/><stop stop-opacity="1" stop-color="rgb(73.526001%, 21.061707%, 83.81958%)" offset="0.667969"/><stop stop-opacity="1" stop-color="rgb(73.910522%, 21.183777%, 83.314514%)" offset="0.671875"/><stop stop-opacity="1" stop-color="rgb(74.29657%, 21.307373%, 82.810974%)" offset="0.675781"/><stop stop-opacity="1" stop-color="rgb(74.681091%, 21.430969%, 82.307434%)" offset="0.679688"/><stop stop-opacity="1" stop-color="rgb(75.065613%, 21.55304%, 81.803894%)" offset="0.683594"/><stop stop-opacity="1" stop-color="rgb(75.450134%, 21.676636%, 81.300354%)" offset="0.6875"/><stop stop-opacity="1" stop-color="rgb(75.834656%, 21.800232%, 80.795288%)" offset="0.691406"/><stop stop-opacity="1" stop-color="rgb(76.219177%, 21.922302%, 80.291748%)" offset="0.695312"/><stop stop-opacity="1" stop-color="rgb(76.605225%, 22.045898%, 79.788208%)" offset="0.699219"/><stop stop-opacity="1" stop-color="rgb(76.989746%, 22.167969%, 79.284668%)" offset="0.703125"/><stop stop-opacity="1" stop-color="rgb(77.374268%, 22.291565%, 78.779602%)" offset="0.707031"/><stop stop-opacity="1" stop-color="rgb(77.758789%, 22.415161%, 78.276062%)" offset="0.710938"/><stop stop-opacity="1" stop-color="rgb(78.143311%, 22.537231%, 77.772522%)" offset="0.714844"/><stop stop-opacity="1" stop-color="rgb(78.527832%, 22.660828%, 77.268982%)" offset="0.71875"/><stop stop-opacity="1" stop-color="rgb(78.913879%, 22.784424%, 76.763916%)" offset="0.722656"/><stop stop-opacity="1" stop-color="rgb(79.298401%, 22.906494%, 76.260376%)" offset="0.726562"/><stop stop-opacity="1" stop-color="rgb(79.682922%, 23.03009%, 75.756836%)" offset="0.730469"/><stop stop-opacity="1" stop-color="rgb(80.067444%, 23.153687%, 75.253296%)" offset="0.734375"/><stop stop-opacity="1" stop-color="rgb(80.451965%, 23.275757%, 74.74823%)" offset="0.738281"/><stop stop-opacity="1" stop-color="rgb(80.836487%, 23.399353%, 74.24469%)" offset="0.742188"/><stop stop-opacity="1" stop-color="rgb(81.221008%, 23.522949%, 73.74115%)" offset="0.746094"/><stop stop-opacity="1" stop-color="rgb(81.607056%, 23.64502%, 73.23761%)" offset="0.75"/><stop stop-opacity="1" stop-color="rgb(81.991577%, 23.768616%, 72.732544%)" offset="0.753906"/><stop stop-opacity="1" stop-color="rgb(82.380676%, 23.892212%, 72.2229%)" offset="0.757812"/><stop stop-opacity="1" stop-color="rgb(82.778931%, 24.017334%, 71.697998%)" offset="0.761719"/><stop stop-opacity="1" stop-color="rgb(83.183289%, 24.143982%, 71.16394%)" offset="0.765625"/><stop stop-opacity="1" stop-color="rgb(83.587646%, 24.27063%, 70.631409%)" offset="0.769531"/><stop stop-opacity="1" stop-color="rgb(83.992004%, 24.397278%, 70.098877%)" offset="0.773438"/><stop stop-opacity="1" stop-color="rgb(84.396362%, 24.5224%, 69.564819%)" offset="0.777344"/><stop stop-opacity="1" stop-color="rgb(84.80072%, 24.649048%, 69.032288%)" offset="0.78125"/><stop stop-opacity="1" stop-color="rgb(85.205078%, 24.775696%, 68.499756%)" offset="0.785156"/><stop stop-opacity="1" stop-color="rgb(85.609436%, 24.902344%, 67.965698%)" offset="0.789062"/><stop stop-opacity="1" stop-color="rgb(86.013794%, 25.028992%, 67.433167%)" offset="0.792969"/><stop stop-opacity="1" stop-color="rgb(86.418152%, 25.154114%, 66.899109%)" offset="0.796875"/><stop stop-opacity="1" stop-color="rgb(86.82251%, 25.280762%, 66.366577%)" offset="0.800781"/><stop stop-opacity="1" stop-color="rgb(87.226868%, 25.40741%, 65.834045%)" offset="0.804688"/><stop stop-opacity="1" stop-color="rgb(87.631226%, 25.534058%, 65.299988%)" offset="0.808594"/><stop stop-opacity="1" stop-color="rgb(88.035583%, 25.660706%, 64.767456%)" offset="0.8125"/><stop stop-opacity="1" stop-color="rgb(88.439941%, 25.787354%, 64.234924%)" offset="0.816406"/><stop stop-opacity="1" stop-color="rgb(88.844299%, 25.912476%, 63.700867%)" offset="0.820312"/><stop stop-opacity="1" stop-color="rgb(89.248657%, 26.039124%, 63.168335%)" offset="0.824219"/><stop stop-opacity="1" stop-color="rgb(89.653015%, 26.165771%, 62.635803%)" offset="0.828125"/><stop stop-opacity="1" stop-color="rgb(90.057373%, 26.292419%, 62.101746%)" offset="0.832031"/><stop stop-opacity="1" stop-color="rgb(90.461731%, 26.419067%, 61.569214%)" offset="0.835938"/><stop stop-opacity="1" stop-color="rgb(90.867615%, 26.545715%, 61.035156%)" offset="0.839844"/><stop stop-opacity="1" stop-color="rgb(91.271973%, 26.670837%, 60.502625%)" offset="0.84375"/><stop stop-opacity="1" stop-color="rgb(91.676331%, 26.797485%, 59.970093%)" offset="0.847656"/><stop stop-opacity="1" stop-color="rgb(92.080688%, 26.924133%, 59.436035%)" offset="0.851562"/><stop stop-opacity="1" stop-color="rgb(92.485046%, 27.050781%, 58.903503%)" offset="0.855469"/><stop stop-opacity="1" stop-color="rgb(92.889404%, 27.177429%, 58.370972%)" offset="0.859375"/><stop stop-opacity="1" stop-color="rgb(93.293762%, 27.302551%, 57.836914%)" offset="0.863281"/><stop stop-opacity="1" stop-color="rgb(93.69812%, 27.429199%, 57.304382%)" offset="0.867188"/><stop stop-opacity="1" stop-color="rgb(94.102478%, 27.555847%, 56.771851%)" offset="0.871094"/><stop stop-opacity="1" stop-color="rgb(94.506836%, 27.682495%, 56.237793%)" offset="0.875"/><stop stop-opacity="1" stop-color="rgb(94.911194%, 27.809143%, 55.705261%)" offset="0.878906"/><stop stop-opacity="1" stop-color="rgb(95.315552%, 27.935791%, 55.171204%)" offset="0.882812"/><stop stop-opacity="1" stop-color="rgb(95.71991%, 28.060913%, 54.638672%)" offset="0.886719"/><stop stop-opacity="1" stop-color="rgb(96.124268%, 28.187561%, 54.10614%)" offset="0.890625"/><stop stop-opacity="1" stop-color="rgb(96.528625%, 28.314209%, 53.572083%)" offset="0.894531"/><stop stop-opacity="1" stop-color="rgb(96.932983%, 28.440857%, 53.039551%)" offset="0.898438"/><stop stop-opacity="1" stop-color="rgb(97.337341%, 28.567505%, 52.507019%)" offset="0.902344"/><stop stop-opacity="1" stop-color="rgb(97.741699%, 28.694153%, 51.972961%)" offset="0.90625"/><stop stop-opacity="1" stop-color="rgb(98.146057%, 28.819275%, 51.44043%)" offset="0.910156"/><stop stop-opacity="1" stop-color="rgb(98.550415%, 28.945923%, 50.907898%)" offset="0.914062"/><stop stop-opacity="1" stop-color="rgb(98.954773%, 29.072571%, 50.37384%)" offset="0.917969"/><stop stop-opacity="1" stop-color="rgb(99.359131%, 29.199219%, 49.841309%)" offset="0.921875"/><stop stop-opacity="1" stop-color="rgb(99.763489%, 29.325867%, 49.307251%)" offset="0.925781"/><stop stop-opacity="1" stop-color="rgb(99.983215%, 29.795837%, 48.719788%)" offset="0.929688"/><stop stop-opacity="1" stop-color="rgb(100%, 30.6427%, 48.071289%)" offset="0.933594"/><stop stop-opacity="1" stop-color="rgb(100%, 31.518555%, 47.419739%)" offset="0.9375"/><stop stop-opacity="1" stop-color="rgb(100%, 32.395935%, 46.766663%)" offset="0.941406"/><stop stop-opacity="1" stop-color="rgb(100%, 33.27179%, 46.113586%)" offset="0.945312"/><stop stop-opacity="1" stop-color="rgb(100%, 34.147644%, 45.46051%)" offset="0.949219"/><stop stop-opacity="1" stop-color="rgb(100%, 35.023499%, 44.807434%)" offset="0.953125"/><stop stop-opacity="1" stop-color="rgb(100%, 35.899353%, 44.154358%)" offset="0.957031"/><stop stop-opacity="1" stop-color="rgb(100%, 36.776733%, 43.501282%)" offset="0.960938"/><stop stop-opacity="1" stop-color="rgb(100%, 37.652588%, 42.848206%)" offset="0.964844"/><stop stop-opacity="1" stop-color="rgb(100%, 38.528442%, 42.196655%)" offset="0.96875"/><stop stop-opacity="1" stop-color="rgb(100%, 39.404297%, 41.543579%)" offset="0.972656"/><stop stop-opacity="1" stop-color="rgb(100%, 40.280151%, 40.890503%)" offset="0.976562"/><stop stop-opacity="1" stop-color="rgb(100%, 41.156006%, 40.237427%)" offset="0.980469"/><stop stop-opacity="1" stop-color="rgb(100%, 42.033386%, 39.584351%)" offset="0.984375"/><stop stop-opacity="1" stop-color="rgb(100%, 42.909241%, 38.931274%)" offset="0.988281"/><stop stop-opacity="1" stop-color="rgb(100%, 43.785095%, 38.278198%)" offset="0.992188"/><stop stop-opacity="1" stop-color="rgb(100%, 44.66095%, 37.625122%)" offset="0.996094"/><stop stop-opacity="1" stop-color="rgb(100%, 45.098877%, 37.298584%)" offset="1"/></radialGradient><clipPath id="9896f4581d"><path d="M 15.335938 46.199219 L 47.203125 46.199219 L 47.203125 48.886719 L 15.335938 48.886719 Z M 15.335938 46.199219 " clip-rule="nonzero"/></clipPath></defs><g clip-path="url(#05d78e7965)"><g clip-path="url(#f0222bb634)"><path fill="#edeff0" d="M 11.808594 25.773438 L 88.003906 25.773438 L 88.003906 69.3125 L 11.808594 69.3125 Z M 11.808594 25.773438 " fill-opacity="1" fill-rule="nonzero"/></g></g><g clip-path="url(#e5b3cb034f)"><path fill="#e0e7ef" d="M 11.808594 22.539062 L 87.941406 22.539062 L 87.941406 30.054688 L 11.808594 30.054688 Z M 11.808594 22.539062 " fill-opacity="1" fill-rule="nonzero"/></g><g clip-path="url(#8845184d3a)"><g clip-path="url(#8d549f2288)"><path fill="#e0e7ef" d="M 11.808594 17.015625 L 87.917969 17.015625 L 87.917969 26.261719 L 11.808594 26.261719 Z M 11.808594 17.015625 " fill-opacity="1" fill-rule="nonzero"/></g></g><g clip-path="url(#fdc51ee03c)"><path fill="#e0e7ef" d="M 15.335938 36.15625 L 78.816406 36.15625 L 78.816406 38.84375 L 15.335938 38.84375 Z M 15.335938 36.15625 " fill-opacity="1" fill-rule="nonzero"/></g><g clip-path="url(#a7c5e0cda3)"><path fill="#e0e7ef" d="M 15.335938 40.894531 L 68.046875 40.894531 L 68.046875 43.582031 L 15.335938 43.582031 Z M 15.335938 40.894531 " fill-opacity="1" fill-rule="nonzero"/></g><g clip-path="url(#7582b32f16)"><path fill="#419fd9" d="M 40.140625 52.582031 C 40.582031 52.582031 41.023438 52.625 41.457031 52.710938 C 41.890625 52.796875 42.3125 52.925781 42.722656 53.097656 C 43.132812 53.265625 43.523438 53.472656 43.890625 53.71875 C 44.257812 53.964844 44.597656 54.246094 44.914062 54.558594 C 45.226562 54.871094 45.507812 55.214844 45.753906 55.582031 C 46 55.949219 46.207031 56.339844 46.375 56.75 C 46.546875 57.160156 46.671875 57.582031 46.761719 58.015625 C 46.847656 58.449219 46.890625 58.890625 46.890625 59.332031 C 46.890625 59.773438 46.847656 60.214844 46.761719 60.648438 C 46.671875 61.082031 46.546875 61.503906 46.375 61.914062 C 46.207031 62.324219 46 62.714844 45.753906 63.082031 C 45.507812 63.449219 45.226562 63.792969 44.914062 64.105469 C 44.597656 64.417969 44.257812 64.699219 43.890625 64.945312 C 43.523438 65.191406 43.132812 65.398438 42.722656 65.566406 C 42.3125 65.738281 41.890625 65.867188 41.457031 65.953125 C 41.023438 66.039062 40.582031 66.082031 40.140625 66.082031 C 39.695312 66.082031 39.257812 66.039062 38.824219 65.953125 C 38.386719 65.867188 37.964844 65.738281 37.558594 65.566406 C 37.148438 65.398438 36.757812 65.191406 36.390625 64.945312 C 36.019531 64.699219 35.679688 64.417969 35.367188 64.105469 C 35.054688 63.792969 34.773438 63.449219 34.527344 63.082031 C 34.28125 62.714844 34.074219 62.324219 33.902344 61.914062 C 33.734375 61.503906 33.605469 61.082031 33.519531 60.648438 C 33.433594 60.214844 33.390625 59.773438 33.390625 59.332031 C 33.390625 58.890625 33.433594 58.449219 33.519531 58.015625 C 33.605469 57.582031 33.734375 57.160156 33.902344 56.75 C 34.074219 56.339844 34.28125 55.949219 34.527344 55.582031 C 34.773438 55.214844 35.054688 54.871094 35.367188 54.558594 C 35.679688 54.246094 36.019531 53.964844 36.390625 53.71875 C 36.757812 53.472656 37.148438 53.265625 37.558594 53.097656 C 37.964844 52.925781 38.386719 52.796875 38.824219 52.710938 C 39.257812 52.625 39.695312 52.582031 40.140625 52.582031 Z M 40.140625 52.582031 " fill-opacity="1" fill-rule="nonzero"/></g><g clip-path="url(#1429fa7f95)"><g clip-path="url(#b58e45ed01)"><path fill="url(#033230eb3c)" d="M 33.390625 52.582031 L 33.390625 66.082031 L 46.890625 66.082031 L 46.890625 52.582031 Z M 33.390625 52.582031 " fill-rule="nonzero"/></g></g><path fill="#ffffff" d="M 36.425781 59.183594 C 38.386719 58.308594 39.695312 57.734375 40.351562 57.457031 C 42.21875 56.660156 42.609375 56.523438 42.863281 56.519531 C 42.917969 56.519531 43.042969 56.53125 43.125 56.597656 C 43.191406 56.65625 43.210938 56.730469 43.21875 56.785156 C 43.226562 56.839844 43.238281 56.960938 43.230469 57.054688 C 43.128906 58.144531 42.691406 60.78125 42.46875 62 C 42.375 62.515625 42.1875 62.6875 42.007812 62.703125 C 41.617188 62.742188 41.320312 62.441406 40.941406 62.1875 C 40.347656 61.789062 40.011719 61.542969 39.4375 61.15625 C 38.773438 60.707031 39.203125 60.460938 39.582031 60.0625 C 39.683594 59.957031 41.40625 58.355469 41.4375 58.210938 C 41.441406 58.191406 41.445312 58.125 41.40625 58.089844 C 41.367188 58.054688 41.308594 58.066406 41.269531 58.074219 C 41.207031 58.089844 40.261719 58.726562 38.425781 59.992188 C 38.160156 60.179688 37.914062 60.273438 37.699219 60.265625 C 37.457031 60.261719 36.996094 60.128906 36.652344 60.015625 C 36.230469 59.875 35.894531 59.800781 35.921875 59.5625 C 35.9375 59.4375 36.105469 59.3125 36.425781 59.183594 Z M 36.425781 59.183594 " fill-opacity="1" fill-rule="nonzero"/><g clip-path="url(#d36bb9bb91)"><g clip-path="url(#56457dffbf)"><path fill="#fffc00" d="M 15.335938 52.582031 L 29.148438 52.582031 L 29.148438 66.394531 L 15.335938 66.394531 Z M 15.335938 52.582031 " fill-opacity="1" fill-rule="nonzero"/></g></g><g clip-path="url(#73041cfd38)"><path fill="#fffc00" d="M 16.957031 61.953125 C 16.960938 62.1875 16.964844 62.421875 17.003906 62.652344 C 17.046875 62.898438 17.105469 63.136719 17.21875 63.359375 C 17.371094 63.660156 17.582031 63.914062 17.851562 64.121094 C 18.039062 64.273438 18.25 64.390625 18.480469 64.464844 C 18.816406 64.574219 19.164062 64.613281 19.519531 64.617188 C 19.738281 64.617188 19.957031 64.625 20.179688 64.621094 C 21.777344 64.617188 23.378906 64.632812 24.976562 64.613281 C 25.191406 64.609375 25.398438 64.585938 25.605469 64.546875 C 26.007812 64.472656 26.359375 64.304688 26.660156 64.035156 C 27.011719 63.71875 27.25 63.335938 27.359375 62.871094 C 27.425781 62.570312 27.445312 62.261719 27.449219 61.953125 L 27.449219 61.890625 C 27.449219 61.867188 27.4375 56.648438 27.4375 56.582031 C 27.4375 56.390625 27.421875 56.203125 27.386719 56.015625 C 27.34375 55.789062 27.28125 55.570312 27.171875 55.363281 C 27.058594 55.144531 26.914062 54.953125 26.738281 54.78125 C 26.464844 54.519531 26.148438 54.335938 25.785156 54.238281 C 25.453125 54.148438 25.117188 54.128906 24.777344 54.128906 C 24.773438 54.128906 24.773438 54.125 24.773438 54.125 L 19.628906 54.125 C 19.628906 54.125 19.628906 54.128906 19.628906 54.128906 C 19.4375 54.132812 19.242188 54.132812 19.050781 54.15625 C 18.839844 54.179688 18.632812 54.21875 18.433594 54.292969 C 18.121094 54.410156 17.847656 54.589844 17.613281 54.832031 C 17.351562 55.105469 17.164062 55.421875 17.066406 55.789062 C 16.980469 56.117188 16.960938 56.453125 16.960938 56.789062 " fill-opacity="1" fill-rule="nonzero"/></g><path fill="#ffffff" d="M 22.25 62.984375 C 22.226562 62.984375 22.207031 62.980469 22.191406 62.980469 C 22.179688 62.984375 22.164062 62.984375 22.152344 62.984375 C 21.695312 62.984375 21.390625 62.765625 21.117188 62.574219 C 20.925781 62.4375 20.742188 62.308594 20.527344 62.273438 C 20.425781 62.257812 20.320312 62.246094 20.21875 62.246094 C 20.035156 62.246094 19.894531 62.277344 19.789062 62.296875 C 19.722656 62.308594 19.667969 62.320312 19.625 62.320312 C 19.578125 62.320312 19.523438 62.308594 19.5 62.230469 C 19.484375 62.171875 19.46875 62.109375 19.457031 62.054688 C 19.425781 61.910156 19.402344 61.824219 19.351562 61.8125 C 18.777344 61.726562 18.4375 61.59375 18.371094 61.4375 C 18.363281 61.421875 18.359375 61.40625 18.355469 61.386719 C 18.355469 61.332031 18.378906 61.300781 18.433594 61.292969 C 18.890625 61.214844 19.296875 60.976562 19.640625 60.574219 C 19.90625 60.265625 20.035156 59.96875 20.050781 59.9375 C 20.050781 59.933594 20.050781 59.933594 20.050781 59.929688 C 20.117188 59.796875 20.132812 59.679688 20.09375 59.585938 C 20.019531 59.410156 19.773438 59.335938 19.609375 59.28125 C 19.570312 59.269531 19.53125 59.257812 19.503906 59.246094 C 19.359375 59.1875 19.121094 59.070312 19.152344 58.902344 C 19.175781 58.78125 19.335938 58.699219 19.464844 58.699219 C 19.5 58.699219 19.53125 58.703125 19.558594 58.71875 C 19.707031 58.785156 19.835938 58.820312 19.949219 58.820312 C 20.089844 58.820312 20.15625 58.765625 20.171875 58.75 C 20.167969 58.675781 20.164062 58.597656 20.160156 58.523438 C 20.125 58 20.085938 57.347656 20.253906 56.972656 C 20.75 55.851562 21.808594 55.765625 22.121094 55.765625 C 22.175781 55.765625 22.226562 55.765625 22.277344 55.765625 C 22.589844 55.765625 23.652344 55.851562 24.152344 56.972656 C 24.316406 57.347656 24.277344 58 24.242188 58.523438 L 24.242188 58.546875 C 24.238281 58.617188 24.234375 58.6875 24.230469 58.75 C 24.246094 58.765625 24.308594 58.816406 24.433594 58.820312 C 24.539062 58.816406 24.664062 58.78125 24.800781 58.71875 C 24.84375 58.699219 24.890625 58.695312 24.921875 58.695312 C 24.96875 58.695312 25.015625 58.703125 25.058594 58.71875 L 25.058594 58.722656 C 25.175781 58.761719 25.25 58.84375 25.253906 58.929688 C 25.253906 59.011719 25.195312 59.128906 24.902344 59.246094 C 24.871094 59.257812 24.832031 59.269531 24.792969 59.28125 C 24.628906 59.335938 24.386719 59.410156 24.3125 59.585938 C 24.269531 59.679688 24.285156 59.796875 24.351562 59.929688 C 24.351562 59.933594 24.351562 59.933594 24.351562 59.9375 C 24.371094 59.984375 24.867188 61.109375 25.96875 61.292969 C 26.023438 61.300781 26.046875 61.332031 26.046875 61.386719 C 26.042969 61.40625 26.039062 61.421875 26.035156 61.4375 C 25.964844 61.59375 25.628906 61.726562 25.050781 61.8125 C 25 61.820312 24.976562 61.910156 24.945312 62.050781 C 24.933594 62.109375 24.917969 62.167969 24.902344 62.230469 C 24.882812 62.285156 24.847656 62.3125 24.789062 62.3125 L 24.777344 62.3125 C 24.738281 62.3125 24.683594 62.308594 24.617188 62.292969 C 24.492188 62.269531 24.359375 62.246094 24.183594 62.246094 C 24.082031 62.246094 23.980469 62.257812 23.875 62.273438 C 23.660156 62.308594 23.476562 62.4375 23.285156 62.574219 C 23.015625 62.765625 22.707031 62.984375 22.25 62.984375 " fill-opacity="1" fill-rule="nonzero"/><path fill="#020202" d="M 22.277344 55.855469 C 22.570312 55.855469 23.585938 55.9375 24.066406 57.007812 C 24.222656 57.363281 24.183594 58.003906 24.152344 58.515625 C 24.144531 58.597656 24.140625 58.675781 24.136719 58.753906 L 24.136719 58.785156 L 24.15625 58.808594 C 24.164062 58.820312 24.246094 58.90625 24.429688 58.910156 L 24.433594 58.914062 L 24.4375 58.914062 C 24.554688 58.90625 24.691406 58.871094 24.839844 58.800781 C 24.859375 58.789062 24.890625 58.785156 24.921875 58.785156 C 24.957031 58.785156 24.992188 58.792969 25.023438 58.804688 L 25.027344 58.808594 C 25.105469 58.835938 25.160156 58.886719 25.160156 58.929688 C 25.160156 58.957031 25.140625 59.050781 24.867188 59.160156 C 24.839844 59.171875 24.804688 59.183594 24.765625 59.195312 C 24.585938 59.25 24.316406 59.335938 24.226562 59.550781 C 24.175781 59.671875 24.1875 59.8125 24.265625 59.972656 C 24.300781 60.046875 24.808594 61.195312 25.953125 61.382812 C 25.953125 61.386719 25.953125 61.394531 25.949219 61.402344 C 25.929688 61.445312 25.804688 61.605469 25.039062 61.722656 C 24.917969 61.742188 24.890625 61.875 24.855469 62.03125 C 24.84375 62.089844 24.832031 62.144531 24.8125 62.203125 C 24.808594 62.21875 24.804688 62.222656 24.789062 62.222656 L 24.777344 62.222656 C 24.746094 62.222656 24.691406 62.214844 24.632812 62.203125 C 24.523438 62.179688 24.375 62.15625 24.183594 62.15625 C 24.078125 62.15625 23.96875 62.164062 23.859375 62.183594 C 23.625 62.222656 23.433594 62.355469 23.230469 62.5 C 22.960938 62.691406 22.679688 62.890625 22.25 62.890625 C 22.230469 62.890625 22.214844 62.890625 22.195312 62.890625 L 22.183594 62.890625 C 22.175781 62.890625 22.164062 62.890625 22.152344 62.890625 C 21.726562 62.890625 21.445312 62.691406 21.171875 62.5 C 20.96875 62.355469 20.777344 62.222656 20.542969 62.183594 C 20.433594 62.164062 20.324219 62.15625 20.21875 62.15625 C 20.027344 62.15625 19.878906 62.183594 19.769531 62.207031 C 19.710938 62.21875 19.660156 62.226562 19.625 62.226562 C 19.597656 62.226562 19.597656 62.226562 19.589844 62.207031 C 19.574219 62.148438 19.5625 62.089844 19.546875 62.035156 C 19.515625 61.878906 19.484375 61.742188 19.363281 61.722656 C 18.597656 61.605469 18.472656 61.445312 18.453125 61.402344 C 18.453125 61.394531 18.449219 61.390625 18.449219 61.382812 C 19.59375 61.195312 20.101562 60.046875 20.136719 59.972656 C 20.214844 59.8125 20.226562 59.671875 20.175781 59.550781 C 20.085938 59.335938 19.816406 59.25 19.640625 59.195312 C 19.597656 59.183594 19.5625 59.171875 19.535156 59.160156 C 19.304688 59.070312 19.234375 58.976562 19.246094 58.921875 C 19.257812 58.855469 19.367188 58.789062 19.464844 58.789062 C 19.488281 58.789062 19.507812 58.792969 19.519531 58.800781 C 19.679688 58.875 19.824219 58.914062 19.949219 58.914062 C 20.148438 58.914062 20.238281 58.820312 20.246094 58.808594 L 20.269531 58.785156 L 20.265625 58.753906 C 20.261719 58.675781 20.257812 58.597656 20.253906 58.515625 C 20.21875 58.003906 20.179688 57.363281 20.335938 57.011719 C 20.8125 55.941406 21.824219 55.859375 22.121094 55.859375 C 22.128906 55.859375 22.257812 55.855469 22.257812 55.855469 C 22.265625 55.855469 22.269531 55.855469 22.277344 55.855469 M 22.277344 55.671875 C 22.269531 55.671875 22.261719 55.671875 22.257812 55.671875 L 22.121094 55.675781 C 21.949219 55.675781 21.597656 55.699219 21.222656 55.863281 C 21.007812 55.960938 20.8125 56.085938 20.648438 56.246094 C 20.449219 56.433594 20.289062 56.664062 20.167969 56.933594 C 19.992188 57.328125 20.035156 57.992188 20.066406 58.527344 C 20.070312 58.585938 20.074219 58.644531 20.078125 58.703125 C 20.050781 58.714844 20.011719 58.726562 19.949219 58.726562 C 19.851562 58.726562 19.730469 58.695312 19.597656 58.632812 C 19.558594 58.617188 19.515625 58.605469 19.464844 58.605469 C 19.386719 58.605469 19.300781 58.628906 19.230469 58.671875 C 19.136719 58.726562 19.078125 58.800781 19.0625 58.886719 C 19.050781 58.941406 19.050781 59.050781 19.175781 59.164062 C 19.242188 59.222656 19.339844 59.28125 19.46875 59.332031 C 19.5 59.34375 19.542969 59.355469 19.582031 59.371094 C 19.730469 59.417969 19.949219 59.488281 20.007812 59.621094 C 20.035156 59.691406 20.023438 59.78125 19.96875 59.890625 C 19.96875 59.894531 19.96875 59.894531 19.964844 59.898438 C 19.953125 59.929688 19.828125 60.214844 19.570312 60.515625 C 19.421875 60.683594 19.261719 60.828125 19.089844 60.9375 C 18.882812 61.074219 18.65625 61.160156 18.417969 61.199219 C 18.308594 61.21875 18.257812 61.28125 18.265625 61.394531 C 18.265625 61.417969 18.273438 61.445312 18.285156 61.472656 C 18.320312 61.5625 18.410156 61.636719 18.550781 61.703125 C 18.722656 61.78125 18.984375 61.851562 19.320312 61.902344 C 19.339844 61.933594 19.355469 62.015625 19.367188 62.074219 C 19.378906 62.132812 19.394531 62.191406 19.414062 62.257812 C 19.433594 62.328125 19.488281 62.410156 19.625 62.410156 C 19.675781 62.410156 19.734375 62.398438 19.804688 62.386719 C 19.90625 62.367188 20.046875 62.339844 20.21875 62.339844 C 20.3125 62.339844 20.414062 62.347656 20.515625 62.363281 C 20.707031 62.398438 20.875 62.515625 21.066406 62.652344 C 21.347656 62.851562 21.664062 63.074219 22.152344 63.074219 C 22.167969 63.074219 22.179688 63.074219 22.191406 63.074219 C 22.207031 63.074219 22.230469 63.074219 22.25 63.074219 C 22.738281 63.074219 23.054688 62.851562 23.335938 62.652344 L 23.335938 62.648438 C 23.53125 62.515625 23.695312 62.398438 23.890625 62.363281 C 23.988281 62.347656 24.089844 62.339844 24.183594 62.339844 C 24.351562 62.339844 24.480469 62.359375 24.597656 62.382812 C 24.671875 62.398438 24.734375 62.40625 24.777344 62.40625 L 24.789062 62.40625 C 24.886719 62.40625 24.960938 62.351562 24.988281 62.253906 C 25.007812 62.191406 25.023438 62.132812 25.035156 62.070312 C 25.046875 62.019531 25.066406 61.933594 25.082031 61.902344 C 25.417969 61.847656 25.679688 61.78125 25.851562 61.703125 C 25.992188 61.636719 26.082031 61.5625 26.117188 61.472656 C 26.128906 61.449219 26.136719 61.421875 26.136719 61.390625 C 26.144531 61.28125 26.09375 61.21875 25.984375 61.199219 C 24.929688 61.027344 24.457031 59.945312 24.4375 59.898438 C 24.4375 59.894531 24.433594 59.894531 24.433594 59.890625 C 24.378906 59.78125 24.367188 59.691406 24.394531 59.621094 C 24.453125 59.488281 24.671875 59.417969 24.820312 59.371094 C 24.863281 59.355469 24.902344 59.34375 24.933594 59.332031 C 25.078125 59.273438 25.179688 59.214844 25.25 59.144531 C 25.328125 59.058594 25.34375 58.980469 25.34375 58.929688 C 25.34375 58.800781 25.246094 58.6875 25.089844 58.632812 C 25.039062 58.613281 24.980469 58.601562 24.921875 58.601562 C 24.878906 58.601562 24.820312 58.605469 24.761719 58.632812 C 24.636719 58.691406 24.527344 58.722656 24.433594 58.726562 C 24.382812 58.726562 24.347656 58.714844 24.324219 58.703125 C 24.328125 58.65625 24.332031 58.605469 24.332031 58.550781 L 24.335938 58.527344 C 24.367188 57.992188 24.410156 57.328125 24.234375 56.933594 C 24.113281 56.664062 23.953125 56.429688 23.753906 56.242188 C 23.585938 56.085938 23.390625 55.957031 23.175781 55.863281 C 22.800781 55.699219 22.453125 55.671875 22.277344 55.671875 " fill-opacity="1" fill-rule="nonzero"/><g clip-path="url(#8df977dd62)"><g clip-path="url(#f0422a73af)"><path fill="#49e670" d="M 69.3125 52.582031 L 82.941406 52.582031 L 82.941406 66.210938 L 69.3125 66.210938 Z M 69.3125 52.582031 " fill-opacity="1" fill-rule="nonzero"/></g></g><g clip-path="url(#9ae935e109)"><path fill="#ffffff" d="M 77.757812 60.101562 C 77.683594 60.066406 77.222656 59.855469 77.152344 59.820312 C 77.082031 59.785156 77.011719 59.785156 76.941406 59.855469 C 76.871094 59.925781 76.726562 60.136719 76.65625 60.210938 C 76.621094 60.28125 76.550781 60.28125 76.480469 60.246094 C 76.230469 60.136719 75.984375 59.996094 75.769531 59.820312 C 75.59375 59.640625 75.417969 59.429688 75.273438 59.214844 C 75.238281 59.144531 75.273438 59.074219 75.308594 59.039062 C 75.34375 59.003906 75.378906 58.933594 75.453125 58.898438 C 75.488281 58.863281 75.523438 58.792969 75.523438 58.757812 C 75.558594 58.71875 75.558594 58.648438 75.523438 58.613281 C 75.488281 58.578125 75.308594 58.152344 75.238281 57.976562 C 75.203125 57.726562 75.132812 57.726562 75.0625 57.726562 L 74.882812 57.726562 C 74.8125 57.726562 74.707031 57.796875 74.671875 57.835938 C 74.460938 58.046875 74.351562 58.296875 74.351562 58.578125 C 74.386719 58.898438 74.496094 59.214844 74.707031 59.5 C 75.097656 60.066406 75.59375 60.527344 76.195312 60.8125 C 76.375 60.882812 76.515625 60.953125 76.691406 60.988281 C 76.871094 61.058594 77.046875 61.058594 77.257812 61.023438 C 77.507812 60.988281 77.71875 60.8125 77.863281 60.597656 C 77.933594 60.457031 77.933594 60.316406 77.898438 60.175781 L 77.757812 60.101562 M 78.640625 56.878906 C 77.257812 55.496094 75.027344 55.496094 73.644531 56.878906 C 72.507812 58.011719 72.296875 59.75 73.078125 61.132812 L 72.582031 62.9375 L 74.460938 62.441406 C 74.992188 62.726562 75.558594 62.867188 76.125 62.867188 C 78.074219 62.867188 79.632812 61.308594 79.632812 59.359375 C 79.671875 58.4375 79.28125 57.550781 78.640625 56.878906 M 77.683594 61.839844 C 77.222656 62.125 76.691406 62.300781 76.125 62.300781 C 75.59375 62.300781 75.097656 62.160156 74.636719 61.910156 L 74.53125 61.839844 L 73.429688 62.125 L 73.714844 61.058594 L 73.644531 60.953125 C 72.792969 59.535156 73.21875 57.761719 74.601562 56.878906 C 75.984375 55.992188 77.757812 56.453125 78.605469 57.796875 C 79.457031 59.179688 79.066406 60.988281 77.683594 61.839844 " fill-opacity="1" fill-rule="nonzero"/></g><g clip-path="url(#e491fbaba7)"><g clip-path="url(#e1eb49d110)"><path fill="url(#73ba1355f9)" d="M 51.410156 52.769531 L 51.410156 66.339844 L 64.746094 66.339844 L 64.746094 52.769531 Z M 51.410156 52.769531 " fill-rule="nonzero"/></g></g><g clip-path="url(#9896f4581d)"><path fill="#e0e7ef" d="M 15.335938 46.199219 L 47.207031 46.199219 L 47.207031 48.886719 L 15.335938 48.886719 Z M 15.335938 46.199219 " fill-opacity="1" fill-rule="nonzero"/></g><path fill="#e0e7ef" d="M 80 88.941406 C 75.785156 88.941406 72.371094 85.523438 72.371094 81.308594 C 72.371094 77.09375 75.785156 73.679688 80 73.679688 L 87.632812 73.679688 L 87.632812 81.308594 C 87.632812 85.523438 84.214844 88.941406 80 88.941406 Z M 80 88.941406 " fill-opacity="1" fill-rule="nonzero"/><path fill="#ffffff" d="M 85.445312 81.035156 C 85.445312 81.878906 85.097656 82.652344 84.539062 83.210938 C 83.992188 83.765625 83.21875 84.113281 82.375 84.113281 L 77.527344 84.113281 C 77.394531 84.113281 77.273438 84.105469 77.152344 84.085938 L 75.804688 84.972656 L 75.777344 83.5625 C 74.976562 83.011719 74.449219 82.085938 74.449219 81.035156 C 74.449219 79.980469 74.792969 79.417969 75.351562 78.867188 C 75.910156 78.308594 76.679688 77.964844 77.527344 77.964844 L 82.371094 77.964844 C 84.0625 77.964844 85.441406 79.34375 85.441406 81.035156 Z M 85.445312 81.035156 " fill-opacity="1" fill-rule="nonzero"/><path fill="#e0e7ef" d="M 82.800781 80.050781 L 77.09375 80.050781 C 76.992188 80.050781 76.90625 79.9375 76.90625 79.792969 C 76.90625 79.652344 76.992188 79.535156 77.09375 79.535156 L 82.800781 79.535156 C 82.90625 79.535156 82.988281 79.652344 82.988281 79.792969 C 82.988281 79.9375 82.90625 80.050781 82.800781 80.050781 Z M 82.800781 80.050781 " fill-opacity="1" fill-rule="nonzero"/><path fill="#e0e7ef" d="M 82.800781 81.316406 L 77.09375 81.316406 C 76.992188 81.316406 76.90625 81.199219 76.90625 81.058594 C 76.90625 80.914062 76.992188 80.800781 77.09375 80.800781 L 82.800781 80.800781 C 82.90625 80.800781 82.988281 80.914062 82.988281 81.058594 C 82.988281 81.199219 82.90625 81.316406 82.800781 81.316406 Z M 82.800781 81.316406 " fill-opacity="1" fill-rule="nonzero"/><path fill="#e0e7ef" d="M 82.800781 82.582031 L 77.09375 82.582031 C 76.992188 82.582031 76.90625 82.46875 76.90625 82.324219 C 76.90625 82.183594 76.992188 82.066406 77.09375 82.066406 L 82.800781 82.066406 C 82.90625 82.066406 82.988281 82.183594 82.988281 82.324219 C 82.988281 82.46875 82.90625 82.582031 82.800781 82.582031 Z M 82.800781 82.582031 " fill-opacity="1" fill-rule="nonzero"/></svg>