<svg xmlns="http://www.w3.org/2000/svg" xmlns:xlink="http://www.w3.org/1999/xlink" width="136" zoomAndPan="magnify" viewBox="0 0 102 101.999999" height="136" preserveAspectRatio="xMidYMid meet" version="1.0"><defs><linearGradient x1="68" gradientTransform="matrix(0.75, 0, 0, 0.75, 0.0000005, 0.000002)" y1="-0" x2="68" gradientUnits="userSpaceOnUse" y2="135.999994" id="7ea265eca0"><stop stop-opacity="1" stop-color="rgb(100%, 100%, 100%)" offset="0"/><stop stop-opacity="1" stop-color="rgb(99.848938%, 99.894714%, 99.992371%)" offset="0.015625"/><stop stop-opacity="1" stop-color="rgb(99.54834%, 99.687195%, 99.980164%)" offset="0.03125"/><stop stop-opacity="1" stop-color="rgb(99.249268%, 99.479675%, 99.967957%)" offset="0.046875"/><stop stop-opacity="1" stop-color="rgb(98.948669%, 99.272156%, 99.95575%)" offset="0.0625"/><stop stop-opacity="1" stop-color="rgb(98.648071%, 99.064636%, 99.943542%)" offset="0.078125"/><stop stop-opacity="1" stop-color="rgb(98.348999%, 98.855591%, 99.92981%)" offset="0.09375"/><stop stop-opacity="1" stop-color="rgb(98.048401%, 98.648071%, 99.917603%)" offset="0.109375"/><stop stop-opacity="1" stop-color="rgb(97.749329%, 98.440552%, 99.905396%)" offset="0.125"/><stop stop-opacity="1" stop-color="rgb(97.44873%, 98.233032%, 99.893188%)" offset="0.140625"/><stop stop-opacity="1" stop-color="rgb(97.148132%, 98.025513%, 99.880981%)" offset="0.15625"/><stop stop-opacity="1" stop-color="rgb(96.84906%, 97.816467%, 99.867249%)" offset="0.171875"/><stop stop-opacity="1" stop-color="rgb(96.548462%, 97.608948%, 99.855042%)" offset="0.1875"/><stop stop-opacity="1" stop-color="rgb(96.24939%, 97.401428%, 99.842834%)" offset="0.203125"/><stop stop-opacity="1" stop-color="rgb(95.948792%, 97.193909%, 99.830627%)" offset="0.21875"/><stop stop-opacity="1" stop-color="rgb(95.648193%, 96.986389%, 99.81842%)" offset="0.234375"/><stop stop-opacity="1" stop-color="rgb(95.349121%, 96.777344%, 99.804688%)" offset="0.25"/><stop stop-opacity="1" stop-color="rgb(95.048523%, 96.569824%, 99.79248%)" offset="0.265625"/><stop stop-opacity="1" stop-color="rgb(94.749451%, 96.362305%, 99.780273%)" offset="0.28125"/><stop stop-opacity="1" stop-color="rgb(94.448853%, 96.154785%, 99.768066%)" offset="0.296875"/><stop stop-opacity="1" stop-color="rgb(94.148254%, 95.947266%, 99.755859%)" offset="0.3125"/><stop stop-opacity="1" stop-color="rgb(93.849182%, 95.73822%, 99.742126%)" offset="0.328125"/><stop stop-opacity="1" stop-color="rgb(93.548584%, 95.530701%, 99.729919%)" offset="0.34375"/><stop stop-opacity="1" stop-color="rgb(93.249512%, 95.323181%, 99.717712%)" offset="0.359375"/><stop stop-opacity="1" stop-color="rgb(92.948914%, 95.115662%, 99.705505%)" offset="0.375"/><stop stop-opacity="1" stop-color="rgb(92.648315%, 94.908142%, 99.693298%)" offset="0.390625"/><stop stop-opacity="1" stop-color="rgb(92.349243%, 94.700623%, 99.681091%)" offset="0.40625"/><stop stop-opacity="1" stop-color="rgb(92.048645%, 94.491577%, 99.667358%)" offset="0.421875"/><stop stop-opacity="1" stop-color="rgb(91.748047%, 94.284058%, 99.655151%)" offset="0.4375"/><stop stop-opacity="1" stop-color="rgb(91.448975%, 94.076538%, 99.642944%)" offset="0.453125"/><stop stop-opacity="1" stop-color="rgb(91.148376%, 93.869019%, 99.630737%)" offset="0.46875"/><stop stop-opacity="1" stop-color="rgb(90.849304%, 93.661499%, 99.61853%)" offset="0.484375"/><stop stop-opacity="1" stop-color="rgb(90.548706%, 93.452454%, 99.604797%)" offset="0.5"/><stop stop-opacity="1" stop-color="rgb(90.248108%, 93.244934%, 99.59259%)" offset="0.515625"/><stop stop-opacity="1" stop-color="rgb(89.949036%, 93.037415%, 99.580383%)" offset="0.53125"/><stop stop-opacity="1" stop-color="rgb(89.648438%, 92.829895%, 99.568176%)" offset="0.546875"/><stop stop-opacity="1" stop-color="rgb(89.349365%, 92.622375%, 99.555969%)" offset="0.5625"/><stop stop-opacity="1" stop-color="rgb(89.048767%, 92.41333%, 99.542236%)" offset="0.578125"/><stop stop-opacity="1" stop-color="rgb(88.748169%, 92.205811%, 99.530029%)" offset="0.59375"/><stop stop-opacity="1" stop-color="rgb(88.449097%, 91.998291%, 99.517822%)" offset="0.609375"/><stop stop-opacity="1" stop-color="rgb(88.148499%, 91.790771%, 99.505615%)" offset="0.625"/><stop stop-opacity="1" stop-color="rgb(87.849426%, 91.583252%, 99.493408%)" offset="0.640625"/><stop stop-opacity="1" stop-color="rgb(87.548828%, 91.374207%, 99.479675%)" offset="0.65625"/><stop stop-opacity="1" stop-color="rgb(87.24823%, 91.166687%, 99.467468%)" offset="0.671875"/><stop stop-opacity="1" stop-color="rgb(86.949158%, 90.959167%, 99.455261%)" offset="0.6875"/><stop stop-opacity="1" stop-color="rgb(86.64856%, 90.751648%, 99.443054%)" offset="0.703125"/><stop stop-opacity="1" stop-color="rgb(86.349487%, 90.544128%, 99.430847%)" offset="0.71875"/><stop stop-opacity="1" stop-color="rgb(86.048889%, 90.335083%, 99.417114%)" offset="0.734375"/><stop stop-opacity="1" stop-color="rgb(85.748291%, 90.127563%, 99.404907%)" offset="0.75"/><stop stop-opacity="1" stop-color="rgb(85.449219%, 89.920044%, 99.3927%)" offset="0.765625"/><stop stop-opacity="1" stop-color="rgb(85.148621%, 89.712524%, 99.380493%)" offset="0.78125"/><stop stop-opacity="1" stop-color="rgb(84.848022%, 89.505005%, 99.368286%)" offset="0.796875"/><stop stop-opacity="1" stop-color="rgb(84.54895%, 89.297485%, 99.356079%)" offset="0.8125"/><stop stop-opacity="1" stop-color="rgb(84.248352%, 89.08844%, 99.342346%)" offset="0.828125"/><stop stop-opacity="1" stop-color="rgb(83.94928%, 88.88092%, 99.330139%)" offset="0.84375"/><stop stop-opacity="1" stop-color="rgb(83.648682%, 88.673401%, 99.317932%)" offset="0.859375"/><stop stop-opacity="1" stop-color="rgb(83.348083%, 88.465881%, 99.305725%)" offset="0.875"/><stop stop-opacity="1" stop-color="rgb(83.049011%, 88.258362%, 99.293518%)" offset="0.890625"/><stop stop-opacity="1" stop-color="rgb(82.748413%, 88.049316%, 99.279785%)" offset="0.90625"/><stop stop-opacity="1" stop-color="rgb(82.449341%, 87.841797%, 99.267578%)" offset="0.921875"/><stop stop-opacity="1" stop-color="rgb(82.148743%, 87.634277%, 99.255371%)" offset="0.9375"/><stop stop-opacity="1" stop-color="rgb(81.848145%, 87.426758%, 99.243164%)" offset="0.953125"/><stop stop-opacity="1" stop-color="rgb(81.549072%, 87.219238%, 99.230957%)" offset="0.96875"/><stop stop-opacity="1" stop-color="rgb(81.248474%, 87.010193%, 99.217224%)" offset="0.984375"/><stop stop-opacity="1" stop-color="rgb(80.949402%, 86.802673%, 99.205017%)" offset="1"/></linearGradient><clipPath id="f82687b89c"><path d="M 81.363281 43.550781 L 95.613281 43.550781 L 95.613281 57.800781 L 81.363281 57.800781 Z M 81.363281 43.550781 " clip-rule="nonzero"/></clipPath><clipPath id="dce907d984"><path d="M 88.375 43.550781 C 84.425781 43.550781 81.363281 46.445312 81.363281 50.355469 C 81.363281 52.398438 82.199219 54.164062 83.5625 55.386719 C 83.675781 55.488281 83.746094 55.632812 83.75 55.785156 L 83.789062 57.035156 C 83.800781 57.433594 84.210938 57.691406 84.578125 57.53125 L 85.96875 56.917969 C 86.085938 56.863281 86.21875 56.855469 86.34375 56.890625 C 86.984375 57.0625 87.664062 57.160156 88.375 57.160156 C 92.324219 57.160156 95.386719 54.265625 95.386719 50.355469 C 95.386719 46.449219 92.324219 43.550781 88.375 43.550781 Z M 88.375 43.550781 " clip-rule="nonzero"/></clipPath><radialGradient gradientTransform="matrix(1.000001, 0, 0, 0.999999, 84.061852, 57.501229)" gradientUnits="userSpaceOnUse" r="15.282835" cx="0" id="8a0f143e89" cy="0" fx="0" fy="0"><stop stop-opacity="1" stop-color="rgb(0.0915527%, 59.863281%, 99.949646%)" offset="0"/><stop stop-opacity="1" stop-color="rgb(0.230408%, 59.658813%, 99.873352%)" offset="0.0078125"/><stop stop-opacity="1" stop-color="rgb(0.323486%, 59.52301%, 99.824524%)" offset="0.0117188"/><stop stop-opacity="1" stop-color="rgb(0.416565%, 59.387207%, 99.77417%)" offset="0.015625"/><stop stop-opacity="1" stop-color="rgb(0.509644%, 59.251404%, 99.723816%)" offset="0.0195312"/><stop stop-opacity="1" stop-color="rgb(0.602722%, 59.115601%, 99.673462%)" offset="0.0234375"/><stop stop-opacity="1" stop-color="rgb(0.694275%, 58.979797%, 99.624634%)" offset="0.0273438"/><stop stop-opacity="1" stop-color="rgb(0.787354%, 58.843994%, 99.57428%)" offset="0.03125"/><stop stop-opacity="1" stop-color="rgb(0.880432%, 58.708191%, 99.523926%)" offset="0.0351562"/><stop stop-opacity="1" stop-color="rgb(0.973511%, 58.572388%, 99.473572%)" offset="0.0390625"/><stop stop-opacity="1" stop-color="rgb(1.066589%, 58.436584%, 99.424744%)" offset="0.0429688"/><stop stop-opacity="1" stop-color="rgb(1.159668%, 58.300781%, 99.37439%)" offset="0.046875"/><stop stop-opacity="1" stop-color="rgb(1.252747%, 58.166504%, 99.324036%)" offset="0.0507812"/><stop stop-opacity="1" stop-color="rgb(1.344299%, 58.030701%, 99.273682%)" offset="0.0546875"/><stop stop-opacity="1" stop-color="rgb(1.437378%, 57.894897%, 99.224854%)" offset="0.0585938"/><stop stop-opacity="1" stop-color="rgb(1.530457%, 57.759094%, 99.1745%)" offset="0.0625"/><stop stop-opacity="1" stop-color="rgb(1.623535%, 57.623291%, 99.124146%)" offset="0.0664062"/><stop stop-opacity="1" stop-color="rgb(1.716614%, 57.487488%, 99.075317%)" offset="0.0703125"/><stop stop-opacity="1" stop-color="rgb(1.809692%, 57.351685%, 99.024963%)" offset="0.0742188"/><stop stop-opacity="1" stop-color="rgb(1.902771%, 57.215881%, 98.974609%)" offset="0.078125"/><stop stop-opacity="1" stop-color="rgb(1.994324%, 57.080078%, 98.924255%)" offset="0.0820312"/><stop stop-opacity="1" stop-color="rgb(2.087402%, 56.944275%, 98.875427%)" offset="0.0859375"/><stop stop-opacity="1" stop-color="rgb(2.180481%, 56.808472%, 98.825073%)" offset="0.0898438"/><stop stop-opacity="1" stop-color="rgb(2.27356%, 56.672668%, 98.774719%)" offset="0.09375"/><stop stop-opacity="1" stop-color="rgb(2.366638%, 56.536865%, 98.724365%)" offset="0.0976562"/><stop stop-opacity="1" stop-color="rgb(2.459717%, 56.401062%, 98.675537%)" offset="0.101562"/><stop stop-opacity="1" stop-color="rgb(2.552795%, 56.265259%, 98.625183%)" offset="0.105469"/><stop stop-opacity="1" stop-color="rgb(2.644348%, 56.129456%, 98.574829%)" offset="0.109375"/><stop stop-opacity="1" stop-color="rgb(2.737427%, 55.993652%, 98.524475%)" offset="0.113281"/><stop stop-opacity="1" stop-color="rgb(2.830505%, 55.857849%, 98.475647%)" offset="0.117188"/><stop stop-opacity="1" stop-color="rgb(2.923584%, 55.722046%, 98.425293%)" offset="0.121094"/><stop stop-opacity="1" stop-color="rgb(3.016663%, 55.586243%, 98.374939%)" offset="0.125"/><stop stop-opacity="1" stop-color="rgb(3.109741%, 55.450439%, 98.326111%)" offset="0.128906"/><stop stop-opacity="1" stop-color="rgb(3.201294%, 55.314636%, 98.275757%)" offset="0.132812"/><stop stop-opacity="1" stop-color="rgb(3.294373%, 55.178833%, 98.225403%)" offset="0.136719"/><stop stop-opacity="1" stop-color="rgb(3.387451%, 55.04303%, 98.175049%)" offset="0.140625"/><stop stop-opacity="1" stop-color="rgb(3.48053%, 54.907227%, 98.126221%)" offset="0.144531"/><stop stop-opacity="1" stop-color="rgb(3.573608%, 54.771423%, 98.075867%)" offset="0.148438"/><stop stop-opacity="1" stop-color="rgb(3.666687%, 54.63562%, 98.025513%)" offset="0.152344"/><stop stop-opacity="1" stop-color="rgb(3.759766%, 54.499817%, 97.975159%)" offset="0.15625"/><stop stop-opacity="1" stop-color="rgb(3.851318%, 54.364014%, 97.926331%)" offset="0.160156"/><stop stop-opacity="1" stop-color="rgb(3.944397%, 54.22821%, 97.875977%)" offset="0.164062"/><stop stop-opacity="1" stop-color="rgb(4.037476%, 54.092407%, 97.825623%)" offset="0.167969"/><stop stop-opacity="1" stop-color="rgb(4.130554%, 53.956604%, 97.775269%)" offset="0.171875"/><stop stop-opacity="1" stop-color="rgb(4.223633%, 53.820801%, 97.72644%)" offset="0.175781"/><stop stop-opacity="1" stop-color="rgb(4.316711%, 53.684998%, 97.676086%)" offset="0.179688"/><stop stop-opacity="1" stop-color="rgb(4.40979%, 53.55072%, 97.625732%)" offset="0.183594"/><stop stop-opacity="1" stop-color="rgb(4.501343%, 53.414917%, 97.576904%)" offset="0.1875"/><stop stop-opacity="1" stop-color="rgb(4.594421%, 53.279114%, 97.52655%)" offset="0.191406"/><stop stop-opacity="1" stop-color="rgb(4.6875%, 53.143311%, 97.476196%)" offset="0.195312"/><stop stop-opacity="1" stop-color="rgb(4.780579%, 53.007507%, 97.425842%)" offset="0.199219"/><stop stop-opacity="1" stop-color="rgb(4.873657%, 52.871704%, 97.377014%)" offset="0.203125"/><stop stop-opacity="1" stop-color="rgb(4.966736%, 52.735901%, 97.32666%)" offset="0.207031"/><stop stop-opacity="1" stop-color="rgb(5.059814%, 52.600098%, 97.276306%)" offset="0.210938"/><stop stop-opacity="1" stop-color="rgb(5.151367%, 52.464294%, 97.225952%)" offset="0.214844"/><stop stop-opacity="1" stop-color="rgb(5.244446%, 52.328491%, 97.177124%)" offset="0.21875"/><stop stop-opacity="1" stop-color="rgb(5.337524%, 52.192688%, 97.12677%)" offset="0.222656"/><stop stop-opacity="1" stop-color="rgb(5.430603%, 52.056885%, 97.076416%)" offset="0.226562"/><stop stop-opacity="1" stop-color="rgb(5.523682%, 51.921082%, 97.026062%)" offset="0.230469"/><stop stop-opacity="1" stop-color="rgb(5.61676%, 51.785278%, 96.977234%)" offset="0.234375"/><stop stop-opacity="1" stop-color="rgb(5.708313%, 51.649475%, 96.92688%)" offset="0.238281"/><stop stop-opacity="1" stop-color="rgb(5.801392%, 51.513672%, 96.876526%)" offset="0.242188"/><stop stop-opacity="1" stop-color="rgb(5.89447%, 51.377869%, 96.826172%)" offset="0.246094"/><stop stop-opacity="1" stop-color="rgb(5.987549%, 51.242065%, 96.777344%)" offset="0.25"/><stop stop-opacity="1" stop-color="rgb(6.12793%, 51.039124%, 96.702576%)" offset="0.253906"/><stop stop-opacity="1" stop-color="rgb(6.312561%, 50.767517%, 96.601868%)" offset="0.261719"/><stop stop-opacity="1" stop-color="rgb(6.498718%, 50.495911%, 96.502686%)" offset="0.269531"/><stop stop-opacity="1" stop-color="rgb(6.684875%, 50.224304%, 96.401978%)" offset="0.277344"/><stop stop-opacity="1" stop-color="rgb(6.869507%, 49.952698%, 96.302795%)" offset="0.285156"/><stop stop-opacity="1" stop-color="rgb(7.055664%, 49.681091%, 96.202087%)" offset="0.292969"/><stop stop-opacity="1" stop-color="rgb(7.241821%, 49.409485%, 96.102905%)" offset="0.300781"/><stop stop-opacity="1" stop-color="rgb(7.427979%, 49.137878%, 96.002197%)" offset="0.308594"/><stop stop-opacity="1" stop-color="rgb(7.61261%, 48.866272%, 95.903015%)" offset="0.316406"/><stop stop-opacity="1" stop-color="rgb(7.798767%, 48.596191%, 95.803833%)" offset="0.324219"/><stop stop-opacity="1" stop-color="rgb(7.984924%, 48.324585%, 95.703125%)" offset="0.332031"/><stop stop-opacity="1" stop-color="rgb(8.169556%, 48.052979%, 95.603943%)" offset="0.339844"/><stop stop-opacity="1" stop-color="rgb(8.355713%, 47.781372%, 95.503235%)" offset="0.347656"/><stop stop-opacity="1" stop-color="rgb(8.54187%, 47.509766%, 95.404053%)" offset="0.355469"/><stop stop-opacity="1" stop-color="rgb(8.726501%, 47.238159%, 95.303345%)" offset="0.363281"/><stop stop-opacity="1" stop-color="rgb(8.912659%, 46.966553%, 95.204163%)" offset="0.371094"/><stop stop-opacity="1" stop-color="rgb(9.098816%, 46.694946%, 95.103455%)" offset="0.378906"/><stop stop-opacity="1" stop-color="rgb(9.284973%, 46.42334%, 95.004272%)" offset="0.386719"/><stop stop-opacity="1" stop-color="rgb(9.469604%, 46.151733%, 94.903564%)" offset="0.394531"/><stop stop-opacity="1" stop-color="rgb(9.655762%, 45.880127%, 94.804382%)" offset="0.402344"/><stop stop-opacity="1" stop-color="rgb(9.841919%, 45.608521%, 94.703674%)" offset="0.410156"/><stop stop-opacity="1" stop-color="rgb(10.02655%, 45.336914%, 94.604492%)" offset="0.417969"/><stop stop-opacity="1" stop-color="rgb(10.212708%, 45.065308%, 94.503784%)" offset="0.425781"/><stop stop-opacity="1" stop-color="rgb(10.398865%, 44.793701%, 94.404602%)" offset="0.433594"/><stop stop-opacity="1" stop-color="rgb(10.585022%, 44.522095%, 94.30542%)" offset="0.441406"/><stop stop-opacity="1" stop-color="rgb(10.769653%, 44.250488%, 94.204712%)" offset="0.449219"/><stop stop-opacity="1" stop-color="rgb(10.955811%, 43.980408%, 94.10553%)" offset="0.457031"/><stop stop-opacity="1" stop-color="rgb(11.141968%, 43.708801%, 94.004822%)" offset="0.464844"/><stop stop-opacity="1" stop-color="rgb(11.326599%, 43.437195%, 93.90564%)" offset="0.472656"/><stop stop-opacity="1" stop-color="rgb(11.512756%, 43.165588%, 93.804932%)" offset="0.480469"/><stop stop-opacity="1" stop-color="rgb(11.698914%, 42.893982%, 93.70575%)" offset="0.488281"/><stop stop-opacity="1" stop-color="rgb(11.883545%, 42.622375%, 93.605042%)" offset="0.496094"/><stop stop-opacity="1" stop-color="rgb(12.0224%, 42.417908%, 93.530273%)" offset="0.503906"/><stop stop-opacity="1" stop-color="rgb(12.115479%, 42.282104%, 93.479919%)" offset="0.507812"/><stop stop-opacity="1" stop-color="rgb(12.208557%, 42.146301%, 93.431091%)" offset="0.511719"/><stop stop-opacity="1" stop-color="rgb(12.301636%, 42.010498%, 93.380737%)" offset="0.515625"/><stop stop-opacity="1" stop-color="rgb(12.394714%, 41.874695%, 93.330383%)" offset="0.519531"/><stop stop-opacity="1" stop-color="rgb(12.487793%, 41.738892%, 93.280029%)" offset="0.523438"/><stop stop-opacity="1" stop-color="rgb(12.580872%, 41.603088%, 93.231201%)" offset="0.527344"/><stop stop-opacity="1" stop-color="rgb(12.672424%, 41.467285%, 93.180847%)" offset="0.53125"/><stop stop-opacity="1" stop-color="rgb(12.765503%, 41.331482%, 93.130493%)" offset="0.535156"/><stop stop-opacity="1" stop-color="rgb(12.858582%, 41.195679%, 93.080139%)" offset="0.539062"/><stop stop-opacity="1" stop-color="rgb(12.95166%, 41.059875%, 93.031311%)" offset="0.542969"/><stop stop-opacity="1" stop-color="rgb(13.044739%, 40.924072%, 92.980957%)" offset="0.546875"/><stop stop-opacity="1" stop-color="rgb(13.137817%, 40.788269%, 92.930603%)" offset="0.550781"/><stop stop-opacity="1" stop-color="rgb(13.230896%, 40.652466%, 92.880249%)" offset="0.554688"/><stop stop-opacity="1" stop-color="rgb(13.322449%, 40.516663%, 92.831421%)" offset="0.558594"/><stop stop-opacity="1" stop-color="rgb(13.415527%, 40.380859%, 92.781067%)" offset="0.5625"/><stop stop-opacity="1" stop-color="rgb(13.508606%, 40.245056%, 92.730713%)" offset="0.566406"/><stop stop-opacity="1" stop-color="rgb(13.601685%, 40.109253%, 92.681885%)" offset="0.570312"/><stop stop-opacity="1" stop-color="rgb(13.694763%, 39.97345%, 92.631531%)" offset="0.574219"/><stop stop-opacity="1" stop-color="rgb(13.787842%, 39.837646%, 92.581177%)" offset="0.578125"/><stop stop-opacity="1" stop-color="rgb(13.88092%, 39.703369%, 92.530823%)" offset="0.582031"/><stop stop-opacity="1" stop-color="rgb(13.972473%, 39.567566%, 92.481995%)" offset="0.585938"/><stop stop-opacity="1" stop-color="rgb(14.065552%, 39.431763%, 92.431641%)" offset="0.589844"/><stop stop-opacity="1" stop-color="rgb(14.15863%, 39.295959%, 92.381287%)" offset="0.59375"/><stop stop-opacity="1" stop-color="rgb(14.251709%, 39.160156%, 92.330933%)" offset="0.597656"/><stop stop-opacity="1" stop-color="rgb(14.398193%, 38.945007%, 92.253113%)" offset="0.601562"/><stop stop-opacity="1" stop-color="rgb(14.498901%, 38.798523%, 92.199707%)" offset="1"/></radialGradient><clipPath id="5c9956ba01"><path d="M 81.417969 61.054688 L 95.667969 61.054688 L 95.667969 75.304688 L 81.417969 75.304688 Z M 81.417969 61.054688 " clip-rule="nonzero"/></clipPath><clipPath id="948a7e7edf"><path d="M 81.417969 61.054688 L 95.667969 61.054688 L 95.667969 75 L 81.417969 75 Z M 81.417969 61.054688 " clip-rule="nonzero"/></clipPath><clipPath id="0717fb1129"><path d="M 81.773438 74.898438 L 82.730469 71.40625 C 82.140625 70.382812 81.828125 69.222656 81.828125 68.035156 C 81.832031 64.320312 84.855469 61.296875 88.570312 61.296875 C 90.371094 61.300781 92.066406 62 93.335938 63.273438 C 94.609375 64.546875 95.3125 66.242188 95.308594 68.042969 C 95.308594 71.757812 92.285156 74.78125 88.570312 74.78125 L 88.566406 74.78125 C 87.4375 74.78125 86.332031 74.496094 85.347656 73.960938 Z M 81.773438 74.898438 " clip-rule="nonzero"/></clipPath><linearGradient x1="609.77002" gradientTransform="matrix(0.0116325, 0, 0, 0.0116325, 81.448372, 61.053384)" y1="1190.113905" x2="609.77002" gradientUnits="userSpaceOnUse" y2="21.081899" id="40361e4293"><stop stop-opacity="1" stop-color="rgb(12.5%, 68.998718%, 21.998596%)" offset="0"/><stop stop-opacity="1" stop-color="rgb(12.597656%, 69.056702%, 22.07489%)" offset="0.0078125"/><stop stop-opacity="1" stop-color="rgb(12.792969%, 69.174194%, 22.229004%)" offset="0.015625"/><stop stop-opacity="1" stop-color="rgb(12.989807%, 69.290161%, 22.381592%)" offset="0.0234375"/><stop stop-opacity="1" stop-color="rgb(13.18512%, 69.406128%, 22.53418%)" offset="0.03125"/><stop stop-opacity="1" stop-color="rgb(13.381958%, 69.522095%, 22.688293%)" offset="0.0390625"/><stop stop-opacity="1" stop-color="rgb(13.577271%, 69.639587%, 22.840881%)" offset="0.046875"/><stop stop-opacity="1" stop-color="rgb(13.774109%, 69.755554%, 22.994995%)" offset="0.0546875"/><stop stop-opacity="1" stop-color="rgb(13.969421%, 69.871521%, 23.147583%)" offset="0.0625"/><stop stop-opacity="1" stop-color="rgb(14.16626%, 69.989014%, 23.300171%)" offset="0.0703125"/><stop stop-opacity="1" stop-color="rgb(14.361572%, 70.10498%, 23.454285%)" offset="0.078125"/><stop stop-opacity="1" stop-color="rgb(14.558411%, 70.220947%, 23.606873%)" offset="0.0859375"/><stop stop-opacity="1" stop-color="rgb(14.753723%, 70.33844%, 23.75946%)" offset="0.09375"/><stop stop-opacity="1" stop-color="rgb(14.950562%, 70.454407%, 23.913574%)" offset="0.101563"/><stop stop-opacity="1" stop-color="rgb(15.145874%, 70.570374%, 24.066162%)" offset="0.109375"/><stop stop-opacity="1" stop-color="rgb(15.342712%, 70.68634%, 24.21875%)" offset="0.117188"/><stop stop-opacity="1" stop-color="rgb(15.538025%, 70.803833%, 24.372864%)" offset="0.125"/><stop stop-opacity="1" stop-color="rgb(15.734863%, 70.9198%, 24.525452%)" offset="0.132813"/><stop stop-opacity="1" stop-color="rgb(15.930176%, 71.035767%, 24.67804%)" offset="0.140625"/><stop stop-opacity="1" stop-color="rgb(16.127014%, 71.153259%, 24.832153%)" offset="0.148438"/><stop stop-opacity="1" stop-color="rgb(16.322327%, 71.269226%, 24.984741%)" offset="0.15625"/><stop stop-opacity="1" stop-color="rgb(16.519165%, 71.385193%, 25.137329%)" offset="0.164063"/><stop stop-opacity="1" stop-color="rgb(16.714478%, 71.50116%, 25.291443%)" offset="0.171875"/><stop stop-opacity="1" stop-color="rgb(16.911316%, 71.618652%, 25.444031%)" offset="0.179688"/><stop stop-opacity="1" stop-color="rgb(17.106628%, 71.734619%, 25.598145%)" offset="0.1875"/><stop stop-opacity="1" stop-color="rgb(17.303467%, 71.850586%, 25.750732%)" offset="0.195313"/><stop stop-opacity="1" stop-color="rgb(17.498779%, 71.968079%, 25.90332%)" offset="0.203125"/><stop stop-opacity="1" stop-color="rgb(17.695618%, 72.084045%, 26.057434%)" offset="0.210938"/><stop stop-opacity="1" stop-color="rgb(17.89093%, 72.200012%, 26.210022%)" offset="0.21875"/><stop stop-opacity="1" stop-color="rgb(18.087769%, 72.315979%, 26.36261%)" offset="0.226563"/><stop stop-opacity="1" stop-color="rgb(18.283081%, 72.433472%, 26.516724%)" offset="0.234375"/><stop stop-opacity="1" stop-color="rgb(18.479919%, 72.549438%, 26.669312%)" offset="0.242188"/><stop stop-opacity="1" stop-color="rgb(18.675232%, 72.665405%, 26.821899%)" offset="0.25"/><stop stop-opacity="1" stop-color="rgb(18.87207%, 72.782898%, 26.976013%)" offset="0.257813"/><stop stop-opacity="1" stop-color="rgb(19.067383%, 72.898865%, 27.128601%)" offset="0.265625"/><stop stop-opacity="1" stop-color="rgb(19.264221%, 73.014832%, 27.281189%)" offset="0.273438"/><stop stop-opacity="1" stop-color="rgb(19.459534%, 73.130798%, 27.435303%)" offset="0.28125"/><stop stop-opacity="1" stop-color="rgb(19.656372%, 73.248291%, 27.587891%)" offset="0.289062"/><stop stop-opacity="1" stop-color="rgb(19.851685%, 73.364258%, 27.740479%)" offset="0.296875"/><stop stop-opacity="1" stop-color="rgb(20.048523%, 73.480225%, 27.894592%)" offset="0.304688"/><stop stop-opacity="1" stop-color="rgb(20.243835%, 73.597717%, 28.04718%)" offset="0.3125"/><stop stop-opacity="1" stop-color="rgb(20.440674%, 73.713684%, 28.201294%)" offset="0.320313"/><stop stop-opacity="1" stop-color="rgb(20.637512%, 73.829651%, 28.353882%)" offset="0.328125"/><stop stop-opacity="1" stop-color="rgb(20.832825%, 73.945618%, 28.50647%)" offset="0.335938"/><stop stop-opacity="1" stop-color="rgb(21.029663%, 74.06311%, 28.660583%)" offset="0.34375"/><stop stop-opacity="1" stop-color="rgb(21.224976%, 74.179077%, 28.813171%)" offset="0.351563"/><stop stop-opacity="1" stop-color="rgb(21.421814%, 74.295044%, 28.965759%)" offset="0.359375"/><stop stop-opacity="1" stop-color="rgb(21.617126%, 74.412537%, 29.119873%)" offset="0.367188"/><stop stop-opacity="1" stop-color="rgb(21.813965%, 74.528503%, 29.272461%)" offset="0.375"/><stop stop-opacity="1" stop-color="rgb(22.009277%, 74.64447%, 29.425049%)" offset="0.382813"/><stop stop-opacity="1" stop-color="rgb(22.206116%, 74.760437%, 29.579163%)" offset="0.390625"/><stop stop-opacity="1" stop-color="rgb(22.401428%, 74.87793%, 29.73175%)" offset="0.398438"/><stop stop-opacity="1" stop-color="rgb(22.598267%, 74.993896%, 29.884338%)" offset="0.40625"/><stop stop-opacity="1" stop-color="rgb(22.793579%, 75.109863%, 30.038452%)" offset="0.414063"/><stop stop-opacity="1" stop-color="rgb(22.990417%, 75.227356%, 30.19104%)" offset="0.421875"/><stop stop-opacity="1" stop-color="rgb(23.18573%, 75.343323%, 30.343628%)" offset="0.429688"/><stop stop-opacity="1" stop-color="rgb(23.382568%, 75.45929%, 30.497742%)" offset="0.4375"/><stop stop-opacity="1" stop-color="rgb(23.577881%, 75.575256%, 30.65033%)" offset="0.445313"/><stop stop-opacity="1" stop-color="rgb(23.774719%, 75.692749%, 30.802917%)" offset="0.453125"/><stop stop-opacity="1" stop-color="rgb(23.970032%, 75.808716%, 30.957031%)" offset="0.460938"/><stop stop-opacity="1" stop-color="rgb(24.16687%, 75.924683%, 31.109619%)" offset="0.46875"/><stop stop-opacity="1" stop-color="rgb(24.362183%, 76.042175%, 31.263733%)" offset="0.476563"/><stop stop-opacity="1" stop-color="rgb(24.559021%, 76.158142%, 31.416321%)" offset="0.484375"/><stop stop-opacity="1" stop-color="rgb(24.754333%, 76.274109%, 31.568909%)" offset="0.492188"/><stop stop-opacity="1" stop-color="rgb(24.951172%, 76.390076%, 31.723022%)" offset="0.5"/><stop stop-opacity="1" stop-color="rgb(25.146484%, 76.507568%, 31.87561%)" offset="0.507813"/><stop stop-opacity="1" stop-color="rgb(25.343323%, 76.623535%, 32.028198%)" offset="0.515625"/><stop stop-opacity="1" stop-color="rgb(25.538635%, 76.739502%, 32.182312%)" offset="0.523438"/><stop stop-opacity="1" stop-color="rgb(25.735474%, 76.856995%, 32.3349%)" offset="0.53125"/><stop stop-opacity="1" stop-color="rgb(25.930786%, 76.972961%, 32.487488%)" offset="0.539063"/><stop stop-opacity="1" stop-color="rgb(26.127625%, 77.088928%, 32.641602%)" offset="0.546875"/><stop stop-opacity="1" stop-color="rgb(26.322937%, 77.206421%, 32.794189%)" offset="0.554688"/><stop stop-opacity="1" stop-color="rgb(26.519775%, 77.322388%, 32.946777%)" offset="0.5625"/><stop stop-opacity="1" stop-color="rgb(26.715088%, 77.438354%, 33.100891%)" offset="0.570313"/><stop stop-opacity="1" stop-color="rgb(26.911926%, 77.554321%, 33.253479%)" offset="0.578125"/><stop stop-opacity="1" stop-color="rgb(27.107239%, 77.671814%, 33.406067%)" offset="0.585938"/><stop stop-opacity="1" stop-color="rgb(27.304077%, 77.787781%, 33.560181%)" offset="0.59375"/><stop stop-opacity="1" stop-color="rgb(27.49939%, 77.903748%, 33.712769%)" offset="0.601563"/><stop stop-opacity="1" stop-color="rgb(27.696228%, 78.02124%, 33.866882%)" offset="0.609375"/><stop stop-opacity="1" stop-color="rgb(27.891541%, 78.137207%, 34.01947%)" offset="0.617188"/><stop stop-opacity="1" stop-color="rgb(28.088379%, 78.253174%, 34.172058%)" offset="0.625"/><stop stop-opacity="1" stop-color="rgb(28.283691%, 78.369141%, 34.326172%)" offset="0.632813"/><stop stop-opacity="1" stop-color="rgb(28.48053%, 78.486633%, 34.47876%)" offset="0.640625"/><stop stop-opacity="1" stop-color="rgb(28.677368%, 78.6026%, 34.631348%)" offset="0.648438"/><stop stop-opacity="1" stop-color="rgb(28.872681%, 78.718567%, 34.785461%)" offset="0.65625"/><stop stop-opacity="1" stop-color="rgb(29.069519%, 78.83606%, 34.938049%)" offset="0.664063"/><stop stop-opacity="1" stop-color="rgb(29.264832%, 78.952026%, 35.090637%)" offset="0.671875"/><stop stop-opacity="1" stop-color="rgb(29.46167%, 79.067993%, 35.244751%)" offset="0.679688"/><stop stop-opacity="1" stop-color="rgb(29.656982%, 79.18396%, 35.397339%)" offset="0.6875"/><stop stop-opacity="1" stop-color="rgb(29.853821%, 79.301453%, 35.549927%)" offset="0.695312"/><stop stop-opacity="1" stop-color="rgb(30.049133%, 79.417419%, 35.704041%)" offset="0.703125"/><stop stop-opacity="1" stop-color="rgb(30.245972%, 79.533386%, 35.856628%)" offset="0.710938"/><stop stop-opacity="1" stop-color="rgb(30.441284%, 79.650879%, 36.009216%)" offset="0.71875"/><stop stop-opacity="1" stop-color="rgb(30.638123%, 79.766846%, 36.16333%)" offset="0.726563"/><stop stop-opacity="1" stop-color="rgb(30.833435%, 79.882812%, 36.315918%)" offset="0.734375"/><stop stop-opacity="1" stop-color="rgb(31.030273%, 79.998779%, 36.470032%)" offset="0.742188"/><stop stop-opacity="1" stop-color="rgb(31.225586%, 80.116272%, 36.62262%)" offset="0.75"/><stop stop-opacity="1" stop-color="rgb(31.422424%, 80.232239%, 36.775208%)" offset="0.757813"/><stop stop-opacity="1" stop-color="rgb(31.617737%, 80.348206%, 36.929321%)" offset="0.765625"/><stop stop-opacity="1" stop-color="rgb(31.814575%, 80.465698%, 37.081909%)" offset="0.773438"/><stop stop-opacity="1" stop-color="rgb(32.009888%, 80.581665%, 37.234497%)" offset="0.78125"/><stop stop-opacity="1" stop-color="rgb(32.206726%, 80.697632%, 37.388611%)" offset="0.789063"/><stop stop-opacity="1" stop-color="rgb(32.402039%, 80.813599%, 37.541199%)" offset="0.796875"/><stop stop-opacity="1" stop-color="rgb(32.598877%, 80.931091%, 37.693787%)" offset="0.804688"/><stop stop-opacity="1" stop-color="rgb(32.794189%, 81.047058%, 37.8479%)" offset="0.8125"/><stop stop-opacity="1" stop-color="rgb(32.991028%, 81.163025%, 38.000488%)" offset="0.820313"/><stop stop-opacity="1" stop-color="rgb(33.18634%, 81.280518%, 38.153076%)" offset="0.828125"/><stop stop-opacity="1" stop-color="rgb(33.383179%, 81.396484%, 38.30719%)" offset="0.835938"/><stop stop-opacity="1" stop-color="rgb(33.578491%, 81.512451%, 38.459778%)" offset="0.84375"/><stop stop-opacity="1" stop-color="rgb(33.77533%, 81.628418%, 38.612366%)" offset="0.851563"/><stop stop-opacity="1" stop-color="rgb(33.970642%, 81.745911%, 38.766479%)" offset="0.859375"/><stop stop-opacity="1" stop-color="rgb(34.16748%, 81.861877%, 38.919067%)" offset="0.867188"/><stop stop-opacity="1" stop-color="rgb(34.362793%, 81.977844%, 39.073181%)" offset="0.875"/><stop stop-opacity="1" stop-color="rgb(34.559631%, 82.095337%, 39.225769%)" offset="0.882813"/><stop stop-opacity="1" stop-color="rgb(34.754944%, 82.211304%, 39.378357%)" offset="0.890625"/><stop stop-opacity="1" stop-color="rgb(34.951782%, 82.327271%, 39.532471%)" offset="0.898438"/><stop stop-opacity="1" stop-color="rgb(35.147095%, 82.443237%, 39.685059%)" offset="0.90625"/><stop stop-opacity="1" stop-color="rgb(35.343933%, 82.56073%, 39.837646%)" offset="0.914063"/><stop stop-opacity="1" stop-color="rgb(35.539246%, 82.676697%, 39.99176%)" offset="0.921875"/><stop stop-opacity="1" stop-color="rgb(35.736084%, 82.792664%, 40.144348%)" offset="0.929688"/><stop stop-opacity="1" stop-color="rgb(35.931396%, 82.910156%, 40.296936%)" offset="0.9375"/><stop stop-opacity="1" stop-color="rgb(36.128235%, 83.026123%, 40.45105%)" offset="0.945312"/><stop stop-opacity="1" stop-color="rgb(36.323547%, 83.14209%, 40.603638%)" offset="0.953125"/><stop stop-opacity="1" stop-color="rgb(36.520386%, 83.258057%, 40.756226%)" offset="0.960938"/><stop stop-opacity="1" stop-color="rgb(36.717224%, 83.375549%, 40.910339%)" offset="0.96875"/><stop stop-opacity="1" stop-color="rgb(36.912537%, 83.491516%, 41.062927%)" offset="0.976563"/><stop stop-opacity="1" stop-color="rgb(37.109375%, 83.607483%, 41.215515%)" offset="0.984375"/><stop stop-opacity="1" stop-color="rgb(37.304688%, 83.724976%, 41.369629%)" offset="0.992188"/><stop stop-opacity="1" stop-color="rgb(37.501526%, 83.840942%, 41.522217%)" offset="1"/></linearGradient><clipPath id="744a48f61a"><path d="M 81.417969 61.054688 L 95.667969 61.054688 L 95.667969 75.304688 L 81.417969 75.304688 Z M 81.417969 61.054688 " clip-rule="nonzero"/></clipPath><clipPath id="8b4da8daa1"><path d="M 81.363281 26.839844 L 95.613281 26.839844 L 95.613281 41.089844 L 81.363281 41.089844 Z M 81.363281 26.839844 " clip-rule="nonzero"/></clipPath><clipPath id="d7f3cbcca9"><path d="M 81.363281 26.839844 L 95.613281 26.839844 L 95.613281 41.089844 L 81.363281 41.089844 Z M 81.363281 26.839844 " clip-rule="nonzero"/></clipPath><clipPath id="6057ce6c99"><path d="M 88.488281 26.839844 C 88.953125 26.839844 89.417969 26.886719 89.875 26.976562 C 90.335938 27.066406 90.78125 27.203125 91.214844 27.382812 C 91.644531 27.5625 92.054688 27.78125 92.445312 28.039062 C 92.835938 28.300781 93.195312 28.59375 93.523438 28.925781 C 93.855469 29.257812 94.152344 29.617188 94.410156 30.003906 C 94.671875 30.394531 94.890625 30.804688 95.070312 31.238281 C 95.25 31.667969 95.382812 32.117188 95.476562 32.574219 C 95.566406 33.03125 95.613281 33.496094 95.613281 33.964844 C 95.613281 34.433594 95.566406 34.894531 95.476562 35.355469 C 95.382812 35.8125 95.25 36.257812 95.070312 36.691406 C 94.890625 37.121094 94.671875 37.535156 94.410156 37.921875 C 94.152344 38.3125 93.855469 38.671875 93.523438 39.003906 C 93.195312 39.332031 92.835938 39.628906 92.445312 39.886719 C 92.054688 40.148438 91.644531 40.367188 91.214844 40.546875 C 90.78125 40.726562 90.335938 40.859375 89.875 40.953125 C 89.417969 41.042969 88.953125 41.089844 88.488281 41.089844 C 88.019531 41.089844 87.554688 41.042969 87.097656 40.953125 C 86.636719 40.859375 86.191406 40.726562 85.761719 40.546875 C 85.328125 40.367188 84.917969 40.148438 84.527344 39.886719 C 84.140625 39.628906 83.777344 39.332031 83.449219 39.003906 C 83.117188 38.671875 82.824219 38.3125 82.5625 37.921875 C 82.300781 37.535156 82.082031 37.121094 81.902344 36.691406 C 81.726562 36.257812 81.589844 35.8125 81.5 35.355469 C 81.40625 34.894531 81.363281 34.433594 81.363281 33.964844 C 81.363281 33.496094 81.40625 33.03125 81.5 32.574219 C 81.589844 32.117188 81.726562 31.667969 81.902344 31.238281 C 82.082031 30.804688 82.300781 30.394531 82.5625 30.003906 C 82.824219 29.617188 83.117188 29.257812 83.449219 28.925781 C 83.777344 28.59375 84.140625 28.300781 84.527344 28.039062 C 84.917969 27.78125 85.328125 27.5625 85.761719 27.382812 C 86.191406 27.203125 86.636719 27.066406 87.097656 26.976562 C 87.554688 26.886719 88.019531 26.839844 88.488281 26.839844 Z M 88.488281 26.839844 " clip-rule="nonzero"/></clipPath><linearGradient x1="24" gradientTransform="matrix(0.296875, 0, 0, 0.296875, 81.361588, 26.839159)" y1="0.00000687731" x2="24" gradientUnits="userSpaceOnUse" y2="48.000008" id="93e90f9e92"><stop stop-opacity="1" stop-color="rgb(16.499329%, 67.098999%, 93.299866%)" offset="0"/><stop stop-opacity="1" stop-color="rgb(16.448975%, 67.018127%, 93.170166%)" offset="0.03125"/><stop stop-opacity="1" stop-color="rgb(16.348267%, 66.85791%, 92.910767%)" offset="0.0625"/><stop stop-opacity="1" stop-color="rgb(16.247559%, 66.697693%, 92.652893%)" offset="0.09375"/><stop stop-opacity="1" stop-color="rgb(16.146851%, 66.53595%, 92.39502%)" offset="0.125"/><stop stop-opacity="1" stop-color="rgb(16.046143%, 66.375732%, 92.137146%)" offset="0.15625"/><stop stop-opacity="1" stop-color="rgb(15.945435%, 66.215515%, 91.879272%)" offset="0.1875"/><stop stop-opacity="1" stop-color="rgb(15.844727%, 66.055298%, 91.619873%)" offset="0.21875"/><stop stop-opacity="1" stop-color="rgb(15.744019%, 65.895081%, 91.362%)" offset="0.25"/><stop stop-opacity="1" stop-color="rgb(15.643311%, 65.733337%, 91.104126%)" offset="0.28125"/><stop stop-opacity="1" stop-color="rgb(15.542603%, 65.57312%, 90.846252%)" offset="0.3125"/><stop stop-opacity="1" stop-color="rgb(15.441895%, 65.412903%, 90.588379%)" offset="0.34375"/><stop stop-opacity="1" stop-color="rgb(15.341187%, 65.252686%, 90.328979%)" offset="0.375"/><stop stop-opacity="1" stop-color="rgb(15.240479%, 65.090942%, 90.071106%)" offset="0.40625"/><stop stop-opacity="1" stop-color="rgb(15.139771%, 64.930725%, 89.813232%)" offset="0.4375"/><stop stop-opacity="1" stop-color="rgb(15.039062%, 64.770508%, 89.555359%)" offset="0.46875"/><stop stop-opacity="1" stop-color="rgb(14.938354%, 64.610291%, 89.297485%)" offset="0.5"/><stop stop-opacity="1" stop-color="rgb(14.837646%, 64.450073%, 89.039612%)" offset="0.53125"/><stop stop-opacity="1" stop-color="rgb(14.735413%, 64.28833%, 88.780212%)" offset="0.5625"/><stop stop-opacity="1" stop-color="rgb(14.634705%, 64.128113%, 88.522339%)" offset="0.59375"/><stop stop-opacity="1" stop-color="rgb(14.533997%, 63.967896%, 88.264465%)" offset="0.625"/><stop stop-opacity="1" stop-color="rgb(14.433289%, 63.807678%, 88.006592%)" offset="0.65625"/><stop stop-opacity="1" stop-color="rgb(14.332581%, 63.645935%, 87.748718%)" offset="0.6875"/><stop stop-opacity="1" stop-color="rgb(14.231873%, 63.485718%, 87.489319%)" offset="0.71875"/><stop stop-opacity="1" stop-color="rgb(14.131165%, 63.3255%, 87.231445%)" offset="0.75"/><stop stop-opacity="1" stop-color="rgb(14.030457%, 63.165283%, 86.973572%)" offset="0.78125"/><stop stop-opacity="1" stop-color="rgb(13.929749%, 63.00354%, 86.715698%)" offset="0.8125"/><stop stop-opacity="1" stop-color="rgb(13.829041%, 62.843323%, 86.457825%)" offset="0.84375"/><stop stop-opacity="1" stop-color="rgb(13.728333%, 62.683105%, 86.198425%)" offset="0.875"/><stop stop-opacity="1" stop-color="rgb(13.627625%, 62.522888%, 85.940552%)" offset="0.90625"/><stop stop-opacity="1" stop-color="rgb(13.526917%, 62.362671%, 85.682678%)" offset="0.9375"/><stop stop-opacity="1" stop-color="rgb(13.426208%, 62.200928%, 85.424805%)" offset="0.96875"/><stop stop-opacity="1" stop-color="rgb(13.337708%, 62.060547%, 85.197449%)" offset="1"/></linearGradient><clipPath id="3b1ea675d5"><path d="M 81.363281 10.199219 L 95.390625 10.199219 L 95.390625 24.230469 L 81.363281 24.230469 Z M 81.363281 10.199219 " clip-rule="nonzero"/></clipPath><clipPath id="1ee2edb000"><path d="M 88.375 10.199219 C 84.503906 10.199219 81.363281 13.339844 81.363281 17.214844 C 81.363281 21.089844 84.503906 24.230469 88.375 24.230469 C 92.25 24.230469 95.390625 21.089844 95.390625 17.214844 C 95.390625 13.339844 92.25 10.199219 88.375 10.199219 Z M 88.375 10.199219 " clip-rule="nonzero"/></clipPath><clipPath id="e3938bea1f"><path d="M 83.003906 11.765625 L 93.503906 11.765625 L 93.503906 22.265625 L 83.003906 22.265625 Z M 83.003906 11.765625 " clip-rule="nonzero"/></clipPath><clipPath id="e3645a84e5"><path d="M 85.566406 78.34375 L 90.816406 78.34375 L 90.816406 83.59375 L 85.566406 83.59375 Z M 85.566406 78.34375 " clip-rule="nonzero"/></clipPath></defs><rect x="-10.2" fill="url(#7ea265eca0)" width="122.4" y="-10.2" height="122.399999"/><g clip-path="url(#f82687b89c)"><g clip-path="url(#dce907d984)"><path fill="url(#8a0f143e89)" d="M 81.363281 43.550781 L 81.363281 57.691406 L 95.386719 57.691406 L 95.386719 43.550781 Z M 81.363281 43.550781 " fill-rule="nonzero"/></g></g><path fill="#ffffff" d="M 84.164062 52.34375 L 86.222656 49.074219 C 86.550781 48.554688 87.253906 48.425781 87.746094 48.796875 L 89.382812 50.023438 C 89.535156 50.136719 89.742188 50.136719 89.890625 50.023438 L 92.105469 48.34375 C 92.398438 48.117188 92.785156 48.472656 92.585938 48.785156 L 90.527344 52.054688 C 90.199219 52.574219 89.496094 52.703125 89.003906 52.332031 L 87.363281 51.105469 C 87.214844 50.992188 87.007812 50.992188 86.859375 51.105469 L 84.644531 52.785156 C 84.351562 53.011719 83.964844 52.65625 84.164062 52.34375 Z M 84.164062 52.34375 " fill-opacity="1" fill-rule="nonzero"/><g clip-path="url(#5c9956ba01)"><path fill="#e0e0e0" d="M 93.566406 63.125 C 92.234375 61.789062 90.460938 61.054688 88.570312 61.054688 C 84.679688 61.054688 81.507812 64.222656 81.507812 68.113281 C 81.507812 69.359375 81.832031 70.574219 82.449219 71.644531 L 81.449219 75.304688 L 85.191406 74.320312 C 86.222656 74.882812 87.386719 75.179688 88.566406 75.179688 L 88.570312 75.179688 C 92.464844 75.179688 95.632812 72.011719 95.632812 68.121094 C 95.636719 66.234375 94.902344 64.457031 93.566406 63.125 Z M 88.570312 73.988281 C 87.515625 73.988281 86.480469 73.707031 85.582031 73.171875 L 85.367188 73.042969 L 83.144531 73.625 L 83.738281 71.460938 L 83.597656 71.238281 C 83.011719 70.304688 82.699219 69.222656 82.699219 68.113281 C 82.703125 64.878906 85.335938 62.246094 88.574219 62.246094 C 90.140625 62.246094 91.617188 62.859375 92.722656 63.96875 C 93.832031 65.078125 94.441406 66.550781 94.441406 68.121094 C 94.441406 71.355469 91.808594 73.988281 88.570312 73.988281 Z M 88.570312 73.988281 " fill-opacity="1" fill-rule="nonzero"/></g><g clip-path="url(#948a7e7edf)"><g clip-path="url(#0717fb1129)"><path fill="url(#40361e4293)" d="M 81.773438 61.296875 L 81.773438 74.898438 L 95.3125 74.898438 L 95.3125 61.296875 Z M 81.773438 61.296875 " fill-rule="nonzero"/></g></g><path fill="#ffffff" d="M 86.824219 65.117188 C 86.695312 64.824219 86.558594 64.820312 86.433594 64.816406 C 86.332031 64.8125 86.214844 64.8125 86.097656 64.8125 C 85.984375 64.8125 85.792969 64.855469 85.632812 65.03125 C 85.472656 65.203125 85.023438 65.625 85.023438 66.484375 C 85.023438 67.34375 85.648438 68.171875 85.734375 68.289062 C 85.824219 68.40625 86.941406 70.222656 88.714844 70.921875 C 90.1875 71.503906 90.488281 71.386719 90.808594 71.359375 C 91.128906 71.328125 91.839844 70.9375 91.988281 70.527344 C 92.132812 70.121094 92.132812 69.773438 92.089844 69.699219 C 92.046875 69.628906 91.929688 69.582031 91.753906 69.496094 C 91.578125 69.410156 90.722656 68.988281 90.5625 68.929688 C 90.402344 68.871094 90.285156 68.839844 90.167969 69.015625 C 90.054688 69.191406 89.71875 69.582031 89.617188 69.699219 C 89.515625 69.816406 89.414062 69.832031 89.238281 69.742188 C 89.066406 69.65625 88.503906 69.472656 87.835938 68.878906 C 87.316406 68.414062 86.96875 67.84375 86.867188 67.667969 C 86.765625 67.496094 86.855469 67.402344 86.941406 67.3125 C 87.019531 67.234375 87.117188 67.109375 87.203125 67.007812 C 87.289062 66.90625 87.320312 66.832031 87.378906 66.71875 C 87.4375 66.601562 87.40625 66.5 87.363281 66.410156 C 87.320312 66.324219 86.980469 65.460938 86.824219 65.117188 Z M 86.824219 65.117188 " fill-opacity="1" fill-rule="evenodd"/><g clip-path="url(#744a48f61a)"><path fill="#ffffff" d="M 93.511719 63.101562 C 92.191406 61.78125 90.4375 61.054688 88.570312 61.054688 C 84.722656 61.054688 81.589844 64.1875 81.589844 68.035156 C 81.589844 69.265625 81.910156 70.464844 82.519531 71.523438 L 81.53125 75.140625 L 85.230469 74.171875 C 86.25 74.726562 87.398438 75.019531 88.566406 75.019531 L 88.570312 75.019531 C 92.417969 75.019531 95.550781 71.886719 95.554688 68.039062 C 95.554688 66.175781 94.828125 64.421875 93.511719 63.101562 Z M 88.570312 73.839844 C 87.527344 73.839844 86.503906 73.5625 85.613281 73.03125 L 85.402344 72.90625 L 83.207031 73.484375 L 83.792969 71.34375 L 83.65625 71.121094 C 83.074219 70.199219 82.765625 69.132812 82.765625 68.035156 C 82.769531 64.835938 85.371094 62.234375 88.574219 62.234375 C 90.125 62.234375 91.582031 62.839844 92.675781 63.933594 C 93.773438 65.03125 94.375 66.488281 94.375 68.039062 C 94.371094 71.238281 91.769531 73.839844 88.570312 73.839844 Z M 88.570312 73.839844 " fill-opacity="1" fill-rule="nonzero"/></g><g clip-path="url(#8b4da8daa1)"><path fill="#419fd9" d="M 88.488281 26.839844 C 88.953125 26.839844 89.417969 26.886719 89.875 26.976562 C 90.335938 27.066406 90.78125 27.203125 91.214844 27.382812 C 91.644531 27.5625 92.054688 27.78125 92.445312 28.039062 C 92.835938 28.300781 93.195312 28.59375 93.523438 28.925781 C 93.855469 29.257812 94.152344 29.617188 94.410156 30.003906 C 94.671875 30.394531 94.890625 30.804688 95.070312 31.238281 C 95.25 31.667969 95.382812 32.117188 95.476562 32.574219 C 95.566406 33.03125 95.613281 33.496094 95.613281 33.964844 C 95.613281 34.433594 95.566406 34.894531 95.476562 35.355469 C 95.382812 35.8125 95.25 36.257812 95.070312 36.691406 C 94.890625 37.121094 94.671875 37.535156 94.410156 37.921875 C 94.152344 38.3125 93.855469 38.671875 93.523438 39.003906 C 93.195312 39.332031 92.835938 39.628906 92.445312 39.886719 C 92.054688 40.148438 91.644531 40.367188 91.214844 40.546875 C 90.78125 40.726562 90.335938 40.859375 89.875 40.953125 C 89.417969 41.042969 88.953125 41.089844 88.488281 41.089844 C 88.019531 41.089844 87.554688 41.042969 87.097656 40.953125 C 86.636719 40.859375 86.191406 40.726562 85.761719 40.546875 C 85.328125 40.367188 84.917969 40.148438 84.527344 39.886719 C 84.140625 39.628906 83.777344 39.332031 83.449219 39.003906 C 83.117188 38.671875 82.824219 38.3125 82.5625 37.921875 C 82.300781 37.535156 82.082031 37.121094 81.902344 36.691406 C 81.726562 36.257812 81.589844 35.8125 81.5 35.355469 C 81.40625 34.894531 81.363281 34.433594 81.363281 33.964844 C 81.363281 33.496094 81.40625 33.03125 81.5 32.574219 C 81.589844 32.117188 81.726562 31.667969 81.902344 31.238281 C 82.082031 30.804688 82.300781 30.394531 82.5625 30.003906 C 82.824219 29.617188 83.117188 29.257812 83.449219 28.925781 C 83.777344 28.59375 84.140625 28.300781 84.527344 28.039062 C 84.917969 27.78125 85.328125 27.5625 85.761719 27.382812 C 86.191406 27.203125 86.636719 27.066406 87.097656 26.976562 C 87.554688 26.886719 88.019531 26.839844 88.488281 26.839844 Z M 88.488281 26.839844 " fill-opacity="1" fill-rule="nonzero"/></g><g clip-path="url(#d7f3cbcca9)"><g clip-path="url(#6057ce6c99)"><path fill="url(#93e90f9e92)" d="M 81.363281 26.839844 L 81.363281 41.089844 L 95.613281 41.089844 L 95.613281 26.839844 Z M 81.363281 26.839844 " fill-rule="nonzero"/></g></g><path fill="#ffffff" d="M 84.5625 33.808594 C 86.636719 32.886719 88.019531 32.277344 88.710938 31.984375 C 90.683594 31.144531 91.09375 31 91.359375 30.996094 C 91.417969 30.996094 91.550781 31.007812 91.636719 31.078125 C 91.707031 31.140625 91.726562 31.21875 91.738281 31.277344 C 91.746094 31.332031 91.757812 31.460938 91.75 31.5625 C 91.640625 32.710938 91.179688 35.496094 90.945312 36.78125 C 90.84375 37.324219 90.648438 37.503906 90.457031 37.523438 C 90.046875 37.5625 89.730469 37.246094 89.332031 36.976562 C 88.707031 36.558594 88.351562 36.296875 87.746094 35.890625 C 87.042969 35.417969 87.5 35.15625 87.898438 34.734375 C 88.003906 34.621094 89.820312 32.933594 89.855469 32.78125 C 89.863281 32.761719 89.867188 32.691406 89.824219 32.652344 C 89.78125 32.613281 89.722656 32.628906 89.675781 32.636719 C 89.613281 32.652344 88.613281 33.328125 86.679688 34.660156 C 86.394531 34.859375 86.136719 34.957031 85.910156 34.953125 C 85.65625 34.945312 85.167969 34.804688 84.804688 34.683594 C 84.359375 34.535156 84.003906 34.457031 84.035156 34.207031 C 84.050781 34.078125 84.226562 33.945312 84.5625 33.808594 Z M 84.5625 33.808594 " fill-opacity="1" fill-rule="nonzero"/><g clip-path="url(#3b1ea675d5)"><g clip-path="url(#1ee2edb000)"><path fill="#fffc00" d="M 81.363281 10.199219 L 95.390625 10.199219 L 95.390625 24.230469 L 81.363281 24.230469 Z M 81.363281 10.199219 " fill-opacity="1" fill-rule="nonzero"/></g></g><g clip-path="url(#e3938bea1f)"><path fill="#fffc00" d="M 83.007812 19.59375 L 83.007812 19.597656 C 83.011719 19.828125 83.015625 20.0625 83.054688 20.296875 C 83.097656 20.539062 83.15625 20.777344 83.269531 21 C 83.421875 21.300781 83.632812 21.558594 83.898438 21.765625 C 84.089844 21.914062 84.300781 22.03125 84.53125 22.105469 C 84.867188 22.214844 85.214844 22.257812 85.570312 22.257812 C 85.789062 22.261719 86.007812 22.265625 86.230469 22.265625 C 87.828125 22.257812 89.429688 22.277344 91.027344 22.253906 C 91.242188 22.253906 91.449219 22.226562 91.65625 22.1875 C 92.054688 22.117188 92.410156 21.945312 92.710938 21.675781 C 93.0625 21.363281 93.300781 20.976562 93.40625 20.515625 C 93.476562 20.210938 93.496094 19.902344 93.5 19.59375 L 93.5 19.535156 C 93.5 19.511719 93.488281 14.292969 93.488281 14.222656 C 93.484375 14.035156 93.472656 13.847656 93.4375 13.660156 C 93.394531 13.433594 93.332031 13.210938 93.222656 13.003906 C 93.109375 12.789062 92.964844 12.59375 92.785156 12.421875 C 92.515625 12.160156 92.199219 11.976562 91.832031 11.878906 C 91.503906 11.789062 91.164062 11.769531 90.824219 11.769531 C 90.824219 11.769531 90.824219 11.769531 90.824219 11.765625 L 85.679688 11.765625 C 85.679688 11.769531 85.679688 11.769531 85.679688 11.769531 C 85.488281 11.773438 85.292969 11.773438 85.101562 11.796875 C 84.890625 11.824219 84.683594 11.863281 84.484375 11.9375 C 84.171875 12.050781 83.898438 12.234375 83.664062 12.472656 C 83.402344 12.746094 83.214844 13.0625 83.117188 13.429688 C 83.03125 13.757812 83.011719 14.09375 83.011719 14.429688 " fill-opacity="1" fill-rule="nonzero"/></g><path fill="#ffffff" d="M 88.300781 20.625 C 88.277344 20.625 88.257812 20.625 88.242188 20.625 C 88.230469 20.625 88.214844 20.625 88.203125 20.625 C 87.746094 20.625 87.4375 20.410156 87.167969 20.21875 C 86.976562 20.082031 86.792969 19.953125 86.578125 19.917969 C 86.472656 19.898438 86.371094 19.890625 86.269531 19.890625 C 86.085938 19.890625 85.941406 19.917969 85.839844 19.9375 C 85.773438 19.949219 85.71875 19.960938 85.675781 19.960938 C 85.628906 19.960938 85.574219 19.953125 85.550781 19.875 C 85.535156 19.8125 85.519531 19.753906 85.507812 19.695312 C 85.476562 19.550781 85.453125 19.464844 85.402344 19.457031 C 84.828125 19.367188 84.488281 19.238281 84.417969 19.078125 C 84.414062 19.0625 84.410156 19.046875 84.40625 19.03125 C 84.40625 18.972656 84.429688 18.941406 84.484375 18.933594 C 84.941406 18.859375 85.347656 18.617188 85.691406 18.214844 C 85.957031 17.90625 86.085938 17.609375 86.101562 17.578125 C 86.101562 17.578125 86.101562 17.574219 86.101562 17.574219 C 86.167969 17.4375 86.183594 17.324219 86.140625 17.226562 C 86.066406 17.054688 85.824219 16.976562 85.660156 16.925781 C 85.621094 16.910156 85.582031 16.898438 85.550781 16.886719 C 85.410156 16.832031 85.171875 16.710938 85.203125 16.546875 C 85.226562 16.425781 85.386719 16.339844 85.515625 16.339844 C 85.550781 16.339844 85.582031 16.347656 85.609375 16.359375 C 85.753906 16.429688 85.886719 16.460938 86 16.460938 C 86.140625 16.460938 86.207031 16.410156 86.222656 16.394531 C 86.21875 16.316406 86.214844 16.242188 86.210938 16.164062 C 86.175781 15.640625 86.136719 14.988281 86.304688 14.613281 C 86.800781 13.496094 87.859375 13.410156 88.171875 13.410156 C 88.222656 13.40625 88.277344 13.40625 88.328125 13.40625 C 88.640625 13.40625 89.703125 13.492188 90.199219 14.613281 C 90.367188 14.988281 90.328125 15.640625 90.292969 16.164062 L 90.292969 16.191406 C 90.289062 16.261719 90.28125 16.328125 90.28125 16.394531 C 90.296875 16.40625 90.355469 16.457031 90.484375 16.460938 C 90.589844 16.457031 90.714844 16.421875 90.851562 16.359375 C 90.890625 16.339844 90.9375 16.335938 90.96875 16.335938 C 91.019531 16.335938 91.066406 16.34375 91.109375 16.363281 C 91.226562 16.402344 91.300781 16.484375 91.300781 16.570312 C 91.304688 16.652344 91.246094 16.773438 90.949219 16.886719 C 90.921875 16.898438 90.882812 16.910156 90.84375 16.925781 C 90.679688 16.976562 90.433594 17.054688 90.359375 17.226562 C 90.320312 17.324219 90.335938 17.4375 90.402344 17.574219 C 90.402344 17.574219 90.402344 17.578125 90.402344 17.578125 C 90.421875 17.625 90.917969 18.75 92.019531 18.933594 C 92.074219 18.941406 92.097656 18.972656 92.097656 19.03125 C 92.09375 19.046875 92.089844 19.0625 92.082031 19.078125 C 92.015625 19.238281 91.675781 19.367188 91.101562 19.457031 C 91.050781 19.464844 91.027344 19.550781 90.996094 19.695312 C 90.980469 19.753906 90.96875 19.808594 90.953125 19.871094 C 90.933594 19.929688 90.898438 19.957031 90.839844 19.957031 L 90.828125 19.957031 C 90.789062 19.957031 90.734375 19.949219 90.664062 19.933594 C 90.542969 19.910156 90.40625 19.890625 90.234375 19.890625 C 90.132812 19.890625 90.03125 19.898438 89.925781 19.917969 C 89.710938 19.953125 89.527344 20.082031 89.335938 20.21875 C 89.0625 20.410156 88.757812 20.625 88.300781 20.625 " fill-opacity="1" fill-rule="nonzero"/><path fill="#020202" d="M 88.328125 13.5 C 88.621094 13.5 89.636719 13.578125 90.117188 14.652344 C 90.273438 15.003906 90.234375 15.644531 90.203125 16.160156 C 90.195312 16.242188 90.191406 16.320312 90.1875 16.394531 L 90.183594 16.425781 L 90.207031 16.453125 C 90.214844 16.460938 90.296875 16.546875 90.480469 16.554688 L 90.484375 16.554688 C 90.605469 16.550781 90.742188 16.511719 90.890625 16.441406 C 90.910156 16.433594 90.941406 16.429688 90.96875 16.429688 C 91.003906 16.429688 91.042969 16.433594 91.074219 16.449219 L 91.078125 16.449219 C 91.15625 16.476562 91.210938 16.527344 91.210938 16.574219 C 91.210938 16.601562 91.191406 16.695312 90.917969 16.800781 C 90.890625 16.8125 90.855469 16.824219 90.8125 16.835938 C 90.636719 16.894531 90.367188 16.980469 90.277344 17.191406 C 90.226562 17.3125 90.238281 17.453125 90.316406 17.613281 C 90.351562 17.691406 90.859375 18.835938 92.003906 19.023438 C 92.003906 19.03125 92 19.035156 92 19.042969 C 91.980469 19.089844 91.855469 19.246094 91.089844 19.363281 C 90.96875 19.382812 90.9375 19.519531 90.90625 19.675781 C 90.894531 19.730469 90.878906 19.785156 90.863281 19.84375 C 90.859375 19.863281 90.855469 19.863281 90.839844 19.863281 L 90.828125 19.863281 C 90.796875 19.863281 90.742188 19.855469 90.683594 19.84375 C 90.574219 19.824219 90.425781 19.796875 90.234375 19.796875 C 90.128906 19.796875 90.019531 19.808594 89.910156 19.824219 C 89.675781 19.863281 89.484375 20 89.28125 20.140625 C 89.007812 20.335938 88.730469 20.53125 88.300781 20.53125 C 88.28125 20.53125 88.261719 20.53125 88.246094 20.53125 L 88.234375 20.53125 C 88.226562 20.53125 88.214844 20.53125 88.203125 20.53125 C 87.773438 20.53125 87.496094 20.335938 87.222656 20.140625 C 87.019531 20 86.828125 19.863281 86.59375 19.824219 C 86.484375 19.808594 86.375 19.796875 86.269531 19.796875 C 86.078125 19.796875 85.929688 19.828125 85.820312 19.847656 C 85.761719 19.859375 85.707031 19.871094 85.675781 19.871094 C 85.648438 19.871094 85.648438 19.867188 85.640625 19.847656 C 85.625 19.789062 85.609375 19.730469 85.597656 19.675781 C 85.5625 19.519531 85.535156 19.382812 85.414062 19.367188 C 84.648438 19.246094 84.523438 19.089844 84.503906 19.042969 C 84.503906 19.035156 84.5 19.03125 84.5 19.023438 C 85.644531 18.835938 86.152344 17.691406 86.1875 17.613281 C 86.265625 17.453125 86.277344 17.3125 86.226562 17.191406 C 86.136719 16.980469 85.867188 16.894531 85.6875 16.835938 C 85.648438 16.824219 85.613281 16.8125 85.585938 16.800781 C 85.355469 16.710938 85.285156 16.617188 85.292969 16.5625 C 85.308594 16.5 85.417969 16.433594 85.515625 16.433594 C 85.539062 16.433594 85.554688 16.4375 85.570312 16.441406 C 85.730469 16.515625 85.875 16.554688 86 16.554688 C 86.199219 16.554688 86.289062 16.460938 86.296875 16.453125 L 86.316406 16.425781 L 86.316406 16.394531 C 86.3125 16.320312 86.308594 16.242188 86.300781 16.160156 C 86.269531 15.644531 86.230469 15.003906 86.386719 14.652344 C 86.863281 13.582031 87.875 13.5 88.171875 13.5 C 88.179688 13.5 88.308594 13.5 88.308594 13.5 C 88.316406 13.5 88.320312 13.5 88.328125 13.5 M 88.328125 13.316406 C 88.320312 13.316406 88.3125 13.316406 88.308594 13.316406 L 88.171875 13.316406 C 87.996094 13.316406 87.648438 13.339844 87.273438 13.507812 C 87.058594 13.601562 86.863281 13.730469 86.699219 13.886719 C 86.5 14.074219 86.339844 14.308594 86.21875 14.578125 C 86.042969 14.972656 86.085938 15.636719 86.117188 16.171875 C 86.121094 16.226562 86.125 16.289062 86.128906 16.347656 C 86.101562 16.359375 86.0625 16.371094 86 16.371094 C 85.898438 16.371094 85.78125 16.339844 85.648438 16.277344 C 85.609375 16.257812 85.566406 16.25 85.515625 16.25 C 85.4375 16.25 85.351562 16.273438 85.28125 16.316406 C 85.1875 16.367188 85.128906 16.445312 85.113281 16.527344 C 85.101562 16.582031 85.101562 16.695312 85.226562 16.804688 C 85.292969 16.867188 85.390625 16.921875 85.519531 16.972656 C 85.550781 16.988281 85.589844 17 85.632812 17.011719 C 85.777344 17.058594 86 17.128906 86.058594 17.265625 C 86.085938 17.332031 86.074219 17.421875 86.019531 17.53125 C 86.019531 17.535156 86.015625 17.539062 86.015625 17.542969 C 86.003906 17.574219 85.878906 17.855469 85.621094 18.15625 C 85.472656 18.328125 85.3125 18.46875 85.140625 18.582031 C 84.933594 18.714844 84.707031 18.804688 84.46875 18.84375 C 84.359375 18.859375 84.308594 18.925781 84.316406 19.035156 C 84.316406 19.0625 84.324219 19.089844 84.335938 19.113281 L 84.335938 19.117188 C 84.371094 19.203125 84.460938 19.277344 84.601562 19.34375 C 84.773438 19.425781 85.035156 19.492188 85.371094 19.546875 C 85.386719 19.578125 85.40625 19.660156 85.417969 19.714844 C 85.429688 19.773438 85.445312 19.835938 85.464844 19.898438 C 85.484375 19.96875 85.539062 20.054688 85.675781 20.054688 C 85.726562 20.054688 85.785156 20.042969 85.855469 20.027344 C 85.957031 20.007812 86.09375 19.980469 86.269531 19.980469 C 86.363281 19.980469 86.464844 19.992188 86.5625 20.007812 C 86.757812 20.039062 86.921875 20.15625 87.117188 20.292969 C 87.398438 20.492188 87.714844 20.71875 88.203125 20.71875 C 88.214844 20.71875 88.230469 20.714844 88.242188 20.714844 C 88.257812 20.714844 88.277344 20.71875 88.300781 20.71875 C 88.789062 20.71875 89.105469 20.492188 89.386719 20.292969 C 89.582031 20.15625 89.746094 20.039062 89.9375 20.007812 C 90.039062 19.992188 90.140625 19.980469 90.234375 19.980469 C 90.398438 19.980469 90.53125 20.003906 90.648438 20.027344 C 90.722656 20.039062 90.785156 20.046875 90.828125 20.046875 L 90.835938 20.046875 C 90.9375 20.046875 91.011719 19.992188 91.039062 19.898438 C 91.058594 19.832031 91.070312 19.773438 91.085938 19.714844 C 91.097656 19.660156 91.113281 19.578125 91.132812 19.542969 C 91.46875 19.492188 91.730469 19.425781 91.902344 19.34375 C 92.042969 19.277344 92.128906 19.203125 92.167969 19.117188 C 92.179688 19.089844 92.1875 19.0625 92.1875 19.035156 C 92.195312 18.925781 92.144531 18.859375 92.035156 18.84375 C 90.980469 18.667969 90.507812 17.585938 90.488281 17.542969 C 90.484375 17.539062 90.484375 17.535156 90.484375 17.53125 C 90.429688 17.421875 90.417969 17.332031 90.445312 17.265625 C 90.503906 17.128906 90.722656 17.058594 90.871094 17.011719 C 90.914062 17 90.953125 16.988281 90.984375 16.972656 C 91.128906 16.917969 91.230469 16.855469 91.300781 16.785156 C 91.378906 16.703125 91.394531 16.621094 91.394531 16.570312 C 91.390625 16.445312 91.296875 16.332031 91.140625 16.277344 C 91.089844 16.253906 91.03125 16.242188 90.96875 16.242188 C 90.929688 16.242188 90.867188 16.25 90.8125 16.277344 C 90.6875 16.332031 90.578125 16.363281 90.484375 16.371094 C 90.433594 16.367188 90.398438 16.355469 90.375 16.347656 C 90.378906 16.296875 90.378906 16.246094 90.382812 16.191406 L 90.386719 16.171875 C 90.417969 15.636719 90.460938 14.972656 90.285156 14.578125 C 90.164062 14.304688 90.003906 14.074219 89.804688 13.882812 C 89.636719 13.726562 89.441406 13.597656 89.226562 13.503906 C 88.851562 13.339844 88.503906 13.316406 88.328125 13.316406 " fill-opacity="1" fill-rule="nonzero"/><g clip-path="url(#e3645a84e5)"><path fill="#ffffff" d="M 86.875 78.867188 L 88.371094 80.363281 L 89.867188 78.867188 C 90.390625 78.34375 91.179688 79.128906 90.652344 79.652344 L 89.15625 81.152344 L 90.652344 82.648438 C 91.179688 83.171875 90.390625 83.957031 89.867188 83.433594 L 88.371094 81.9375 L 86.875 83.433594 C 86.351562 83.957031 85.566406 83.171875 86.089844 82.648438 L 87.585938 81.152344 L 86.089844 79.652344 C 85.566406 79.128906 86.351562 78.34375 86.875 78.867188 Z M 86.875 78.867188 " fill-opacity="1" fill-rule="evenodd"/></g><path fill="#2563eb" d="M 88.1875 91.839844 C 84.417969 91.839844 81.359375 88.78125 81.359375 85.007812 C 81.359375 81.234375 84.417969 78.175781 88.1875 78.175781 L 95.019531 78.175781 L 95.019531 85.007812 C 95.019531 88.78125 91.960938 91.839844 88.1875 91.839844 Z M 88.1875 91.839844 " fill-opacity="1" fill-rule="nonzero"/><path fill="#ffffff" d="M 93.074219 84.773438 C 93.074219 85.53125 92.765625 86.222656 92.265625 86.722656 C 91.773438 87.222656 91.082031 87.53125 90.324219 87.53125 L 85.984375 87.53125 C 85.863281 87.53125 85.753906 87.523438 85.644531 87.507812 L 84.4375 88.304688 L 84.414062 87.039062 C 83.695312 86.546875 83.222656 85.714844 83.222656 84.773438 C 83.222656 83.832031 83.53125 83.324219 84.03125 82.832031 C 84.53125 82.332031 85.222656 82.023438 85.980469 82.023438 L 90.320312 82.023438 C 91.835938 82.023438 93.074219 83.257812 93.074219 84.773438 Z M 93.074219 84.773438 " fill-opacity="1" fill-rule="nonzero"/><path fill="#2563eb" d="M 90.707031 83.894531 L 85.59375 83.894531 C 85.5 83.894531 85.425781 83.789062 85.425781 83.664062 C 85.425781 83.535156 85.5 83.429688 85.59375 83.429688 L 90.707031 83.429688 C 90.800781 83.429688 90.875 83.535156 90.875 83.664062 C 90.875 83.789062 90.800781 83.894531 90.707031 83.894531 Z M 90.707031 83.894531 " fill-opacity="1" fill-rule="nonzero"/><path fill="#2563eb" d="M 90.707031 85.027344 L 85.59375 85.027344 C 85.5 85.027344 85.425781 84.921875 85.425781 84.796875 C 85.425781 84.667969 85.5 84.5625 85.59375 84.5625 L 90.707031 84.5625 C 90.800781 84.5625 90.875 84.667969 90.875 84.796875 C 90.875 84.921875 90.800781 85.027344 90.707031 85.027344 Z M 90.707031 85.027344 " fill-opacity="1" fill-rule="nonzero"/><path fill="#2563eb" d="M 90.707031 86.160156 L 85.59375 86.160156 C 85.5 86.160156 85.425781 86.058594 85.425781 85.929688 C 85.425781 85.800781 85.5 85.699219 85.59375 85.699219 L 90.707031 85.699219 C 90.800781 85.699219 90.875 85.800781 90.875 85.929688 C 90.875 86.058594 90.800781 86.160156 90.707031 86.160156 Z M 90.707031 86.160156 " fill-opacity="1" fill-rule="nonzero"/></svg>