<svg width="136" height="136" viewBox="0 0 136 136" fill="none" xmlns="http://www.w3.org/2000/svg" svg-inline="" role="presentation" focusable="false" tabindex="-1"><path d="M0 16C0 8.458 0 4.686 2.343 2.343S8.458 0 16 0h104c7.542 0 11.314 0 13.657 2.343S136 8.458 136 16v104c0 7.542 0 11.314-2.343 13.657S127.542 136 120 136H16c-7.542 0-11.314 0-13.657-2.343S0 127.542 0 120V16z" fill="url(#paint0_linear_5493_27214)"></path><g clip-path="url(#clip0_5493_27214)"><path d="M112 123c6.627 0 12-5.373 12-12s-5.373-12-12-12-12 5.373-12 12 5.373 12 12 12z" fill="#B78DEB"></path><path d="M113.958 108.156h-6.934c-.844 0-1.555.711-1.555 1.556v4.622c0 .844.711 1.556 1.555 1.556h5.6l2.223 2.222c.088.089.133.089.311.089h.133a.468.468 0 00.222-.4v-8.089c0-.845-.711-1.556-1.555-1.556z" fill="#fff"></path><path d="M116.27 105.844h-6.933c-.845 0-1.556.711-1.556 1.555h6.178a2.296 2.296 0 012.311 2.311v5.156l.845.844c.088.089.133.089.311.089h.133a.467.467 0 00.222-.4v-8c.045-.844-.666-1.555-1.511-1.555z" fill="#fff"></path></g><circle cx="112" cy="51" r="10" fill="#49E670"></circle><path fill-rule="evenodd" clip-rule="evenodd" d="M115.557 47.463A4.959 4.959 0 00112.029 46a4.995 4.995 0 00-4.322 7.48L107 56.066l2.644-.694a4.99 4.99 0 002.383.607h.002a4.995 4.995 0 004.611-6.897 4.94 4.94 0 00-1.083-1.618zm-3.528 7.673h-.001c-.743 0-1.472-.2-2.11-.578l-.151-.09-1.569.411.418-1.529-.098-.157a4.138 4.138 0 01-.634-2.206 4.151 4.151 0 015.734-3.83c.503.208.96.515 1.344.9a4.118 4.118 0 011.212 2.933 4.151 4.151 0 01-4.145 4.146z" fill="#fff"></path><path d="M113.457 51.625c.114.042.726.343.851.406.124.062.208.094.239.146.031.052.031.302-.073.593-.103.29-.601.556-.841.592a1.713 1.713 0 01-.785-.05 7.436 7.436 0 01-.71-.262c-1.25-.54-2.067-1.799-2.129-1.882l-.002-.002c-.068-.091-.507-.68-.507-1.287 0-.614.322-.915.436-1.04a.462.462 0 01.333-.155c.079 0 .159 0 .238.004.077.003.18-.029.28.213.104.25.354.863.385.925.031.063.052.135.01.219-.041.083-.062.135-.124.207-.062.073-.131.163-.187.219-.063.062-.128.13-.055.254.073.125.323.533.693.864.477.424.878.556 1.003.618.124.062.197.052.27-.031a7.95 7.95 0 00.395-.489c.083-.124.166-.103.28-.062z" fill="#fff"></path><path d="M112 32c5.523 0 10-4.477 10-10s-4.477-10-10-10-10 4.477-10 10 4.477 10 10 10z" fill="url(#paint1_linear_5493_27214)"></path><path d="M113.882 17.334H109.7a2.58 2.58 0 00-2.575 2.575v4.182a2.579 2.579 0 002.575 2.576h4.182a2.58 2.58 0 002.576-2.576V19.91a2.574 2.574 0 00-2.576-2.575zm1.748 6.757a1.75 1.75 0 01-1.748 1.748H109.7a1.75 1.75 0 01-1.747-1.748V19.91a1.749 1.749 0 011.747-1.747h4.182a1.75 1.75 0 011.748 1.748v4.182z" fill="#fff"></path><path d="M111.795 19.596a2.403 2.403 0 00-1.7 4.105 2.405 2.405 0 101.7-4.105zm0 3.981a1.575 1.575 0 01-1.115-2.692 1.572 1.572 0 011.718-.342 1.577 1.577 0 01-.603 3.034zM114.301 18.894a.604.604 0 00-.594.488.61.61 0 00.363.679.607.607 0 10.231-1.167z" fill="#fff"></path><path d="M112 90c5.523 0 10-4.477 10-10s-4.477-10-10-10-10 4.477-10 10 4.477 10 10 10z" fill="#3E99D8"></path><path d="M111.024 82.663l-1.836 3.308 3.876-2.343-2.04-.965z" fill="#E0E0E0"></path><path d="M116.533 75.702c-.068-.07-.204-.07-.34-.07l-10.2 4.135a.38.38 0 00-.204.345.38.38 0 00.204.344l8.84 4.135h.136c.068 0 .136 0 .136-.07a.95.95 0 00.204-.275l1.36-8.269c0-.069 0-.206-.136-.275z" fill="#fff"></path><path d="M116.328 75.978l-7.14 5.927v4.065l1.904-3.17 5.236-6.822z" fill="#F2F2F2"></path><defs><linearGradient id="paint0_linear_5493_27214" x1="3" y1="4" x2="131" y2="132.5" gradientUnits="userSpaceOnUse"><stop offset=".191" stop-color="#B78DEB" stop-opacity="0"></stop><stop offset="1" stop-color="#B78DEB" stop-opacity=".15"></stop></linearGradient><linearGradient id="paint1_linear_5493_27214" x1="119.84" y1="15.84" x2="104.56" y2="29" gradientUnits="userSpaceOnUse"><stop stop-color="#4A64D5"></stop><stop offset=".322" stop-color="#9737BD"></stop><stop offset=".636" stop-color="#F15540"></stop><stop offset="1" stop-color="#FECC69"></stop></linearGradient><clipPath id="clip0_5493_27214"><path fill="#fff" transform="translate(100 99)" d="M0 0h24v24H0z"></path></clipPath></defs></svg>