<svg width="136" height="136" viewBox="0 0 136 136" fill="none" xmlns="http://www.w3.org/2000/svg" svg-inline="" role="presentation" focusable="false" tabindex="-1"><path d="M0 16C0 8.458 0 4.686 2.343 2.343S8.458 0 16 0h104c7.542 0 11.314 0 13.657 2.343S136 8.458 136 16v104c0 7.542 0 11.314-2.343 13.657S127.542 136 120 136H16c-7.542 0-11.314 0-13.657-2.343S0 127.542 0 120V16z" fill="#fff"></path><g clip-path="url(#clip0_5493_27235)"><path d="M112 124c6.627 0 12-5.373 12-12s-5.373-12-12-12-12 5.373-12 12 5.373 12 12 12z" fill="#C6D7E3"></path><path d="M113.958 109.156h-6.934c-.844 0-1.555.711-1.555 1.555v4.623c0 .844.711 1.555 1.555 1.555h5.6l2.223 2.222c.088.089.133.089.311.089h.133a.467.467 0 00.222-.4v-8.089c0-.844-.711-1.555-1.555-1.555z" fill="#fff"></path><path d="M116.27 106.844h-6.933c-.845 0-1.556.711-1.556 1.556h6.178a2.295 2.295 0 012.311 2.311v5.155l.845.845c.088.089.133.089.311.089h.133a.467.467 0 00.222-.4v-8c.045-.845-.666-1.556-1.511-1.556z" fill="#fff"></path></g><rect x="12" y="12" width="112" height="83" rx="8" fill="#EAEFF2"></rect><rect x="20" y="40" width="94" height="4" rx="2" fill="#C6D7E3"></rect><path opacity=".3" fill="#C6D7E3" d="M12 12h112v20H12z"></path><rect x="20" y="48" width="86" height="4" rx="2" fill="#C6D7E3"></rect><rect x="20" y="56" width="45" height="4" rx="2" fill="#C6D7E3"></rect><path d="M117 19l-6 6M111 19l6 6" stroke="#83A1B7" stroke-linecap="round" stroke-linejoin="round"></path><g clip-path="url(#clip1_5493_27235)"><path d="M71 87a7 7 0 100-14 7 7 0 000 14z" fill="#C6D7E3"></path></g><g clip-path="url(#clip2_5493_27235)"><path d="M49 87a7 7 0 100-14 7 7 0 000 14z" fill="#C6D7E3"></path></g><g clip-path="url(#clip3_5493_27235)"><path d="M27 87a7 7 0 100-14 7 7 0 000 14z" fill="#C6D7E3"></path></g><defs><clipPath id="clip0_5493_27235"><path fill="#fff" transform="translate(100 100)" d="M0 0h24v24H0z"></path></clipPath><clipPath id="clip1_5493_27235"><path fill="#fff" transform="translate(64 73)" d="M0 0h14v14H0z"></path></clipPath><clipPath id="clip2_5493_27235"><path fill="#fff" transform="translate(42 73)" d="M0 0h14v14H0z"></path></clipPath><clipPath id="clip3_5493_27235"><path fill="#fff" transform="translate(20 73)" d="M0 0h14v14H0z"></path></clipPath></defs></svg>