<svg width="48" height="48" xmlns="http://www.w3.org/2000/svg" viewBox="-496 507.7 54 54" svg-inline="" role="presentation" focusable="false" tabindex="-1" class="chat-icon chat-base">

<circle cx="-469" cy="534.7" r="27" fill="#007CFB" class="color-fill">

</circle>
<path fill="#FFF" d="M-459.9 523.7h-20.3c-1.9 0-3.4 1.5-3.4 3.4v15.3c0 1.9 1.5 3.4 3.4 3.4h11.4l5.9 4.9c.2.2.3.2.5.2h.3c.3-.2.5-.5.5-.8v-4.2h1.7c1.9 0 3.4-1.5 3.4-3.4v-15.3c0-2-1.5-3.5-3.4-3.5z"></path><path fill="gray" d="M-477.7 530.5h11.9c.5 0 .8.4.8.8 0 .5-.4.8-.8.8h-11.9c-.5 0-.8-.4-.8-.8-.1-.5.3-.8.8-.8zM-477.7 533.5h7.9c.5 0 .8.4.8.8 0 .5-.4.8-.8.8h-7.9c-.5 0-.8-.4-.8-.8-.1-.4.3-.8.8-.8z" class="color-fill"></path></svg>